<?xml version="1.0" encoding="utf-8"?>
<!-- Generator: Adobe Illustrator 13.0.0, SVG Export Plug-In . SVG Version: 6.00 Build 14948)  -->
<!DOCTYPE svg PUBLIC "-//W3C//DTD SVG 1.1//EN" "http://www.w3.org/Graphics/SVG/1.1/DTD/svg11.dtd">
<svg version="1.1" id="ikea" xmlns="http://www.w3.org/2000/svg" xmlns:xlink="http://www.w3.org/1999/xlink" x="0px" y="0px"
	 width="390px" height="150px" viewBox="0 0 390 150" enable-background="new 0 0 390 150" xml:space="preserve">
<g>
	<g>
		<rect x="52.7" y="24.8" fill="#006BB6" width="284.3" height="101.9"/>
	</g>
	<g>
		<path fill="#FFD520" d="M194.8,122.2c77.3,0,139.9-20.9,139.9-46.8c0-25.8-62.6-46.8-139.9-46.8C117.6,28.7,55,49.6,55,75.4
			C55,101.2,117.6,122.2,194.8,122.2z"/>
	</g>
	<g>
		<path fill="#006BB6" d="M91.5,93.4c1.4-0.7,1.3-3.2,1.3-3.5c0-0.6,0-30.6,0-31.8c0-1.7-1.1-2.4-1.1-2.4l25.9,0
			c0,0-1.1,0.6-1.1,2.4c0,1,0,30.6,0,32.4c0,0.5,0.2,2.2,1.3,2.8H91.5z"/>
	</g>
	<g>
		<path fill="#006BB6" d="M154.1,93.4c-1.3-0.9-1.3-2.8-1.3-3.2c0-0.3,0-5.8,0-12.2c0,0,7.2,11.4,7.9,13.1c0.7,1.8-0.1,2.3-0.1,2.3
			h29.8c0,0-0.3-0.2-0.8-0.5c-0.7-0.6-1.6-1.2-2.7-2.6c-1.1-1.4-12-19.1-12-19.1s8.2-11.5,9.5-13.1c1.1-1.5,2.3-2.1,2.3-2.2
			c0,0-1.8,0-1.8,0h-23.7c0,0,1.4,1,0.2,2.8c-1.3,1.8-8.7,12.2-8.7,12.2c0-6.3,0-12.2,0-12.6c0-1.7,1.1-2.4,1.1-2.4h-25.3
			c0,0,1.1,0.7,1.1,2.4c0,1.2,0,31.2,0,31.8c0,0.3,0.1,2.8-1.3,3.5H154.1z"/>
	</g>
	<g>
		<path fill="#006BB6" d="M195.7,55.8c0,0,1.1,0.7,1.1,2.4c0,1.2,0,31.2,0,31.8c0,0.3,0.1,2.8-1.3,3.5H239l0-12.8
			c0,0-1.1,1.2-2.9,1.2c-0.4,0-17,0-17,0l0-3h12.2c0.7,0,2.8,0.2,3.3,0.9l0-11.5c-0.6,0.8-2.6,0.9-3.3,0.9c-0.7,0-12.3,0-12.3,0v-3
			c0,0,14.2,0,15.9,0c2.3,0,4,1.7,4,1.7V55.8H195.7z"/>
	</g>
	<path fill="#006BB6" d="M279.3,93.4c0,0,1.2-1.3,0.7-2.8c-0.4-1.6-1.8-4.6-1.8-4.6H267c0,0-1.4,3-1.8,4.6c-0.4,1.6,0.7,2.8,0.7,2.8
		h-22.6c0,0,1.3-1.1,2.1-2.9c0.8-1.8,11.5-30.5,12-31.5c0.8-2-0.5-3.2-0.5-3.2h35.9c0,0-1.3,1.2-0.6,3.2s12.1,30.5,12.7,31.5
		c1,2,2.4,2.9,2.4,2.9H279.3z M275.6,79.1c0,0-2.7-6.6-2.8-6.9c-0.3-0.8-0.4-1.9-0.4-1.9h0c0,0,0,1.1-0.4,1.9
		c-0.1,0.3-2.8,6.9-2.8,6.9H275.6z"/>
	<path fill="#006BB6" d="M340.9,31.1c0-5.2,4.2-9,9.2-9c4.9,0,9.2,3.8,9.2,9c0,5.2-4.2,9.1-9.2,9.1
		C345.1,40.2,340.9,36.4,340.9,31.1z M350.1,38.7c4.1,0,7.3-3.2,7.3-7.6c0-4.3-3.2-7.5-7.3-7.5c-4.1,0-7.4,3.2-7.4,7.5
		C342.7,35.5,346,38.7,350.1,38.7z M348.2,36.4h-1.6V25.9h4c2.5,0,3.7,0.9,3.7,3c0,1.9-1.2,2.7-2.7,2.9l3,4.6h-1.8l-2.8-4.5h-1.8
		V36.4z M350.1,30.5c1.3,0,2.5-0.1,2.5-1.7c0-1.3-1.2-1.5-2.3-1.5h-2.2v3.2H350.1z"/>
</g>
</svg>
