<?xml version="1.0" encoding="utf-8"?>
<!-- Generator: Adobe Illustrator 13.0.0, SVG Export Plug-In . SVG Version: 6.00 Build 14948)  -->
<!DOCTYPE svg PUBLIC "-//W3C//DTD SVG 1.1//EN" "http://www.w3.org/Graphics/SVG/1.1/DTD/svg11.dtd">
<svg version="1.1" id="Mainline_-_Chiltern_Railways"
	 xmlns="http://www.w3.org/2000/svg" xmlns:xlink="http://www.w3.org/1999/xlink" x="0px" y="0px" width="390px" height="150px"
	 viewBox="0 0 390 150" enable-background="new 0 0 390 150" xml:space="preserve">
<g>
	<defs>
		<path id="SVGID_1_" d="M170.9,38.7l-5.7,43.2h9.8l5.7-43.2H170.9z M128,61.6c0-10.3,4.8-16.7,12.2-16.7c7,0,11.3,4.8,11.3,12.2
			c0,11.3-5,17.6-12.7,17.6C132.1,74.7,128,70,128,61.6 M117.8,63c0,13.2,6.5,20.5,17.7,20.5c5.7,0,10.1-2.1,13.5-6.4l-0.7,4.8h9.8
			l5.7-43.2H154l-0.8,5.8c-4.2-4.8-9-7.3-14.9-7.3C126.3,37.2,117.8,47.2,117.8,63 M196.5,43.9l0.7-5.2h-9.4l-5.7,43.2h9.8l2.7-21.2
			c1.4-10.7,5.9-16,14.1-16c5.2,0,8,3.1,8,8.8c0,1.1,0,2.3-0.2,3.6l-3.3,24.8h9.8l3-22.7c0.5-3.5,0.7-6.3,0.7-8.7
			c0-8.4-5.2-13.2-14.1-13.2C206.8,37.2,201.6,39.3,196.5,43.9 M171.6,23.6c0,3.4,2.5,5.9,5.9,5.9c3.3,0,5.8-2.5,5.8-5.9
			c0-3.3-2.5-5.8-5.8-5.8C174.2,17.8,171.6,20.3,171.6,23.6 M82.7,55.4c-2.1,3.3-4,6.6-5.6,10.2c-1-3.8-2.2-7.1-3.4-10L57.6,12.4
			L35.7,81.8h10.6l10-34.1c0.9-3.3,1.8-6.2,2-9c1.1,3.9,2,6.7,2.7,8.7l13.8,37.2l24.1-37.3c1.9-2.8,3.5-5.5,4.6-8.6
			c-0.2,1.9-0.4,4.4-0.4,7.6v1.6l0.5,33.9h10.3l-3.1-69.5L82.7,55.4z"/>
	</defs>
	<clipPath id="SVGID_2_">
		<use xlink:href="#SVGID_1_"  overflow="visible"/>
	</clipPath>
	
		<linearGradient id="SVGID_3_" gradientUnits="userSpaceOnUse" x1="-226.2739" y1="371.7119" x2="-225.7394" y2="371.7119" gradientTransform="matrix(-712.7868 0 0 -712.7868 -160895 265000.0312)">
		<stop  offset="0" style="stop-color:#25A9E0"/>
		<stop  offset="0.1521" style="stop-color:#25A4DC"/>
		<stop  offset="0.3335" style="stop-color:#2595D1"/>
		<stop  offset="0.53" style="stop-color:#267DBE"/>
		<stop  offset="0.737" style="stop-color:#275CA4"/>
		<stop  offset="0.9502" style="stop-color:#283183"/>
		<stop  offset="1" style="stop-color:#28267A"/>
	</linearGradient>
	<rect x="35.7" y="12.4" clip-path="url(#SVGID_2_)" fill="url(#SVGID_3_)" width="191.1" height="72.2"/>
</g>
<g>
	<defs>
		<polygon id="SVGID_4_" points="229.8,81.8 239.6,81.8 247.8,19.2 239,11.3 		"/>
	</defs>
	<clipPath id="SVGID_5_">
		<use xlink:href="#SVGID_4_"  overflow="visible"/>
	</clipPath>
	
		<linearGradient id="SVGID_6_" gradientUnits="userSpaceOnUse" x1="-226.271" y1="371.7051" x2="-225.737" y2="371.7051" gradientTransform="matrix(-671.2646 0 0 -671.2646 -151508 249559.6875)">
		<stop  offset="0" style="stop-color:#25A9E0"/>
		<stop  offset="0.1521" style="stop-color:#25A4DC"/>
		<stop  offset="0.3335" style="stop-color:#2595D1"/>
		<stop  offset="0.53" style="stop-color:#267DBE"/>
		<stop  offset="0.737" style="stop-color:#275CA4"/>
		<stop  offset="0.9502" style="stop-color:#283183"/>
		<stop  offset="1" style="stop-color:#28267A"/>
	</linearGradient>
	<rect x="229.8" y="11.3" clip-path="url(#SVGID_5_)" fill="url(#SVGID_6_)" width="18" height="70.6"/>
</g>
<g>
	<defs>
		<path id="SVGID_7_" d="M252.9,38.7l-5.7,43.2h9.8l5.7-43.2H252.9z M278.6,43.9l0.7-5.2h-9.4l-5.7,43.2h9.8l2.7-21.2
			c1.4-10.7,5.9-16,14.1-16c5.2,0,8,3.1,8,8.8c0,1.1,0,2.3-0.2,3.6l-3.3,24.8h9.8l3-22.7c0.5-3.5,0.7-6.3,0.7-8.7
			c0-8.4-5.2-13.2-14.1-13.2C288.8,37.2,283.6,39.3,278.6,43.9 M335.5,45.7c5.8,0,9.4,3.5,9.6,9.4h-22.3
			C324.1,49.3,328.9,45.7,335.5,45.7 M311.8,62.5c0,12.7,8.7,21.1,21.4,21.1c7.7,0,13.3-3,18.4-9.5l-7.1-5.5
			c-2.9,4-7.2,6.2-11.7,6.2c-6.4,0-10.8-4.8-10.8-12.8h32.9c0.2-2.2,0.3-3.8,0.3-4.8c0-12.3-7.6-20-19.2-20
			C322,37.2,311.8,47.6,311.8,62.5 M253.7,23.6c0,3.4,2.5,5.9,5.9,5.9c3.3,0,5.8-2.5,5.8-5.9c0-3.3-2.5-5.8-5.8-5.8
			S253.7,20.3,253.7,23.6"/>
	</defs>
	<clipPath id="SVGID_8_">
		<use xlink:href="#SVGID_7_"  overflow="visible"/>
	</clipPath>
	
		<linearGradient id="SVGID_9_" gradientUnits="userSpaceOnUse" x1="-226.2729" y1="371.7139" x2="-225.7394" y2="371.7139" gradientTransform="matrix(-712.7866 0 0 -712.7866 -160895 265003.5)">
		<stop  offset="0" style="stop-color:#25A9E0"/>
		<stop  offset="0.1521" style="stop-color:#25A4DC"/>
		<stop  offset="0.3335" style="stop-color:#2595D1"/>
		<stop  offset="0.53" style="stop-color:#267DBE"/>
		<stop  offset="0.737" style="stop-color:#275CA4"/>
		<stop  offset="0.9502" style="stop-color:#283183"/>
		<stop  offset="1" style="stop-color:#28267A"/>
	</linearGradient>
	<rect x="247.2" y="17.8" clip-path="url(#SVGID_8_)" fill="url(#SVGID_9_)" width="108" height="65.8"/>
</g>
<g>
	<path fill="#25A9E0" d="M233.7,102.8c-7.5-4-14.9-3.7-15.6-3.8l-182.8,0c-0.4,0-0.5,0.1-0.4,0.3l2.8,3.1c0.2,0.2,0.6,0.3,0.9,0.3
		L233.7,102.8z"/>
	<path fill="#25A9E0" d="M233.7,102.8c7.5,4,14.9,3.7,15.6,3.8l101.8,0c0.4,0,0.5-0.1,0.4-0.3l-2.8-3.1c-0.2-0.2,0-0.1-0.4-0.3
		L233.7,102.8z"/>
	<path fill="#25A9E0" d="M265.1,108.6c5.2,2.8,10.4,2.6,10.9,2.6l78.9,0c0.3,0,0.4-0.1,0.3-0.2l-2-2.2c-0.1-0.1,0,0-0.3-0.2
		L265.1,108.6z"/>
	<path fill="#005091" d="M93.6,131.2L93.6,131.2c-0.1,0-0.1,0-0.1,0c-1,0.6-2.5,1.2-4.2,1.2c-1.3,0-2.5-0.5-3.4-1.4
		c-1-1-1.6-2.5-1.6-4.1c0-2.8,1.9-4.8,4.6-4.8c1.2,0,2.5,0.4,3.6,1.1c0,0,0.1,0,0.1,0c0,0,0,0,0-0.1v-2.3c0,0,0-0.1-0.1-0.1
		c-1.4-0.3-2.6-0.5-3.6-0.5c-2,0-3.9,0.7-5.1,2c-1.3,1.3-1.9,3-1.9,5c0,2,0.6,3.7,1.9,4.9c1.4,1.4,3.4,2.1,5.8,2.1
		c1.2,0,2.2-0.2,3-0.6c0,0,0,0,0,0l1-2.3C93.7,131.3,93.7,131.2,93.6,131.2C93.7,131.2,93.7,131.2,93.6,131.2"/>
	<path fill="#005091" d="M103.8,133.7c-0.7-0.4-0.7-1-0.7-1.8l0-0.3V128c0-1.3-0.3-2.2-0.9-2.8c-0.6-0.6-1.4-0.9-2.6-0.9
		c-0.9,0-2.2,0.3-2.8,1.1v-5c0,0,0-0.1-0.1-0.1h-0.1c0,0,0,0-0.1,0c-0.3,0.3-0.7,0.3-1.1,0.3h-1.3c0,0-0.1,0-0.1,0.1v0.1
		c0,0,0,0.1,0,0.1c0.7,0.4,0.7,1,0.7,1.8l0,0.3v8.7l0,0.3c0,0.8,0,1.4-0.7,1.8c0,0,0,0,0,0.1v0.1c0,0,0,0.1,0.1,0.1h3.3
		c0,0,0.1,0,0.1-0.1v-0.1c0,0,0-0.1,0-0.1c-0.7-0.4-0.7-1-0.7-1.8l0-0.3v-3.1c0-1.9,0.6-2.7,2.2-2.7c0.6,0,1.1,0.2,1.5,0.5
		c0.4,0.4,0.7,1.2,0.7,2.3v3c0,0.1,0,0.2,0,0.3c0,0.7,0,1.3-0.7,1.7c0,0,0,0,0,0.1v0.1c0,0,0,0.1,0.1,0.1h3.3c0,0,0.1,0,0.1-0.1
		L103.8,133.7C103.8,133.8,103.8,133.7,103.8,133.7"/>
	<path fill="#005091" d="M108.3,133.7c-0.7-0.4-0.7-1-0.7-1.8l0-0.3v-7.3c0,0,0-0.1-0.1-0.1h-0.1c0,0,0,0-0.1,0
		c-0.3,0.3-0.8,0.3-1.2,0.3h-1.2c-0.1,0-0.1,0-0.1,0.1v0.1c0,0,0,0.1,0,0.1c0.7,0.4,0.7,1,0.7,1.8l0,0.3v4.8l0,0.3
		c0,0.8,0,1.4-0.7,1.8c0,0,0,0,0,0.1v0.1c0,0,0,0.1,0.1,0.1h3.3c0,0,0.1,0,0.1-0.1L108.3,133.7C108.3,133.8,108.3,133.7,108.3,133.7
		"/>
	<path fill="#005091" d="M106.5,123.6c0.7,0,1.3-0.6,1.3-1.3c0-0.4-0.1-0.7-0.4-0.9c-0.2-0.2-0.6-0.4-0.9-0.4c-0.4,0-0.8,0.2-1,0.4
		c-0.2,0.2-0.4,0.5-0.4,0.8c0,0.4,0.1,0.7,0.4,1C105.8,123.5,106.1,123.6,106.5,123.6"/>
	<path fill="#005091" d="M113,133.7c-0.7-0.4-0.7-1-0.7-1.7c0-0.1,0-0.2,0-0.3v-11.2c0,0,0-0.1-0.1-0.1h-0.1c0,0,0,0-0.1,0
		c-0.3,0.3-0.7,0.3-1.1,0.3l-0.1,0h-1.2c0,0-0.1,0-0.1,0.1v0.1c0,0,0,0.1,0,0.1c0.7,0.4,0.7,1,0.7,1.8l0,0.3v8.7l0,0.3
		c0,0.8,0,1.4-0.7,1.8c0,0,0,0,0,0.1v0.1c0,0,0,0.1,0.1,0.1h3.3c0,0,0.1,0,0.1-0.1L113,133.7C113,133.8,113,133.7,113,133.7"/>
	<path fill="#005091" d="M120,124.5L120,124.5c-0.1,0-0.1,0-0.1,0c-0.2,0.1-0.5,0.1-0.7,0.1h-1.8v-2.9c0,0,0-0.1-0.1-0.1h-0.8
		c0,0-0.1,0-0.1,0.1c0,2.1-0.7,3.2-2.3,3.5c0,0-0.1,0-0.1,0.1v0.7c0,0.1,0,0.1,0.1,0.1h1.3v4c0,0.1,0,0.1,0,0.2c0,0.7,0,2.2,0.9,3.1
		c0.5,0.5,1.2,0.7,2,0.7c0.2,0,0.4,0,0.7-0.1c0,0,0,0,0,0l1.1-1.4c0,0,0-0.1,0-0.1c0,0-0.1,0-0.1,0c-0.3,0.1-0.5,0.2-0.8,0.2
		c-0.6,0-1-0.2-1.3-0.5c-0.5-0.5-0.5-1.5-0.5-2c0-0.1,0-0.2,0-0.2v-3.9h1.1l0.1,0c0.5,0,1,0,1.2,0.3c0,0,0,0,0.1,0h0.1
		c0.1,0,0.1,0,0.1-0.1L120,124.5C120.1,124.5,120,124.5,120,124.5"/>
	<path fill="#005091" d="M125.5,125.8c1.4,0,2.2,0.6,2.5,1.9H123C123.3,126.6,124.2,125.8,125.5,125.8 M130.1,131.6L130.1,131.6
		c-0.1,0-0.1,0-0.1,0c-0.9,0.7-2,1-3.2,1c-2.3,0-3.8-1.4-3.9-3.7h7.2c0,0,0.1,0,0.1-0.1c0-1.3-0.4-2.4-1.2-3.3
		c-0.8-0.9-2-1.3-3.4-1.3c-1.5,0-2.8,0.5-3.7,1.4c-0.9,0.9-1.4,2.1-1.4,3.4c0,1.3,0.5,2.4,1.4,3.3c1.1,1.1,2.6,1.7,4.4,1.7
		c1,0,2-0.2,2.8-0.5c0,0,0,0,0,0l1-1.9C130.2,131.7,130.2,131.7,130.1,131.6C130.2,131.7,130.1,131.6,130.1,131.6"/>
	<path fill="#005091" d="M136.9,124.4c0,0-0.7-0.1-0.7-0.1c-0.9,0-1.8,0.5-2.3,1.3v-1.2c0,0,0-0.1-0.1-0.1h-0.1c0,0,0,0-0.1,0
		c-0.3,0.2-0.7,0.2-1.2,0.2h-1.3c0,0-0.1,0-0.1,0.1v0.1c0,0,0,0.1,0,0.1c0.7,0.4,0.7,1,0.7,1.7l0,0.3v4.8l0,0.3c0,0.8,0,1.4-0.7,1.8
		c0,0,0,0,0,0.1v0.1c0,0,0,0.1,0.1,0.1h3.3c0,0,0.1,0,0.1-0.1v-0.1c0,0,0-0.1,0-0.1c-0.7-0.4-0.7-1-0.7-1.8l0-0.3v-2.8
		c0-2,0.6-2.8,2.1-2.8c0.2,0,0.6,0,0.9,0.3c0,0,0.1,0,0.1,0c0,0,0.1,0,0.1-0.1L136.9,124.4C136.9,124.5,136.9,124.4,136.9,124.4"/>
	<path fill="#005091" d="M148,133.7c-0.7-0.4-0.7-1-0.7-1.8l0-0.3v-2.9l0-0.2c0-0.9,0-2-0.5-2.8c-0.7-1-2.1-1.4-3.1-1.4
		c-1.1,0-2,0.4-2.7,1.4v-1.3c0,0,0-0.1-0.1-0.1h-0.1c0,0,0,0,0,0c-0.4,0.2-0.9,0.2-1.3,0.2h-1.2c0,0-0.1,0-0.1,0.1v0.1
		c0,0,0,0.1,0,0.1c0.7,0.4,0.7,1,0.7,1.8l0,0.3v4.7l0,0.3c0,0.8,0,1.4-0.7,1.8c0,0,0,0,0,0.1v0.1c0,0,0,0.1,0.1,0.1h3.3
		c0,0,0.1,0,0.1-0.1v-0.1c0,0,0-0.1,0-0.1c-0.7-0.4-0.7-1-0.7-1.8l0-0.3v-3.5c0-1.1,0.2-2.3,2-2.3c0.7,0,1.2,0.2,1.6,0.5
		c0.5,0.5,0.7,1.3,0.7,2.6v2.7l0,0.3c0,0.8,0,1.3-0.7,1.8c0,0,0,0,0,0.1v0.1c0,0,0,0.1,0.1,0.1h3.3c0,0,0.1,0,0.1-0.1L148,133.7
		C148.1,133.8,148.1,133.7,148,133.7"/>
	<path fill="#005091" d="M163.5,131l-2.8-3.5c1.6-0.4,3.1-1.7,3.1-3.5c0-0.8-0.3-1.6-0.9-2.1c-0.8-0.8-1.9-1.1-3.3-1.1h-4.7
		c0,0-0.1,0-0.1,0.1v0.1c0,0,0,0.1,0.1,0.1c0.8,0.3,0.8,1.4,0.8,2.4l0,0.3v7.5l0,0.3c0,0.9,0,2-0.8,2.3c0,0-0.1,0-0.1,0.1v0.1
		c0,0,0,0.1,0.1,0.1h3.8c0,0,0.1,0,0.1-0.1v-0.1c0,0,0-0.1-0.1-0.1c-0.9-0.3-0.8-1.5-0.8-2.4l0-0.3v-8.8c0.5-0.1,0.9-0.1,1.3-0.1
		c0.7,0,1.4,0.2,1.9,0.6c0.4,0.4,0.6,0.9,0.6,1.5c0,2-2.1,2.6-3.4,2.8c0,0-0.1,0-0.1,0.1c0,0,0,0.1,0,0.1l1.8,2.8c0,0,0,0,0,0l2.4,3
		c0.6,0.7,1.3,1,2.4,1h1.8c0,0,0.1,0,0.1-0.1c0,0,0-0.1,0-0.1C165.4,133,164.2,132,163.5,131"/>
	<path fill="#005091" d="M176.1,132.7c-1.6-0.2-1.6-0.7-1.6-2.3v-3c0-2.8-2.2-3.1-3.9-3.1l-1.3,0.1c0,0-0.1,0-0.1,0l-1.3,2
		c0,0,0,0.1,0,0.1c0,0,0.1,0,0.1,0l0,0c0.9-0.4,1.6-0.8,2.6-0.8c0.5,0,1.2,0.1,1.5,0.5c0.2,0.2,0.3,0.4,0.3,0.7
		c0,0.9-1.1,1.1-2.3,1.3c-1.6,0.3-3.6,0.7-3.6,2.9c0,0.8,0.3,1.5,0.8,2c0.6,0.6,1.6,1,2.7,1c0.3,0,0.7,0,1-0.1c0,0,0,0,0.1,0
		l1.2-1.5c0,0,0-0.1,0-0.1c0,0-0.1,0-0.1,0c-0.5,0.1-0.9,0.3-1.4,0.3c-0.4,0-1.2-0.1-1.7-0.5c-0.3-0.3-0.4-0.6-0.4-1
		c0-1.1,1-1.3,1.9-1.5c0,0,0.1,0,0.1,0l0.1,0c0.6-0.1,1.2-0.3,1.7-0.5v3c0,1.3,0.9,2,2.7,2.2c0,0,0.1,0,0.1,0l0.9-1.3
		C176.2,132.8,176.2,132.8,176.1,132.7C176.2,132.7,176.2,132.7,176.1,132.7"/>
	<path fill="#005091" d="M180,133.7c-0.7-0.4-0.7-1-0.7-1.8l0-0.3v-7.3c0,0,0-0.1-0.1-0.1h-0.1c0,0,0,0-0.1,0
		c-0.3,0.3-0.8,0.3-1.2,0.3h-1.2c0,0-0.1,0-0.1,0.1v0.1c0,0,0,0.1,0,0.1c0.7,0.4,0.7,1,0.7,1.8l0,0.3v4.8l0,0.3c0,0.8,0,1.4-0.7,1.8
		c0,0,0,0,0,0.1v0.1c0,0,0,0.1,0.1,0.1h3.3c0,0,0.1,0,0.1-0.1L180,133.7C180,133.8,180,133.7,180,133.7"/>
	<path fill="#005091" d="M178.2,123.6c0.7,0,1.3-0.6,1.3-1.3c0-0.4-0.1-0.7-0.4-0.9c-0.2-0.2-0.6-0.4-0.9-0.4c-0.4,0-0.8,0.2-1,0.4
		c-0.2,0.2-0.4,0.5-0.4,0.8c0,0.4,0.1,0.7,0.4,1C177.5,123.5,177.8,123.6,178.2,123.6"/>
	<path fill="#005091" d="M184.7,133.7c-0.7-0.4-0.7-1-0.7-1.7c0-0.1,0-0.2,0-0.3v-11.2c0,0,0-0.1-0.1-0.1h-0.1c0,0,0,0-0.1,0
		c-0.3,0.3-0.7,0.3-1.1,0.3l-0.1,0h-1.2c0,0-0.1,0-0.1,0.1v0.1c0,0,0,0.1,0,0.1c0.7,0.4,0.7,1,0.7,1.8l0,0.3v8.7l0,0.3
		c0,0.8,0,1.4-0.7,1.8c0,0,0,0,0,0.1v0.1c0,0,0,0.1,0.1,0.1h3.3c0,0,0.1,0,0.1-0.1L184.7,133.7C184.7,133.8,184.7,133.7,184.7,133.7
		"/>
	<path fill="#005091" d="M201,124.6h-2.7c-0.1,0-0.1,0-0.1,0.1v0.1c0,0,0,0.1,0.1,0.1c0.9,0.4,0.6,1.1,0.3,1.7
		c0,0.1-0.1,0.2-0.1,0.2l-1.8,4.5c-0.4-1-2-5.4-2-5.4l0-0.1c-0.1-0.2-0.2-0.6-0.2-0.8v-0.3c0,0,0-0.1-0.1-0.1h-2.6
		c0,0-0.1,0-0.1,0.1v0.1c0,0,0,0.1,0.1,0.1c0.8,0.3,0.5,1.1,0.2,1.8l-0.1,0.2l-1.7,4.5c-0.4-1.1-2.2-5.8-2.2-5.8
		c-0.1-0.3-0.2-0.7-0.3-1c0,0,0-0.1-0.1-0.1h-0.1c0,0,0,0-0.1,0c-0.4,0.3-0.9,0.3-1.4,0.2c-0.1,0-0.2,0-0.3,0h-0.5
		c0,0-0.1,0-0.1,0.1v0.1c0,0,0,0.1,0,0.1c0.6,0.4,0.7,0.8,1,1.4c0,0,0,0.1,0,0.1l2.2,5.6c0.6,1.4,0.8,1.7,2.2,2.4c0,0,0,0,0.1,0
		c0,0,0,0,0-0.1l2.6-6.7c0.3,0.9,1.6,4.4,1.6,4.4c0.5,1.3,0.7,1.7,2,2.4c0,0,0,0,0.1,0c0,0,0,0,0.1,0l4-9.5
		C201.1,124.7,201.1,124.7,201,124.6C201.1,124.6,201,124.6,201,124.6"/>
	<path fill="#005091" d="M209.9,134.1l0.9-1.3c0,0,0-0.1,0-0.1c0,0,0,0-0.1,0c-1.6-0.2-1.6-0.7-1.6-2.3v-3c0-2.8-2.2-3.1-3.9-3.1
		l-1.3,0.1c0,0-0.1,0-0.1,0l-1.3,2c0,0,0,0.1,0,0.1c0,0,0.1,0,0.1,0l0,0c0.9-0.4,1.6-0.8,2.6-0.8c0.5,0,1.2,0.1,1.5,0.5
		c0.2,0.2,0.3,0.4,0.3,0.7c0,0.9-1.1,1.1-2.3,1.3c-1.6,0.3-3.6,0.7-3.6,2.9c0,0.8,0.3,1.5,0.8,2c0.6,0.6,1.6,1,2.7,1
		c0.3,0,0.7,0,1-0.1c0,0,0,0,0.1,0l1.2-1.5c0,0,0-0.1,0-0.1c0,0-0.1,0-0.1,0c-0.5,0.1-0.9,0.3-1.4,0.3c-0.4,0-1.2-0.1-1.7-0.5
		c-0.3-0.3-0.4-0.6-0.4-1c0-1.1,1-1.3,1.9-1.5c0,0,0.1,0,0.1,0l0.1,0c0.6-0.1,1.2-0.3,1.7-0.5v3C207.1,133.4,208,134.1,209.9,134.1
		C209.9,134.2,209.9,134.2,209.9,134.1"/>
	<path fill="#005091" d="M220.4,124.6h-2.8c0,0-0.1,0-0.1,0.1v0.1c0,0,0,0.1,0.1,0.1c0.8,0.4,0.5,1.3,0.2,2.1l0,0.1
		c0,0-1.6,3.9-1.9,4.9c-0.5-1.1-2.8-6.4-2.8-6.4c-0.3-0.6-0.7-0.8-1.4-0.8h-1.7c0,0-0.1,0-0.1,0.1v0.1c0,0,0,0.1,0.1,0.1
		c0.8,0.3,1.1,0.9,1.4,1.7l0.1,0.2l2.4,5.3l0.1,0.2c0.3,0.6,0.3,0.8,0.9,1.4l0,0.1c0,0.1-0.1,0.3-0.1,0.3c-0.4,1-1,2.5-2.3,2.5
		c-0.4,0-0.7-0.2-1-0.4l-0.1-0.1c0,0-0.1,0-0.1,0l-1.8,1.3c0,0,0,0.1,0,0.1c0,0,0,0.1,0.1,0.1c0.9,0.4,1.6,0.5,2.4,0.5
		c2.1,0,3.4-1,4.4-3.4l4.1-9.9C220.5,124.7,220.5,124.7,220.4,124.6C220.5,124.6,220.4,124.6,220.4,124.6"/>
	<path fill="#005091" d="M225.1,128.1c-1.1-0.4-2.1-0.7-2.1-1.4c0-0.8,1.5-0.9,1.8-0.9c0.8,0,1.6,0.2,2.4,0.6c0,0,0.1,0,0.1,0
		c0,0,0,0,0-0.1v-1.7c0,0,0-0.1-0.1-0.1c-0.6-0.2-1.4-0.3-2.2-0.3c-0.8,0-2.4,0.1-3.3,1c-0.4,0.4-0.7,1-0.7,1.7
		c0,1.7,1.7,2.3,3.2,2.8c1.2,0.4,2.2,0.8,2.2,1.6c0,0.2-0.1,0.5-0.3,0.6c-0.4,0.4-1.2,0.6-1.8,0.6c-1.3,0-2.5-0.4-3.7-1.1
		c0,0-0.1,0-0.1,0c0,0,0,0.1,0,0.1l0.7,1.9c0,0,0,0,0.1,0.1c0.8,0.3,1.7,0.5,2.6,0.5c2.7,0,4.5-1.3,4.5-3.2
		C228.5,129.1,226.6,128.5,225.1,128.1"/>
	<path fill="#005091" d="M36.7,126.2H35v-2h1.7v-2.6c0-2.6,1-3.8,3.3-3.8c0.5,0,1,0.1,1.5,0.2v2c-0.4-0.2-0.7-0.3-1.1-0.3
		c-1.1,0-1.5,0.7-1.5,2.2v2.3h2.4v2h-2.4v7.8h-2.2V126.2z"/>
	<path fill="#005091" d="M46.9,123.9c0.6,0,1.2,0.1,1.8,0.4l-0.8,1.9c-0.4-0.3-0.9-0.4-1.4-0.4c-1.6,0-2.1,1.3-2.1,3.9v4.3h-2.2
		v-9.8h2.2v1.6C45,124.5,45.7,123.9,46.9,123.9"/>
	<path fill="#005091" d="M49.9,125.4c1-1,2.4-1.5,3.8-1.5c1.5,0,2.8,0.5,3.8,1.5c1,1,1.6,2.3,1.6,3.7c0,1.5-0.6,2.8-1.6,3.7
		c-1.1,1-2.4,1.6-3.9,1.6c-1.4,0-2.8-0.6-3.8-1.5c-1-1-1.6-2.3-1.6-3.8C48.3,127.7,48.8,126.4,49.9,125.4 M53.7,125.9
		c-1.7,0-3,1.4-3,3.3c0,1.8,1.4,3.3,3,3.3c1.7,0,3-1.4,3-3.3C56.7,127.3,55.3,125.9,53.7,125.9"/>
	<path fill="#005091" d="M60.4,134v-9.8h2.1v1.6c0.9-1.4,2-2,3.5-2c1.5,0,2.5,0.6,3.1,1.9c1-1.3,2.1-1.9,3.6-1.9
		c1.3,0,2.3,0.5,2.8,1.4c0.3,0.5,0.4,1.2,0.4,2v0.8v6h-2.2v-5c0-2.2-0.2-3.2-1.9-3.2c-2,0-2.5,1.3-2.5,3.8v4.5H67v-5
		c0-2.2-0.4-3.2-2-3.2c-0.9,0-1.7,0.4-2.1,1.1c-0.4,0.6-0.4,1.5-0.4,2.7v4.5H60.4z"/>
</g>
</svg>
