<?xml version="1.0" encoding="utf-8"?>
<!-- Generator: Adobe Illustrator 13.0.0, SVG Export Plug-In . SVG Version: 6.00 Build 14948)  -->
<!DOCTYPE svg PUBLIC "-//W3C//DTD SVG 1.1//EN" "http://www.w3.org/Graphics/SVG/1.1/DTD/svg11.dtd">
<svg version="1.1" id="Layer_7" xmlns="http://www.w3.org/2000/svg" xmlns:xlink="http://www.w3.org/1999/xlink" x="0px" y="0px"
	 width="390px" height="150px" viewBox="0 0 390 150" enable-background="new 0 0 390 150" xml:space="preserve">
<g>
	<path fill="#405052" d="M33.3,77.2c7.6-4.2,9.1-9.3,9.1-17.4V25h5.2v34.6c0,9.5-1.7,16.6-12.1,21.3L33.3,77.2z"/>
	<path fill="#405052" d="M57.6,25h24.8v4.2H62.7v15.7H81v4.3H62.7V65h21.1v4.3H57.6V25z"/>
	<path fill="#405052" d="M112.7,60.6l-6.6-9.2c-1.1,0.2-2.8,0.3-4.1,0.3H96v17.6h-5.1V25h14.4c8.4,0,14.3,4,14.3,12.9
		c0,5.2-2.4,9.9-8.3,12.1l5.9,8.1c2.9,3.8,5.5,6.6,9.7,7.8l-1.1,3.9C120.4,69.3,116.7,65.9,112.7,60.6z M102.4,47.4
		c6.8,0,11.8-2.1,11.8-9c0-6.8-3.6-9.1-10.3-9.1H96v18.1H102.4z"/>
	<path fill="#405052" d="M152.8,60.6l-6.6-9.2c-1.1,0.2-2.8,0.3-4.1,0.3H136v17.6h-5.1V25h14.4c8.4,0,14.3,4,14.3,12.9
		c0,5.2-2.4,9.9-8.3,12.1l5.9,8.1c2.9,3.8,5.5,6.6,9.7,7.8l-1.1,3.9C160.5,69.3,156.7,65.9,152.8,60.6z M142.5,47.4
		c6.8,0,11.8-2.1,11.8-9c0-6.8-3.6-9.1-10.3-9.1H136v18.1H142.5z"/>
	<path fill="#405052" d="M167.7,47c0-13.8,8.9-22.6,22.5-22.6c14.3,0,21.8,9.9,21.8,22.8c0,13.5-8.5,22.8-22.6,22.8
		C175.6,70,167.7,60.6,167.7,47z M206.8,47.1c0-10.5-6-18.4-16.8-18.4c-11.4,0-17.1,7.9-17.1,18.3c0,10.1,5.6,18.8,16.7,18.8
		C201.3,65.7,206.8,57.6,206.8,47.1z"/>
	<path fill="#405052" d="M219.3,25h6.9l15.1,41.1l17-41.1h6.6v44.2h-5.2V39.5l0.2-6.8h-0.2l-14.9,36.5h-7.4l-13.2-36.6h-0.2l0.3,6.1
		v30.5h-5.1V25z"/>
	<path fill="#405052" d="M271.5,66.9l1.6-4.3c3.3,1.6,6.6,2.8,10.8,2.8c4.9,0,10.4-1.9,10.4-7.6c0-11.1-21.7-8.1-21.7-22.6
		c0-7.1,6.1-10.9,13.2-10.9c5,0,8.2,1,10.9,2.4l-1.6,4c-2.9-1.3-5.7-2.1-9.2-2.1c-4.6,0-8.4,2-8.4,6.5c0,9.9,21.9,8.3,21.9,22.3
		c0,8.4-7.1,12.4-15.6,12.4C278.3,70,274,68.5,271.5,66.9z"/>
</g>
<g>
	<path fill="#929497" d="M182.6,84.4h1.1l2.1,5.8h-0.9l-0.7-2H182l-0.8,2h-0.9L182.6,84.4z M184,87.5l-0.8-2.5l-0.9,2.5H184z"/>
	<path fill="#929497" d="M186.4,87.4c0-1.8,1.1-3,3.1-3c0.9,0,1.4,0.2,1.7,0.3l-0.3,0.7c-0.5-0.1-0.8-0.3-1.5-0.3
		c-1.2,0-2.2,0.6-2.2,2.2c0,1.6,1,2.3,2.3,2.3c0.6,0,1-0.1,1.4-0.2l0.2,0.7c-0.4,0.2-0.9,0.3-1.7,0.3
		C187.5,90.4,186.4,89.2,186.4,87.4z"/>
	<path fill="#929497" d="M191.9,87.4c0-1.8,1.1-3,3.1-3c0.9,0,1.4,0.2,1.7,0.3l-0.3,0.7c-0.5-0.1-0.8-0.3-1.5-0.3
		c-1.2,0-2.2,0.6-2.2,2.2c0,1.6,1,2.3,2.3,2.3c0.6,0,1-0.1,1.4-0.2l0.2,0.7c-0.4,0.2-0.9,0.3-1.7,0.3
		C193,90.4,191.9,89.2,191.9,87.4z"/>
	<path fill="#929497" d="M197.4,87.3c0-1.8,1.2-3,3-3c1.9,0,2.9,1.3,2.9,3c0,1.8-1.1,3-3.1,3C198.4,90.4,197.4,89.1,197.4,87.3z
		 M202.5,87.3c0-1.3-0.7-2.3-2.1-2.3c-1.4,0-2.1,1-2.1,2.3c0,1.2,0.7,2.3,2,2.3C201.8,89.6,202.5,88.6,202.5,87.3z"/>
	<path fill="#929497" d="M204.5,88.1v-3.7h0.9v3.6c0,1.2,0.7,1.5,1.5,1.5c0.9,0,1.6-0.4,1.6-1.7v-3.5h0.9v3.5c0,1.9-1.3,2.4-2.4,2.4
		C205.8,90.4,204.5,89.9,204.5,88.1z"/>
	<path fill="#929497" d="M211,84.4h1.1l2.8,4.8h0l0-0.7v-4h0.9v5.8h-1.1l-2.8-4.7h0l0,0.7v4H211V84.4z"/>
	<path fill="#929497" d="M218.6,85.2h-1.9v-0.7h4.8v0.7h-1.9v5.1h-0.9V85.2z"/>
	<path fill="#929497" d="M223.4,84.4h1.1l2.1,5.8h-0.9l-0.7-2h-2.2l-0.8,2h-0.9L223.4,84.4z M224.8,87.5L224,85l-0.9,2.5H224.8z"/>
	<path fill="#929497" d="M227.6,84.4h1.1l2.8,4.8h0l0-0.7v-4h0.9v5.8h-1.1l-2.8-4.7h0l0,0.7v4h-0.9V84.4z"/>
	<path fill="#929497" d="M233.6,87.4c0-1.8,1.1-3,3.1-3c0.9,0,1.4,0.2,1.7,0.3l-0.3,0.7c-0.5-0.1-0.8-0.3-1.5-0.3
		c-1.2,0-2.2,0.6-2.2,2.2c0,1.6,1,2.3,2.3,2.3c0.6,0,1-0.1,1.4-0.2l0.2,0.7c-0.4,0.2-0.9,0.3-1.7,0.3
		C234.7,90.4,233.6,89.2,233.6,87.4z"/>
	<path fill="#929497" d="M240.9,88.2l-2-3.7h1l1.4,3l1.5-3h1l-2.1,3.7v2.1h-0.9V88.2z"/>
	<path fill="#929497" d="M185.6,96h-1.9v-0.7h4.8V96h-1.9v5.1h-0.9V96z"/>
	<path fill="#929497" d="M190.5,95.3h1.1l2.1,5.8h-0.9l-0.7-2h-2.2l-0.8,2h-0.9L190.5,95.3z M191.9,98.4l-0.8-2.5l-0.9,2.5H191.9z"
		/>
	<path fill="#929497" d="M195.9,98l-1.7-2.8h1l1.2,2.1l1.3-2.1h1l-1.8,2.8l1.9,3.1h-1l-1.4-2.4l-1.5,2.4h-1L195.9,98z"/>
	<path fill="#929497" d="M201.9,95.3h2c1.2,0,2,0.7,2,1.9c0,1.1-0.8,2-2.4,2h-0.4v-0.7h0.4c0.9,0,1.5-0.4,1.5-1.2
		c0-0.8-0.4-1.2-1.3-1.2h-0.9v5.1h-0.9V95.3z"/>
	<path fill="#929497" d="M207,95.3h0.9v5.1h2.5v0.7H207V95.3z"/>
	<path fill="#929497" d="M213,95.3h1.1l2.1,5.8h-0.9l-0.7-2h-2.2l-0.8,2h-0.9L213,95.3z M214.3,98.4l-0.8-2.5l-0.9,2.5H214.3z"/>
	<path fill="#929497" d="M217.1,95.3h1.1l2.8,4.8h0l0-0.7v-4h0.9v5.8h-1.1l-2.8-4.7h0l0,0.7v4h-0.9V95.3z"/>
	<path fill="#929497" d="M223.6,95.3h1.1l2.8,4.8h0l0-0.7v-4h0.9v5.8h-1.1l-2.8-4.7h0l0,0.7v4h-0.9V95.3z"/>
	<path fill="#929497" d="M230,95.3h0.9v5.8H230V95.3z"/>
	<path fill="#929497" d="M232.5,95.3h1.1l2.8,4.8h0l0-0.7v-4h0.9v5.8h-1.1l-2.8-4.7h0l0,0.7v4h-0.9V95.3z"/>
	<path fill="#929497" d="M238.6,98.2c0-1.9,1.1-3,3.1-3c0.9,0,1.3,0.1,1.7,0.3l-0.2,0.7c-0.4-0.1-0.8-0.3-1.5-0.3
		c-1.2,0-2.2,0.6-2.2,2.2c0,1.6,1,2.3,2.3,2.3c0.3,0,0.6,0,0.8-0.1v-2.1h0.9v2.7c-0.5,0.2-1.1,0.3-1.8,0.3
		C239.7,101.2,238.6,100.1,238.6,98.2z"/>
	<path fill="#929497" d="M161.3,106.1h1.7c1.3,0,2,0.6,2,1.5c0,0.6-0.3,1-0.8,1.2v0c0.5,0.1,1.2,0.6,1.2,1.4c0,1-0.6,1.7-2.1,1.7h-2
		V106.1z M163,108.6c0.7,0,1-0.3,1-0.9c0-0.7-0.4-0.9-1.3-0.9h-0.6v1.8H163z M163.1,111.2c0.8,0,1.4-0.2,1.4-1c0-0.7-0.5-1-1.5-1
		h-0.8v1.9H163.1z"/>
	<path fill="#929497" d="M166.5,109.8v-3.7h0.9v3.6c0,1.2,0.7,1.5,1.5,1.5c0.9,0,1.6-0.4,1.6-1.7v-3.5h0.9v3.5
		c0,1.9-1.3,2.4-2.4,2.4C167.8,112,166.5,111.5,166.5,109.8z"/>
	<path fill="#929497" d="M172.5,111.6l0.3-0.7c0.5,0.2,0.9,0.4,1.5,0.4c0.7,0,1.3-0.3,1.3-0.9c0-1.3-2.8-0.9-2.8-2.9
		c0-1,0.9-1.5,1.8-1.5c0.7,0,1.2,0.1,1.5,0.4l-0.3,0.7c-0.4-0.2-0.8-0.3-1.3-0.3c-0.6,0-1,0.3-1,0.8c0,1.2,2.9,1,2.9,2.8
		c0,1.2-1,1.7-2.2,1.7C173.4,112,172.8,111.8,172.5,111.6z"/>
	<path fill="#929497" d="M177.5,106.1h0.9v5.8h-0.9V106.1z"/>
	<path fill="#929497" d="M180,106.1h1.1l2.8,4.8h0l0-0.7v-4h0.9v5.8h-1.1l-2.8-4.7h0l0,0.7v4H180V106.1z"/>
	<path fill="#929497" d="M186.5,106.1h3.4v0.7h-2.5v1.8h2.4v0.7h-2.4v1.9h2.7v0.7h-3.6V106.1z"/>
	<path fill="#929497" d="M190.9,111.6l0.3-0.7c0.5,0.2,0.9,0.4,1.5,0.4c0.7,0,1.3-0.3,1.3-0.9c0-1.3-2.8-0.9-2.8-2.9
		c0-1,0.9-1.5,1.8-1.5c0.7,0,1.2,0.1,1.5,0.4l-0.3,0.7c-0.4-0.2-0.8-0.3-1.3-0.3c-0.6,0-1,0.3-1,0.8c0,1.2,2.9,1,2.9,2.8
		c0,1.2-1,1.7-2.2,1.7C191.8,112,191.2,111.8,190.9,111.6z"/>
	<path fill="#929497" d="M195.4,111.6l0.3-0.7c0.5,0.2,0.9,0.4,1.5,0.4c0.7,0,1.3-0.3,1.3-0.9c0-1.3-2.8-0.9-2.8-2.9
		c0-1,0.9-1.5,1.8-1.5c0.7,0,1.2,0.1,1.5,0.4l-0.3,0.7c-0.4-0.2-0.8-0.3-1.3-0.3c-0.6,0-1,0.3-1,0.8c0,1.2,2.9,1,2.9,2.8
		c0,1.2-1,1.7-2.2,1.7C196.4,112,195.8,111.8,195.4,111.6z"/>
	<path fill="#929497" d="M204,106.1h1.1l2.1,5.8h-0.9l-0.7-2h-2.2l-0.8,2h-0.9L204,106.1z M205.4,109.2l-0.8-2.5l-0.9,2.5H205.4z"/>
	<path fill="#929497" d="M208.1,106.1h1.7c1.9,0,3.3,0.9,3.3,2.9c0,2-1.3,2.9-3.3,2.9h-1.8V106.1z M210,111.2c1.5,0,2.3-0.7,2.3-2.1
		c0-1.5-0.9-2.3-2.4-2.3H209v4.4H210z"/>
	<path fill="#929497" d="M213.7,106.1h1l1.7,5.1l2-5.1h0.9l-2.3,5.8h-1.2L213.7,106.1z"/>
	<path fill="#929497" d="M220.1,106.1h0.9v5.8h-0.9V106.1z"/>
	<path fill="#929497" d="M222.1,111.6l0.3-0.7c0.5,0.2,0.9,0.4,1.5,0.4c0.7,0,1.3-0.3,1.3-0.9c0-1.3-2.8-0.9-2.8-2.9
		c0-1,0.9-1.5,1.8-1.5c0.7,0,1.2,0.1,1.5,0.4l-0.3,0.7c-0.4-0.2-0.8-0.3-1.3-0.3c-0.6,0-1,0.3-1,0.8c0,1.2,2.9,1,2.9,2.8
		c0,1.2-1,1.7-2.2,1.7C223,112,222.5,111.8,222.1,111.6z"/>
	<path fill="#929497" d="M226.8,109c0-1.8,1.2-3,3-3c1.9,0,2.9,1.3,2.9,3c0,1.8-1.1,3-3.1,3C227.8,112,226.8,110.8,226.8,109z
		 M231.8,109c0-1.3-0.7-2.3-2.1-2.3c-1.4,0-2.1,1-2.1,2.3c0,1.2,0.7,2.3,2,2.3C231.2,111.3,231.8,110.3,231.8,109z"/>
	<path fill="#929497" d="M236.9,110.7l-0.8-1.1c-0.1,0-0.3,0-0.5,0h-0.7v2.2H234v-5.8h2c1.2,0,2,0.6,2,1.8c0,0.7-0.3,1.3-1.1,1.6
		l0.7,0.9c0.4,0.5,0.7,0.8,1.3,0.9l-0.2,0.7C237.9,111.9,237.4,111.4,236.9,110.7z M235.6,109c0.9,0,1.4-0.3,1.4-1.1
		c0-0.8-0.4-1.1-1.2-1.1h-0.9v2.2H235.6z"/>
	<path fill="#929497" d="M240.9,109.8l-2-3.7h1l1.4,3l1.5-3h1l-2.1,3.7v2.1h-0.9V109.8z"/>
	<path fill="#929497" d="M155.1,119.8c0-1.8,1.1-3,3.1-3c0.9,0,1.4,0.2,1.7,0.3l-0.3,0.7c-0.5-0.1-0.8-0.3-1.5-0.3
		c-1.2,0-2.2,0.6-2.2,2.2c0,1.6,1,2.3,2.3,2.3c0.6,0,1-0.1,1.4-0.2l0.2,0.7c-0.4,0.2-0.9,0.3-1.7,0.3
		C156.2,122.8,155.1,121.6,155.1,119.8z"/>
	<path fill="#929497" d="M160.6,119.8c0-1.8,1.2-3,3-3c1.9,0,2.9,1.3,2.9,3c0,1.8-1.1,3-3.1,3C161.6,122.8,160.6,121.6,160.6,119.8z
		 M165.7,119.8c0-1.3-0.7-2.3-2.1-2.3c-1.4,0-2.1,1-2.1,2.3c0,1.2,0.7,2.3,2,2.3C165,122.1,165.7,121.1,165.7,119.8z"/>
	<path fill="#929497" d="M170.7,121.5l-0.8-1.1c-0.1,0-0.3,0-0.5,0h-0.7v2.2h-0.9v-5.8h2c1.2,0,2,0.6,2,1.8c0,0.7-0.3,1.3-1.1,1.6
		l0.7,0.9c0.4,0.5,0.7,0.8,1.3,0.9l-0.2,0.7C171.8,122.7,171.2,122.2,170.7,121.5z M169.5,119.8c0.9,0,1.4-0.3,1.4-1.1
		c0-0.8-0.4-1.1-1.2-1.1h-0.9v2.2H169.5z"/>
	<path fill="#929497" d="M173.7,116.9h2c1.2,0,2,0.7,2,1.9c0,1.1-0.8,2-2.4,2h-0.4V120h0.4c0.9,0,1.5-0.4,1.5-1.2
		c0-0.8-0.4-1.2-1.3-1.2h-0.9v5.1h-0.9V116.9z"/>
	<path fill="#929497" d="M178.4,119.8c0-1.8,1.2-3,3-3c1.9,0,2.9,1.3,2.9,3c0,1.8-1.1,3-3.1,3C179.4,122.8,178.4,121.6,178.4,119.8z
		 M183.4,119.8c0-1.3-0.7-2.3-2.1-2.3c-1.4,0-2.1,1-2.1,2.3c0,1.2,0.7,2.3,2,2.3C182.8,122.1,183.4,121.1,183.4,119.8z"/>
	<path fill="#929497" d="M188.4,121.5l-0.8-1.1c-0.1,0-0.3,0-0.5,0h-0.7v2.2h-0.9v-5.8h2c1.2,0,2,0.6,2,1.8c0,0.7-0.3,1.3-1.1,1.6
		l0.7,0.9c0.4,0.5,0.7,0.8,1.3,0.9l-0.2,0.7C189.5,122.7,189,122.2,188.4,121.5z M187.2,119.8c0.9,0,1.4-0.3,1.4-1.1
		c0-0.8-0.4-1.1-1.2-1.1h-0.9v2.2H187.2z"/>
	<path fill="#929497" d="M192.9,116.9h1.1l2.1,5.8h-0.9l-0.7-2h-2.2l-0.8,2h-0.9L192.9,116.9z M194.3,120l-0.8-2.5l-0.9,2.5H194.3z"
		/>
	<path fill="#929497" d="M197.9,117.6h-1.9v-0.7h4.8v0.7h-1.9v5.1h-0.9V117.6z"/>
	<path fill="#929497" d="M201.6,116.9h3.4v0.7h-2.5v1.8h2.4v0.7h-2.4v1.9h2.7v0.7h-3.6V116.9z"/>
	<path fill="#929497" d="M208.5,116.9h3.6v0.7h-2.7v2h2.5v0.7h-2.5v2.4h-0.9V116.9z"/>
	<path fill="#929497" d="M213.3,116.9h0.9v5.8h-0.9V116.9z"/>
	<path fill="#929497" d="M215.8,116.9h1.1l2.8,4.8h0l0-0.7v-4h0.9v5.8h-1.1l-2.8-4.7h0l0,0.7v4h-0.9V116.9z"/>
	<path fill="#929497" d="M223.8,116.9h1.1l2.1,5.8h-0.9l-0.7-2h-2.2l-0.8,2h-0.9L223.8,116.9z M225.1,120l-0.8-2.5l-0.9,2.5H225.1z"
		/>
	<path fill="#929497" d="M227.9,116.9h1.1l2.8,4.8h0l0-0.7v-4h0.9v5.8h-1.1l-2.8-4.7h0l0,0.7v4h-0.9V116.9z"/>
	<path fill="#929497" d="M234,119.8c0-1.8,1.1-3,3.1-3c0.9,0,1.4,0.2,1.7,0.3l-0.3,0.7c-0.5-0.1-0.8-0.3-1.5-0.3
		c-1.2,0-2.2,0.6-2.2,2.2c0,1.6,1,2.3,2.3,2.3c0.6,0,1-0.1,1.4-0.2l0.2,0.7c-0.4,0.2-0.9,0.3-1.7,0.3
		C235.1,122.8,234,121.6,234,119.8z"/>
	<path fill="#929497" d="M239.9,116.9h3.4v0.7h-2.5v1.8h2.4v0.7h-2.4v1.9h2.7v0.7h-3.6V116.9z"/>
</g>
<linearGradient id="SVGID_1_" gradientUnits="userSpaceOnUse" x1="-565.6328" y1="-161.8984" x2="-579.604" y2="-198.0592" gradientTransform="matrix(-1 -4.000000e-04 4.000000e-04 -1 -246.7465 -124.7275)">
	<stop  offset="0" style="stop-color:#695DA9"/>
	<stop  offset="1" style="stop-color:#482E87"/>
</linearGradient>
<path fill="url(#SVGID_1_)" d="M340.5,73.1L340.5,73.1c9.9-8.1,16.1-20.5,16.1-34.2l0-14.9l-44.3,0l0,59.2c0,9.9-3.2,19-8.7,26.4
	L340.5,73.1z"/>
<linearGradient id="SVGID_2_" gradientUnits="userSpaceOnUse" x1="696.6377" y1="-519.1113" x2="667.8015" y2="-563.8059" gradientTransform="matrix(0.9699 -0.2436 0.2436 0.9699 -243.0742 780.5756)">
	<stop  offset="0" style="stop-color:#002A41"/>
	<stop  offset="0.1008" style="stop-color:#1B4358"/>
	<stop  offset="0.2256" style="stop-color:#365A6E"/>
	<stop  offset="0.3628" style="stop-color:#4A6D7F"/>
	<stop  offset="0.517" style="stop-color:#597A8B"/>
	<stop  offset="0.7021" style="stop-color:#618292"/>
	<stop  offset="1" style="stop-color:#648494"/>
</linearGradient>
<path fill="url(#SVGID_2_)" d="M304,109.9L304,109.9c-8.1,9.9-20.5,16.1-34.2,16.1l-14.9,0l0-44.3l59.2,0c9.9,0,19-3.2,26.4-8.7
	L304,109.9z"/>
</svg>
