<?xml version="1.0" encoding="utf-8"?>
<!-- Generator: Adobe Illustrator 13.0.0, SVG Export Plug-In . SVG Version: 6.00 Build 14948)  -->
<!DOCTYPE svg PUBLIC "-//W3C//DTD SVG 1.1//EN" "http://www.w3.org/Graphics/SVG/1.1/DTD/svg11.dtd">
<svg version="1.1" id="Hollywood_Monster" xmlns="http://www.w3.org/2000/svg" xmlns:xlink="http://www.w3.org/1999/xlink" x="0px"
	 y="0px" width="390px" height="150px" viewBox="0 0 390 150" enable-background="new 0 0 390 150" xml:space="preserve">
<polygon fill="#532C7F" points="56.5,103.3 58.6,103.3 58.6,110.2 68.1,110.2 68.1,103.3 70.2,103.3 70.2,121.1 68.1,121.1 
	68.1,112.2 58.6,112.2 58.6,121.1 56.5,121.1 "/>
<g>
	<path fill="#532C7F" d="M89.9,118.8c-1.8,1.8-4.2,2.7-6.7,2.7c-2.5,0-4.9-1-6.7-2.7c-1.8-1.8-2.8-4.1-2.8-6.6s1-4.8,2.8-6.6
		c1.8-1.7,4.2-2.7,6.7-2.7c2.5,0,5,1,6.7,2.7c1.8,1.8,2.8,4.1,2.8,6.6S91.7,117.1,89.9,118.8 M88.3,117.4c1.4-1.4,2.1-3.2,2.1-5.2
		c0-2-0.7-3.8-2.1-5.2c-1.4-1.4-3.2-2.1-5.2-2.1c-2,0-3.8,0.7-5.1,2.1c-1.4,1.4-2.1,3.2-2.1,5.2c0,2,0.7,3.8,2.1,5.2
		c1.4,1.4,3.2,2.2,5.1,2.2C85.1,119.6,86.9,118.8,88.3,117.4"/>
	<polygon fill="#532C7F" points="96.1,103.3 98.2,103.3 98.2,119.1 104.9,119.1 104.9,121.1 96.1,121.1 	"/>
	<polygon fill="#532C7F" points="107.4,103.3 109.5,103.3 109.5,119.1 116.3,119.1 116.3,121.1 107.4,121.1 	"/>
	<polygon fill="#532C7F" points="120.8,113 114.8,103.3 117.2,103.3 121.9,111 126.5,103.3 129,103.3 122.9,113 122.9,121.1 
		120.8,121.1 	"/>
	<polygon fill="#532C7F" points="131.1,103.3 135.6,116.4 140.3,102.6 145.1,116.4 149.6,103.3 151.9,103.3 145,121.8 140.3,108 
		135.7,121.8 128.8,103.3 	"/>
	<path fill="#532C7F" d="M169.3,118.8c-1.8,1.8-4.2,2.7-6.7,2.7c-2.5,0-4.9-1-6.7-2.7c-1.8-1.8-2.8-4.1-2.8-6.6s1-4.8,2.8-6.6
		c1.8-1.7,4.2-2.7,6.7-2.7c2.5,0,5,1,6.7,2.7c1.8,1.8,2.8,4.1,2.8,6.6S171.1,117.1,169.3,118.8 M167.7,117.4
		c1.4-1.4,2.1-3.2,2.1-5.2c0-2-0.7-3.8-2.1-5.2c-1.4-1.4-3.2-2.1-5.2-2.1c-2,0-3.8,0.7-5.1,2.1c-1.4,1.4-2.1,3.2-2.1,5.2
		c0,2,0.7,3.8,2.1,5.2c1.4,1.4,3.2,2.2,5.1,2.2C164.5,119.6,166.3,118.8,167.7,117.4"/>
	<path fill="#532C7F" d="M190.9,118.8c-1.8,1.8-4.3,2.7-6.7,2.7c-2.5,0-4.9-1-6.7-2.7c-1.8-1.8-2.8-4.1-2.8-6.6s1-4.8,2.8-6.6
		c1.8-1.7,4.2-2.7,6.7-2.7c2.5,0,5,1,6.7,2.7c1.8,1.8,2.8,4.1,2.8,6.6S192.7,117.1,190.9,118.8 M189.3,117.4
		c1.4-1.4,2.1-3.2,2.1-5.2c0-2-0.7-3.8-2.1-5.2c-1.4-1.4-3.2-2.1-5.1-2.1c-2,0-3.8,0.7-5.1,2.1c-1.4,1.4-2.1,3.2-2.1,5.2
		c0,2,0.7,3.8,2.1,5.2c1.4,1.4,3.2,2.2,5.1,2.2C186.1,119.6,187.9,118.8,189.3,117.4"/>
	<path fill="#532C7F" d="M197.1,103.3h3.4c3.3,0,5.9,0,8.1,1.7c2,1.6,3.1,4.1,3.1,7.2c0,3.2-1.1,5.6-3.1,7.2
		c-2.1,1.6-4.4,1.7-7.3,1.7h-0.8h-3.4V103.3z M200.6,119.1c3,0,5.1,0,6.6-1.3c1.4-1.2,2.2-3.1,2.2-5.6c0-2.5-0.8-4.4-2.2-5.6
		c-1.5-1.2-3.6-1.3-6.6-1.3h-1.3v13.8H200.6z"/>
	<polygon fill="#532C7F" points="225.2,109 223,121.1 220.9,121.1 224.6,102.6 230.8,117.3 237,102.6 240.6,121.1 238.5,121.1 
		236.3,109 230.8,121.8 	"/>
	<path fill="#532C7F" d="M258.7,118.8c-1.8,1.8-4.3,2.7-6.7,2.7c-2.5,0-4.9-1-6.7-2.7c-1.8-1.8-2.8-4.1-2.8-6.6s1-4.8,2.8-6.6
		c1.8-1.7,4.2-2.7,6.7-2.7c2.5,0,5,1,6.7,2.7c1.8,1.8,2.8,4.1,2.8,6.6S260.5,117.1,258.7,118.8 M257.2,117.4
		c1.4-1.4,2.1-3.2,2.1-5.2c0-2-0.7-3.8-2.1-5.2c-1.4-1.4-3.2-2.1-5.2-2.1c-2,0-3.8,0.7-5.1,2.1c-1.4,1.4-2.1,3.2-2.1,5.2
		c0,2,0.8,3.8,2.1,5.2c1.4,1.4,3.2,2.2,5.1,2.2C253.9,119.6,255.7,118.8,257.2,117.4"/>
	<polygon fill="#532C7F" points="265,102.6 278,116.8 278,103.3 280,103.3 280,121.8 267,107.7 267,121.1 265,121.1 	"/>
	<path fill="#532C7F" d="M294.2,116.1c0,3.3-2.3,5.4-5.7,5.4c-2.8,0-4.8-1.5-5.5-4.1l1.9-0.9c0.5,2.2,1.7,3.3,3.5,3.3
		c2.1,0,3.6-1.4,3.6-3.3c0-1.6-0.9-2.8-2.8-3.6l-2.2-0.9c-2.4-1-3.5-2.5-3.5-4.7c0-2.5,2-4.4,5-4.4c2.1,0,3.7,0.9,4.6,2.7l-1.7,1.1
		c-0.8-1.3-1.7-2-3-2c-1.6,0-2.7,1.1-2.7,2.6c0,1.3,0.8,2.2,2.4,2.9l2.5,1.1C293,112.2,294.2,113.9,294.2,116.1"/>
	<polygon fill="#532C7F" points="300.1,105.3 295.1,105.3 295.1,103.3 307.2,103.3 307.2,105.3 302.3,105.3 302.3,121.1 
		300.1,121.1 	"/>
	<polygon fill="#532C7F" points="309.6,103.3 319,103.3 319,105.2 311.7,105.2 311.7,110.3 319,110.3 319,112.3 311.7,112.3 
		311.7,119.1 319,119.1 319,121.1 309.6,121.1 	"/>
	<path fill="#532C7F" d="M322.6,103.3h3.6h0.6c1.7,0,3,0,4.1,0.9c1,0.8,1.7,2.2,1.7,3.9c0,2.9-1.7,4.5-4.8,4.5h-0.4l6.8,8.5h-2.7
		l-6.5-8.5h-0.3v8.5h-2.1V103.3z M324.6,111h1.6c2.8,0,4.1-0.4,4.1-2.9c0-2.6-1.3-3.1-4.1-3.1h-1.6V111z"/>
	<polygon fill="#E22B85" points="115.2,128.4 119.4,128.4 119.4,129.2 115.9,129.2 115.9,131.8 119.4,131.8 119.4,132.6 
		115.9,132.6 115.9,136.2 119.4,136.2 119.4,136.9 115.2,136.9 	"/>
	<path fill="#E22B85" d="M121.3,128.4h1.3h0.4c0.8,0,1.4,0,2,0.4c0.5,0.4,0.8,1.1,0.8,1.9c0,1.7-1,2.3-2.8,2.3H122v3.8h-0.8V128.4z
		 M122.6,132.4c1.5,0,2.4-0.2,2.4-1.6c0-0.6-0.2-1.1-0.6-1.4c-0.4-0.3-1-0.3-1.8-0.3H122v3.3H122.6z"/>
	<rect x="127.2" y="128.4" fill="#E22B85" width="0.8" height="8.5"/>
	<path fill="#E22B85" d="M134.2,128.9c-2.2,0-3.7,1.6-3.7,3.8c0,2.3,1.6,3.8,3.6,3.8c1,0,1.9-0.3,2.7-1l0,0.9
		c-0.8,0.5-1.8,0.8-2.7,0.8c-2.6,0-4.5-1.8-4.5-4.5c0-2.6,2-4.5,4.5-4.5c1.1,0,2,0.3,2.8,0.9l0,0.9
		C136.1,129.3,135.2,128.9,134.2,128.9"/>
	<path fill="#E22B85" d="M142.1,135.2c0.2,0.8,0.9,1.3,1.7,1.3c1.1,0,1.7-0.7,1.7-1.8c0-1-0.6-1.4-1.6-2c-1.3-0.7-2.1-1.3-2.1-2.4
		c0-1.2,0.9-2,2.2-2c0.9,0,1.5,0.4,1.9,1.1l-0.6,0.4c-0.2-0.5-0.7-0.7-1.3-0.7c-0.8,0-1.4,0.5-1.4,1.4c0,1,0.8,1.3,1.9,1.9
		c1.2,0.7,1.8,1.2,1.8,2.5c0,1.5-1,2.5-2.5,2.5c-1.1,0-1.9-0.6-2.4-1.7L142.1,135.2z"/>
	<rect x="148" y="128.4" fill="#E22B85" width="0.8" height="8.5"/>
	<path fill="#E22B85" d="M154.9,129c-2.1,0-3.6,1.6-3.6,3.8c0,2.1,1.5,3.7,3.6,3.7c1.9,0,3.2-1.2,3.2-3.1h-2.9v-0.7h3.8v0.1
		c0,2.7-1.6,4.3-4.2,4.3c-2.6,0-4.3-1.8-4.3-4.5c0-2.6,1.8-4.5,4.3-4.5c1.7,0,3,0.6,3.6,1.8l-0.6,0.5
		C157.1,129.5,156.1,129,154.9,129"/>
	<polygon fill="#E22B85" points="160.6,128.1 166.6,135.2 166.6,128.4 167.3,128.4 167.3,137.2 161.3,130.1 161.3,136.9 
		160.6,136.9 	"/>
	<path fill="#E22B85" d="M172,128.1l3.6,8.8h-0.8l-1.1-2.9h-3.5l-1.1,2.9h-0.8L172,128.1z M173.4,133.4l-1.4-3.7l-1.5,3.7H173.4z"/>
	<path fill="#E22B85" d="M180.3,129c-2.1,0-3.6,1.6-3.6,3.8c0,2.1,1.5,3.7,3.6,3.7c1.9,0,3.2-1.2,3.3-3.1h-2.9v-0.7h3.8v0.1
		c0,2.7-1.6,4.3-4.2,4.3c-2.6,0-4.3-1.8-4.3-4.5c0-2.6,1.8-4.5,4.3-4.5c1.7,0,3,0.6,3.6,1.8l-0.6,0.5
		C182.6,129.5,181.6,129,180.3,129"/>
	<polygon fill="#E22B85" points="186.1,128.4 190.3,128.4 190.3,129.2 186.8,129.2 186.8,131.8 190.3,131.8 190.3,132.6 
		186.8,132.6 186.8,136.2 190.3,136.2 190.3,136.9 186.1,136.9 	"/>
	<path fill="#E22B85" d="M198.2,128.1l3.6,8.8h-0.8l-1.1-2.9h-3.5l-1.1,2.9h-0.8L198.2,128.1z M199.6,133.4l-1.4-3.7l-1.5,3.7H199.6
		z"/>
	<polygon fill="#E22B85" points="202.7,128.1 208.7,135.2 208.7,128.4 209.4,128.4 209.4,137.2 203.4,130.1 203.4,136.9 
		202.7,136.9 	"/>
	<path fill="#E22B85" d="M211.6,128.4h1.3c1.5,0,2.6,0,3.5,0.6c1.1,0.7,1.7,2,1.7,3.7c0,1.5-0.5,2.8-1.4,3.5c-1,0.8-2.1,0.8-3.5,0.8
		h-0.3h-1.3V128.4z M213,136.3h0.4c1.1,0,1.9,0,2.6-0.5c0.8-0.6,1.3-1.7,1.3-3.1c0-1.2-0.3-2.1-0.9-2.7c-0.8-0.9-1.8-0.9-3.2-0.9
		H213h-0.7v7.2H213z"/>
	<path fill="#E22B85" d="M227.3,129c-2.1,0-3.6,1.6-3.6,3.8c0,2.1,1.5,3.7,3.6,3.7c1.9,0,3.2-1.2,3.2-3.1h-2.9v-0.7h3.8v0.1
		c0,2.7-1.6,4.3-4.2,4.3c-2.6,0-4.3-1.8-4.3-4.5c0-2.6,1.8-4.5,4.3-4.5c1.7,0,3,0.6,3.6,1.8l-0.6,0.5
		C229.6,129.5,228.5,129,227.3,129"/>
	<path fill="#E22B85" d="M237.2,136.9l-3-4.1h-0.5v4.1H233v-8.5h1.6c1.8,0,2.8,0.8,2.8,2.3c0,1.3-0.8,2.1-2.2,2.1l3.1,4.1H237.2z
		 M233.8,132.3h0.8c1.3,0,1.9-0.3,1.9-1.5c0-1.2-0.6-1.6-1.9-1.6h-0.8V132.3z"/>
	<path fill="#E22B85" d="M241.9,128.1l3.6,8.8h-0.8l-1.1-2.9H240l-1.1,2.9h-0.8L241.9,128.1z M243.3,133.4l-1.4-3.7l-1.5,3.7H243.3z
		"/>
	<path fill="#E22B85" d="M246.4,128.4h1.3h0.4c0.8,0,1.4,0,2,0.4c0.5,0.4,0.8,1.1,0.8,1.9c0,1.7-0.9,2.3-2.8,2.3h-0.9v3.8h-0.8
		V128.4z M247.7,132.4c1.5,0,2.4-0.2,2.4-1.6c0-0.6-0.2-1.1-0.6-1.4c-0.4-0.3-1-0.3-1.8-0.3h-0.5v3.3H247.7z"/>
	<polygon fill="#E22B85" points="252.3,128.4 253.1,128.4 253.1,131.9 257.7,131.9 257.7,128.4 258.5,128.4 258.5,136.9 
		257.7,136.9 257.7,132.6 253.1,132.6 253.1,136.9 252.3,136.9 	"/>
	<rect x="260.6" y="128.4" fill="#E22B85" width="0.8" height="8.5"/>
	<path fill="#E22B85" d="M267.7,128.9c-2.2,0-3.7,1.6-3.7,3.8c0,2.3,1.6,3.8,3.6,3.8c1,0,1.9-0.3,2.7-1l0,0.9
		c-0.8,0.5-1.8,0.8-2.7,0.8c-2.6,0-4.5-1.8-4.5-4.5c0-2.6,1.9-4.5,4.5-4.5c1.1,0,2,0.3,2.8,0.9l0,0.9
		C269.5,129.3,268.7,128.9,267.7,128.9"/>
	<path fill="#E22B85" d="M272,135.2c0.2,0.8,0.9,1.3,1.7,1.3c1.1,0,1.7-0.7,1.7-1.8c0-1-0.6-1.4-1.6-2c-1.4-0.7-2.1-1.3-2.1-2.4
		c0-1.2,0.9-2,2.2-2c0.9,0,1.5,0.4,1.9,1.1l-0.6,0.4c-0.2-0.5-0.7-0.7-1.3-0.7c-0.8,0-1.4,0.5-1.4,1.4c0,1,0.8,1.3,1.9,1.9
		c1.2,0.7,1.8,1.2,1.8,2.5c0,1.5-0.9,2.5-2.5,2.5c-1.1,0-1.9-0.6-2.4-1.7L272,135.2z"/>
	<path fill="none" stroke="#E76099" stroke-width="2.202" stroke-linecap="round" stroke-linejoin="round" d="M263,96.8
		c-2.7,0-5.4-0.8-7.6-2.4c0,0-0.1,0-0.1-0.1c-0.2-0.1-0.4-0.3-0.6-0.4c-1.8-1.3-3.1-3-3.9-5.1h0c-0.1-0.2-0.1-0.3-0.2-0.4h0
		c-0.1-0.2-0.1-0.3-0.1-0.4c-0.3-0.8-0.5-1.6-0.6-2.5c0-0.2-0.1-0.4-0.1-0.6c-0.1-0.7-0.1-1.4-0.1-2.2V65c0-2.5-0.4-4.2-0.9-5
		c-0.3-0.3-0.5-0.5-1-0.7c-0.4-0.1-1.2-0.2-1.3-0.2c-0.2,0-0.3,0-0.6,0c-1.9,0-2.4,0.6-2.8,1.1c0,0,0,0,0,0l0,0.1
		c-0.6,0.9-1,2.6-1,4.9v17.7c0,0.1,0,0.2,0,0.4c0,1.3-0.2,2.4-0.4,3.4c-0.7,2.8-2.3,5.3-4.6,7.1c-0.7,0.6-1.6,1.1-2.5,1.6
		c-1.8,0.9-3.8,1.3-5.8,1.3c-2.2,0-4.4-0.6-6.4-1.6c-2.6-1.5-4.7-3.8-5.8-6.5c-0.1-0.1-0.1-0.3-0.2-0.4c-0.1-0.2-0.1-0.3-0.1-0.5
		l-0.1-0.2c0-0.1-0.1-0.2-0.1-0.3c0-0.1-0.1-0.2-0.1-0.3c0,0,0-0.1,0-0.1v0l0-0.1l0-0.1c-0.1-0.4-0.1-0.7-0.2-1l0-0.3l0-0.3
		c0,0,0,0,0-0.1v0l0-0.1l0-0.1c-0.1-0.8-0.1-1.5-0.1-2.1v-17c0-0.1,0-0.3,0-0.5l0-0.3c0-2-0.3-3.5-0.8-4.4c-0.1-0.3-0.3-0.5-0.4-0.7
		c-0.3-0.3-0.7-0.7-2.7-0.8c-0.3,0-0.6,0-0.9,0.1c0,0-0.1,0-0.1,0c-0.1,0-0.1,0-0.1,0c-0.9,0.2-1.3,0.6-1.8,1.5
		c-0.1,0.2-0.2,0.3-0.3,0.5c0,0.9-0.2,1.7-0.5,2.4c0,0.1,0,0.1,0,0.2c0,0.1,0,0.2,0,0.2c0,0.3,0,0.6,0,0.9v15.4c0,0.4-0.1,0.7-0.2,1
		c0.1,0.6,0.1,1.2,0.2,1.9c0,0,0,0.1,0,0.2c0,1.2-0.2,2.4-0.5,3.6c0,0.1,0,0,0,0.1c0,0,0,0.1,0,0.1c0,0,0,0,0,0.1l-0.1,0.2
		c-1.2,3.5-3.7,6.4-6.9,7.9c-1.8,0.9-3.7,1.3-5.7,1.3c-1.4,0-2.8-0.2-4.2-0.7c-2.9-1-5.5-3-7.1-5.6c-0.5-0.8-1-1.7-1.3-2.7l0,0l0,0
		c0,0,0,0,0,0c-0.5-1.4-0.7-2.8-0.7-4.2c0,0,0-0.1,0-0.2c0-0.2,0-0.3,0-0.5V72l0-5c0-0.1,0-0.1,0-0.2v-7l0-9.6
		c0-0.5,0.1-0.9,0.3-1.3c0-0.4-0.1-0.8-0.1-1.1c0-0.2,0-0.4,0-0.6c0.2-4.2,3.1-8,7.2-9.3c1.1-0.3,2.2-0.5,3.2-0.5
		c0.7,0,1.5,0.1,2.2,0.2c0.1,0,0.1-0.1,0.2-0.1c0.9-0.4,1.9-0.6,2.9-0.6c3.4,0,6.4,2.4,7,5.8c0,0.1,0,0.2,0,0.2
		c0.1,0.4,0.1,0.8,0.1,1.2c0,0.3,0,0.5,0,0.8c0.1,0,0.1,0,0.2,0.1c0.4,0.1,0.9,0.3,1.3,0.5c0.1-0.2,0.2-0.3,0.3-0.5
		c-0.1-0.3-0.1-0.6-0.1-0.9c0-1.7,0.8-3.3,2.2-4.3c0.1-0.1,0.2-0.1,0.3-0.2c0.2-0.1,0.4-0.2,0.6-0.3c0.7-0.3,1.4-0.4,2.1-0.4
		c0.2,0,0.4,0,0.6,0c0.9-0.9,2.1-1.5,3.5-1.5c0.4,0,0.8,0.1,1.2,0.2c0.1-0.1,0.3-0.2,0.4-0.3c0.7-0.4,1.5-0.6,2.3-0.6
		c0.7,0,1.3,0.1,2,0.4c0.6,0.3,1.1,0.7,1.5,1.2c0.3-0.1,0.6-0.1,0.9-0.1c1,0,1.9,0.3,2.7,0.9c0.6-0.2,1.3-0.3,2-0.3
		c0.5,0,0.9,0.1,1.4,0.2c1.2,0.3,2.3,1,3.2,1.9c0.7,0.8,1.2,1.7,1.4,2.8c0.6,0.2,1.1,0.4,1.7,0.7c0.7-1.5,2.2-2.6,3.9-2.6
		c0.5-1,1.2-1.8,2.2-2.3c0.1,0,0.2-0.1,0.3-0.1l0.3-0.1l0.1-0.1c0.1-0.1,0.2-0.1,0.4-0.1c0.6-0.2,1.2-0.3,1.8-0.3
		c1.1,0,2.2,0.3,3.1,0.9c0.9-0.4,1.8-0.6,2.9-0.6c0.1,0,0.2,0,0.3,0c1-1.3,2.5-2.1,4.3-2.1c2.2,0,4,1.3,4.9,3.1
		c0.9,0.1,1.7,0.4,2.5,0.7c0.8-0.4,1.6-0.7,2.6-0.7c0.7,0,1.4,0.1,2.1,0.4c0.7,0.3,1.4,0.8,1.9,1.4c0.4,0.5,0.8,1.1,1,1.7
		c2,0.9,3.3,2.9,3.3,5.2c0,0.3,0,0.5-0.1,0.8c1.4,2.3,2.2,4.8,2.4,7.5l0,0l0,0l0,0l0.1,0.1l0,0.2c0,0.2,0,0.4,0,0.6v25.5
		c0,0.1,0,0.3,0,0.4l0,0.4c0,0.3,0,0.7-0.1,1c0,0.2-0.1,0.5-0.1,0.7c0,0.2-0.1,0.4-0.1,0.6c0,0.1-0.1,0.3-0.1,0.4l0,0l0,0l0,0
		c0,0,0,0.1,0,0.1c-0.8,3.4-2.9,6.3-5.8,8.2C267.9,96.1,265.5,96.8,263,96.8L263,96.8z M129.2,96.8c-2.3,0-4.5-0.6-6.5-1.7
		c-3-1.6-5.2-4.3-6.2-7.6c-0.1-0.2-0.1-0.4-0.2-0.5c0-0.1,0-0.1-0.1-0.2c-0.2-0.8-0.4-1.7-0.4-2.7c0-0.3,0-0.6,0-0.8
		c0-1.9,0.4-3.7,1.1-5.3c-0.7-0.6-1.1-1.5-1.1-2.5V55.3c0-1,0.4-1.8,1.1-2.4c-0.7-1-1.1-2.2-1.1-3.5c0-1.2,0.3-2.3,0.9-3.2
		c-0.5-0.8-0.9-1.8-0.9-2.8h0c0,0,0,0,0-0.1c0-0.1,0-0.1,0-0.2c0-0.2,0-0.4,0-0.6c0.1-0.9,0.4-1.7,0.8-2.4c-0.5-1.1-0.8-2.3-0.8-3.6
		c0-2.5,1.1-4.7,2.8-6.2c-1.6-1.1-2.7-2.9-2.8-5c0,0,0-0.2,0-0.2c0-0.6,0.1-1.3,0.3-1.9c0.5-1.6,1.6-2.8,2.9-3.6
		c0.9-3.2,3.5-5.7,6.9-6.5v0c0,0,0,0,0.1,0c0,0,0.1,0,0.1,0c0.2,0,0.3-0.1,0.4-0.1l0.3,0c0,0,0.2,0,0.2,0c0.3,0,0.6,0,0.9,0
		c0.9,0,1.8,0.1,2.6,0.4c0.4-0.1,0.7-0.1,1.1-0.2c0.1,0,0.1,0,0.2,0c0.9,0,1.9,0.2,2.7,0.7c0.2,0.1,0.3,0.2,0.4,0.2
		c1.3,0.9,2.1,2.2,2.4,3.6c2.5,1,4.5,3.2,5.1,6c0.1,0.4,0.1,0.7,0.1,1c0,0.2,0,0.4,0,0.7c0,1.2-0.3,2.5-0.8,3.5
		c0.4,0.7,0.7,1.5,0.8,2.3c0,0.2,0.1,0.5,0.1,0.7c0,0.2,0,0.4,0,0.6c0,0.3-0.1,0.6-0.2,1c0.1,0.4,0.2,0.7,0.2,1.1
		c0,0.3,0.1,0.6,0.1,0.9c0,0.3,0,0.6-0.1,0.9c0,0.3-0.1,0.7-0.2,1c0.1,0.6,0.2,1.1,0.2,1.7c0,0.2,0,0.5,0,0.7
		c0.4-0.2,0.8-0.3,1.2-0.4c0.5-2.9,3-5.1,6.1-5.1c1.4,0,2.7,0.5,3.8,1.3c0.6-0.1,1.2-0.1,1.8-0.1c1.9,0,3.7,0.5,5.2,1.4
		c0.6,0.1,1.3,0.2,1.8,0.5c0,0,0.1,0,0.1,0c5.6,1.6,9.9,5.1,12.3,10c0.2,0.5,0.4,1,0.6,1.5c0.4,0.7,0.6,1.5,0.8,2.3
		c0.1,0.6,0.1,1,0.1,1.5c0,0.6-0.1,1.2-0.2,1.8c0.1,0.1,0.1,0.2,0.2,0.2c0.5,0.5,0.7,1.2,0.8,1.9c0.2,1.8,0.3,3.9,0.3,6.4
		c0,0.3,0,0.7,0,1V65v16.9c0,0.6,0,1.2-0.1,1.7c0,0.1,0,0.2,0,0.3c0,1.3-0.3,2.5-0.6,3.6c0,0.1-0.1,0.2-0.1,0.2
		c-1.3,3.7-4,6.6-7.6,8c-1.6,0.7-3.3,1-5.1,1c-2.2,0-4.4-0.5-6.3-1.6c-1.3-0.7-2.5-1.7-3.6-2.8c-1-1.1-1.8-2.4-2.4-3.7
		c-0.7-1.5-1-3.2-1.1-4.9c0-0.1,0-0.2,0-0.2c0-0.6-0.1-1.1-0.1-1.7v-15c0-0.3,0-0.5,0-0.8c0-0.2,0-0.4,0-0.7c0-2.8-0.3-4.3-0.7-5.2
		c-0.4-0.8-0.7-0.9-1.1-1.1c-0.1,0-0.2-0.1-0.3-0.1c-0.1,0-0.3,0-0.4,0c-0.4,0-0.7-0.1-1.1-0.1c-2.1,0-2.7,0.6-3.2,1.3
		c-0.2,0.5-0.4,1.1-0.7,1.6c-0.3,1.1-0.5,2.5-0.5,4.1v17c0,0.1,0,0.2,0,0.3v0.1c0,1.5-0.3,3-0.8,4.4
		C139.9,94.2,135.5,96.9,129.2,96.8L129.2,96.8z"/>
	<path fill="#F395BA" d="M127.2,16.7c0.1,0,0.2,0,0.3,0C127.4,16.7,127.3,16.7,127.2,16.7"/>
	<path fill="#F395BA" d="M126.7,16.8c0,0,0.1,0,0.1,0C126.8,16.8,126.8,16.8,126.7,16.8"/>
	<path fill="#EF689E" d="M129.1,93.2c-1.9,0-3.5-0.4-4.9-1c1.5,0.8,3.1,1.3,4.9,1.3c2.2,0,4.3-0.7,6-1.9
		C133.5,92.6,131.5,93.2,129.1,93.2"/>
	<path fill="#EF689E" d="M191.7,92.8c1,0.3,2,0.5,3.1,0.5c1.5,0,3-0.4,4.3-1c-1.3,0.5-2.8,0.9-4.4,0.9
		C193.7,93.2,192.7,93.1,191.7,92.8"/>
	<path fill="#74509F" d="M224.1,92.2c1.4,0.8,3.1,1.3,4.8,1.3c1.6,0,3-0.4,4.4-1c-1.3,0.5-2.8,0.8-4.4,0.8
		C227.1,93.2,225.5,92.9,224.1,92.2"/>
	<path fill="#EF689E" d="M257.3,91.7c1.6,1.1,3.6,1.8,5.7,1.8c2,0,3.8-0.6,5.3-1.6c-1.5,0.8-3.3,1.3-5.3,1.3
		C260.8,93.2,258.9,92.7,257.3,91.7"/>
	<path fill="#937BB3" d="M135.1,91.5L135.1,91.5C135.1,91.5,135.1,91.5,135.1,91.5C135.1,91.5,135.1,91.5,135.1,91.5"/>
	<path fill="#74509F" d="M159.3,92.3c1.4,0.8,3,1.2,4.7,1.2c1.3,0,2.6-0.3,3.8-0.8c-1.1,0.3-2.3,0.5-3.7,0.5
		C162.3,93.2,160.7,92.9,159.3,92.3"/>
	<path fill="#EF689E" d="M119.4,85.9c-0.2-0.6-0.3-1.3-0.3-2C119.1,84.6,119.2,85.3,119.4,85.9"/>
	<path fill="#EF689E" d="M119.5,86.5c0-0.1-0.1-0.2-0.1-0.3C119.5,86.3,119.5,86.4,119.5,86.5"/>
	<path fill="#EF689E" d="M172.5,50.4c0.2,0.5,0.4,1,0.5,1.6C172.9,51.4,172.7,50.9,172.5,50.4"/>
	<path fill="#F395BA" d="M139.4,35.5c0-0.2,0-0.4,0-0.5v1.1C139.3,35.9,139.4,35.7,139.4,35.5"/>
	<path fill="#937BB3" d="M139.2,24.5c0,0.2,0.1,0.5,0.1,0.7C139.2,24.9,139.2,24.7,139.2,24.5"/>
	<path fill="#EF689E" d="M119.1,25.2c0,0,0,0.1,0,0.1c0-0.3,0.1-0.7,0.1-1C119.1,24.6,119.1,24.9,119.1,25.2"/>
	<polygon fill="#74509F" points="139.3,39.2 139.3,39.2 139.3,39.2 	"/>
	<path fill="#74509F" d="M152.5,39.5c-0.4-1.1-1.5-1.8-2.7-1.8c-1.6,0-2.9,1.3-2.9,2.9c0,0.2,0,0.5,0.1,0.7c1.3-0.5,2.8-0.9,4.3-1.1
		C151.7,39.9,152.1,39.7,152.5,39.5"/>
	<path fill="#B0A0C6" d="M119,43.1c0,0.1,0,0.1,0,0.1v-0.3C119,43,119,43,119,43.1"/>
	<path fill="#937BB3" d="M139.4,45.5c0-0.1,0-0.3,0-0.4v0.8C139.3,45.8,139.4,45.6,139.4,45.5"/>
	<path fill="#937BB3" d="M204,47.9c-0.1,0-0.3-0.1-0.4-0.1c-0.1,0-0.2,0-0.3,0c0,0.3,0.1,0.6,0.1,0.9
		C203.5,48.4,203.8,48.1,204,47.9"/>
	<path fill="#EF689E" d="M235.3,47.6c0.1,0.1,0.2,0.3,0.2,0.4C235.5,47.9,235.4,47.7,235.3,47.6"/>
	<path fill="#EF689E" d="M229.3,41.9c0.5,0.3,1,0.6,1.5,0.9C230.4,42.3,229.9,42,229.3,41.9"/>
	<path fill="#937BB3" d="M201.3,43.1c-0.3-1.8-1.9-3.1-3.8-3.1c-0.6,0-1.1,0.1-1.6,0.3C198.3,40.7,200.1,41.6,201.3,43.1"/>
	<path fill="#74509F" d="M205.4,60.9v-0.1c-0.2,0.6-0.3,1.2-0.4,1.8C205.2,62.1,205.4,61.6,205.4,60.9"/>
	<path fill="#F395BA" d="M190,40.9c-2.8,0.9-4.8,3.4-5,6.5C185.6,44.1,187.3,41.9,190,40.9"/>
	<path fill="#937BB3" d="M210.4,42.3c0.1-0.1,0.2-0.1,0.3-0.2C210.6,42.1,210.5,42.2,210.4,42.3"/>
	<path fill="#937BB3" d="M219.6,39.7c-0.2,0-0.4,0.1-0.6,0.2c0.4,0,0.8,0,1.2,0C220,39.8,219.8,39.7,219.6,39.7"/>
	<path fill="#EF689E" d="M236.6,47.9c0.1-0.1,0.2-0.2,0.3-0.3C236.7,47.7,236.6,47.8,236.6,47.9"/>
	<path fill="#937BB3" d="M266.4,43.1c0.2,0.2,0.5,0.3,0.7,0.5C266.9,43.4,266.7,43.2,266.4,43.1"/>
	<path fill="#EF689E" d="M244,41.9c0.1-0.1,0.3-0.1,0.4-0.2C244.3,41.8,244.2,41.8,244,41.9"/>
	<path fill="#EF689E" d="M131.9,16.5L131.9,16.5c0.4,0.1,0.8,0.2,1.2,0.3C132.7,16.7,132.3,16.5,131.9,16.5"/>
	<path fill="#B0A0C6" d="M139.3,32c0-0.1,0-0.2,0-0.2v0.5C139.3,32.2,139.3,32.1,139.3,32"/>
	<path fill="#F395BA" d="M155.6,39.8c1.4,0,2.7,0.1,3.9,0.3c-1.2-0.8-2.6-1.3-4.1-1.3c-1,0-2,0.2-2.9,0.6c0.1,0.2,0.1,0.3,0.2,0.5
		C153.6,39.9,154.6,39.8,155.6,39.8"/>
	<path fill="#ED408E" d="M152.6,40c0-0.2-0.1-0.3-0.2-0.5c-0.4,0.2-0.8,0.4-1.2,0.7C151.7,40.1,152.2,40,152.6,40"/>
	<path fill="#EF689E" d="M204.4,86.2c0,0.1-0.1,0.2-0.1,0.3C204.4,86.4,204.4,86.3,204.4,86.2"/>
	<path fill="#EF689E" d="M204.9,83.3c0,0,0-0.1,0-0.1c0,1-0.2,2-0.4,2.9C204.7,85.2,204.9,84.3,204.9,83.3"/>
	<path fill="#EF689E" d="M184.8,83.3c0,1.1,0.2,2.2,0.5,3.2c-0.3-1-0.5-2.2-0.5-3.4C184.8,83.2,184.8,83.3,184.8,83.3"/>
	<path fill="#74509F" d="M219.3,85.9c-0.1-0.3-0.1-0.5-0.2-0.8C219.2,85.4,219.2,85.7,219.3,85.9"/>
	<path fill="#74509F" d="M219.5,86.6c0-0.1-0.1-0.3-0.1-0.4C219.4,86.4,219.5,86.5,219.5,86.6"/>
	<path fill="#74509F" d="M219.1,84.8c0-0.1,0-0.2,0-0.4C219.1,84.5,219.1,84.7,219.1,84.8"/>
	<path fill="#EF689E" d="M272.8,85.3c0,0.2-0.1,0.3-0.1,0.5C272.8,85.6,272.8,85.5,272.8,85.3"/>
	<path fill="#EF689E" d="M272.9,84.4c0,0.2,0,0.3-0.1,0.5C272.9,84.7,272.9,84.6,272.9,84.4"/>
	<path fill="#937BB3" d="M139.3,83.3v-0.1c0,1.2-0.2,2.4-0.6,3.5C139.1,85.6,139.3,84.5,139.3,83.3"/>
	<path fill="#937BB3" d="M253.2,84.9c0-0.2-0.1-0.4-0.1-0.6C253.1,84.6,253.1,84.7,253.2,84.9"/>
	<path fill="#937BB3" d="M253.6,86.9c-0.2-0.6-0.4-1.2-0.5-1.9C253.3,85.7,253.4,86.3,253.6,86.9"/>
	<path fill="#937BB3" d="M253.9,87.5c0-0.1-0.1-0.2-0.1-0.3C253.8,87.3,253.8,87.4,253.9,87.5"/>
	<path fill="#74509F" d="M140.7,58.9c-0.3,0.5-0.5,1-0.7,1.7C140.3,60,140.5,59.5,140.7,58.9"/>
	<path fill="#EF689E" d="M153.9,65.5c0,0.2,0,0.4,0,0.6c0,0.2,0,0.4,0,0.6v-0.9C153.9,65.7,153.9,65.6,153.9,65.5"/>
	<path fill="#74509F" d="M174.1,83.7c-0.1,1-0.2,2-0.5,2.9C174,85.6,174.1,84.7,174.1,83.7"/>
	<path fill="#74509F" d="M154.8,87.4c-0.4-1.1-0.7-2.3-0.8-3.7C154,85,154.3,86.2,154.8,87.4"/>
	<path fill="#EF689E" d="M142.3,43.9C142.3,43.9,142.3,43.9,142.3,43.9C142.3,43.9,142.3,43.9,142.3,43.9"/>
	<path fill="#EF689E" d="M142.8,43.5C142.8,43.5,142.8,43.5,142.8,43.5C142.8,43.5,142.8,43.5,142.8,43.5"/>
	<path fill="#EF689E" d="M159.9,40.2c0.5,0.1,0.9,0.2,1.3,0.3C160.8,40.3,160.4,40.2,159.9,40.2"/>
	<path fill="#B0A0C6" d="M174.2,65.8c0-0.5,0-1,0-1.5c-1,1.4-2.7,2.3-4.5,2.3c-0.3,0-0.7,0-1-0.1c-0.1,2.9-2,5.4-4.5,6.5
		c0,0.1,0,0.2,0,0.4c5.5,0.1,10,4.6,10,10.1v0l0,0c0-0.5,0.1-1,0.1-1.5V65.8z"/>
	<path fill="#EF689E" d="M135.1,91.5c-5.8-3.4-9.7-9.6-9.7-16.8c0-0.3,0-0.6,0-0.9c-0.6,0.4-1.3,0.7-2,1c-2.7,1.8-4.5,4.9-4.5,8.4
		c0,0.2,0,0.4,0,0.6c0.1,0.7,0.2,1.4,0.3,2c0,0.1,0,0.1,0.1,0.2c0,0.1,0.1,0.2,0.1,0.3c0.8,2.5,2.5,4.5,4.7,5.7c1.4,0.7,3,1,4.9,1
		C131.5,93.2,133.5,92.6,135.1,91.5"/>
	<path fill="#EF689E" d="M123.5,74.9c0.6-0.4,1.3-0.8,2-1c0.2-4.1,1.6-7.8,4-10.9c-1.8-1.2-3.1-3.3-3.3-5.6
		c-1.7-1.3-3.9-2.1-6.2-2.1c-0.3,0-0.7,0-1,0v20.2c0.3,0,0.6,0,1,0C121.2,75.6,122.4,75.3,123.5,74.9"/>
	<path fill="#EF689E" d="M123.5,74.9c0.7-0.3,1.4-0.6,2-1v0C124.8,74.2,124.1,74.5,123.5,74.9"/>
	<path fill="#EF689E" d="M132.8,49.5c-0.2-1.8-1.5-3.2-3.2-3.5c-0.6,2-2.5,3.5-4.7,3.5c0,0,0,0-0.1,0c0,0.1,0,0.3,0,0.4
		c0,1.6,0.9,2.9,2.2,3.6C128.1,51.3,130.3,49.7,132.8,49.5"/>
	<path fill="#F395BA" d="M128.8,45.9c0.3,0,0.5,0,0.8,0.1c0.1-0.4,0.2-0.9,0.2-1.3c0-1.9-1.1-3.6-2.7-4.4c-0.8,0.7-1.9,1.1-3.1,1.1
		c-0.8,0-1.5-0.2-2.1-0.5c0,0,0,0,0,0c1,0.2,1.7,1.1,1.7,2.2c0,1.2-1,2.2-2.2,2.2c-0.4,0-0.8-0.1-1.2-0.3c0,0.7,0.2,1.3,0.5,1.9
		c0.4-0.2,0.9-0.4,1.4-0.4c1.6,0,2.9,1.3,2.9,2.9c0,0.1,0,0.1,0,0.2h0C125,47.5,126.7,45.9,128.8,45.9"/>
	<path fill="#F395BA" d="M129.6,46c-0.2-0.1-0.5-0.1-0.8-0.1c-2.1,0-3.8,1.6-4,3.6c0,0,0,0,0.1,0C127.1,49.5,129,48,129.6,46"/>
	<path fill="#937BB3" d="M172.3,55.9c-1,1.6-2.8,2.7-4.8,2.7c-0.9,0-1.8-0.2-2.6-0.6c-0.3,0.4-0.5,0.9-0.6,1.3
		c1.5,0.7,2.8,1.8,3.6,3.3c0.7-0.1,1.4-0.2,2.1-0.2c1.5,0,3,0.3,4.3,0.9c0-2.2-0.1-4.2-0.3-6.1C173.5,56.6,172.9,56.2,172.3,55.9"/>
	<path fill="#937BB3" d="M169.9,62.4c-0.7,0-1.4,0.1-2.1,0.2c0.6,1,0.9,2.2,0.9,3.5c0,0.1,0,0.2,0,0.4c0.3,0.1,0.7,0.1,1,0.1
		c1.9,0,3.5-0.9,4.5-2.3c0-0.3,0-0.7,0-1C172.9,62.7,171.4,62.4,169.9,62.4"/>
	<path fill="#EF689E" d="M167.7,52c-1.2,0-2.4-0.3-3.4-0.8c0.3,0.5,0.4,1.1,0.4,1.7c0,1.4-0.7,2.6-1.8,3.3c0.5,0.7,1.2,1.3,1.9,1.6
		c1-1.6,2.8-2.7,4.8-2.7c0.9,0,1.8,0.2,2.6,0.6c0.5-0.9,0.8-1.9,0.8-2.9c0-0.3,0-0.6-0.1-1c-0.2-0.5-0.3-1.1-0.5-1.6c0,0,0,0,0-0.1
		C171.2,51.4,169.5,52,167.7,52"/>
	<path fill="#ED408E" d="M172.3,55.9c-0.8-0.4-1.7-0.6-2.6-0.6c-2,0-3.8,1.1-4.8,2.7c0.8,0.4,1.7,0.6,2.6,0.6
		C169.5,58.6,171.3,57.5,172.3,55.9"/>
	<path fill="#937BB3" d="M127.1,40.3c1.1-0.9,1.7-2.2,1.7-3.7c0-0.5-0.1-1-0.2-1.4c-0.3,0.1-0.7,0.2-1.1,0.2c-1.6,0-2.9-1.3-2.9-2.9
		c0-0.3,0-0.5,0.1-0.8c-0.2,0-0.5-0.1-0.7-0.1c-2.7,0-4.9,2.2-4.9,4.9c0,1.9,1.1,3.6,2.7,4.4c0.8-0.7,1.9-1.1,3.1-1.1
		C125.7,39.8,126.4,39.9,127.1,40.3"/>
	<path fill="#74509F" d="M127.1,40.3c-0.7-0.3-1.4-0.5-2.2-0.5c-1.2,0-2.3,0.4-3.1,1.1c0.7,0.3,1.4,0.5,2.1,0.5
		C125.1,41.4,126.2,41,127.1,40.3"/>
	<path fill="#F395BA" d="M121.9,22.3L121.9,22.3c1.6,0,2.9,1.3,2.9,2.9c0,0.7-0.2,1.3-0.7,1.8c1,0.8,2.3,1.3,3.7,1.3
		c0.8,0,1.5-0.2,2.2-0.4c-0.4-0.7-0.7-1.5-0.7-2.4c0-2.5,1.8-4.5,4.2-4.8c0-0.1-0.1-0.3-0.1-0.4c-0.4,0.5-1,0.8-1.7,0.8
		c-1.2,0-2.2-1-2.2-2.2c0-0.7,0.4-1.4,0.9-1.8c-0.8-0.4-1.7-0.6-2.7-0.6c-0.2,0-0.4,0-0.6,0c-0.1,0-0.2,0-0.3,0
		c-0.1,0-0.2,0-0.3,0.1c0,0-0.1,0-0.1,0C124,17.1,122,19.4,121.9,22.3"/>
	<path fill="#F395BA" d="M137.1,34.2c-1.2,0-2.2-1-2.2-2.2c0-0.4,0.1-0.9,0.4-1.2c-0.2,0-0.5-0.1-0.7-0.1c-2.7,0-4.8,2.2-4.8,4.8
		c0,1.4,0.6,2.7,1.6,3.6c0-2.2,1.8-3.9,4-3.9c1.6,0,3,0.9,3.6,2.3c0.2-0.4,0.3-0.9,0.4-1.4V35c-0.1-0.6-0.2-1.1-0.5-1.6
		C138.4,33.9,137.8,34.2,137.1,34.2"/>
	<path fill="#937BB3" d="M134.4,20.6c-0.2,0-0.5,0-0.7,0.1c0.2,0.5,0.2,1.1,0.2,1.7c0,2.5-1.6,4.7-3.8,5.6c0.8,1.5,2.4,2.5,4.2,2.5
		c0.6,0,1.2-0.1,1.7-0.3c0.1-0.1,0.2-0.1,0.3-0.1c1.7-0.8,2.8-2.5,2.8-4.4c0-0.1,0-0.2,0-0.3c0-0.2-0.1-0.5-0.1-0.7
		C138.7,22.2,136.7,20.6,134.4,20.6"/>
	<path fill="#74509F" d="M133.9,22.3c0-0.6-0.1-1.2-0.2-1.7c-2.4,0.3-4.2,2.4-4.2,4.8c0,0.9,0.2,1.7,0.7,2.4
		C132.4,27,133.9,24.9,133.9,22.3"/>
	<path fill="#EF689E" d="M120.5,46.8c-0.9,0.5-1.5,1.5-1.5,2.5c0,1.6,1.3,2.9,2.9,2.9c1.6,0,2.8-1.2,2.9-2.8
		C122.9,49.5,121.3,48.4,120.5,46.8"/>
	<path fill="#ED408E" d="M121.9,46.5c-0.5,0-1,0.1-1.4,0.4c0.8,1.6,2.4,2.7,4.3,2.7c0-0.1,0-0.1,0-0.2
		C124.8,47.8,123.5,46.5,121.9,46.5"/>
	<path fill="#EF689E" d="M122,28.1c0.9,0,1.7-0.4,2.2-1.1c-1.4-1.1-2.3-2.8-2.3-4.7c0,0,0,0,0,0c-1.3,0-2.4,0.9-2.7,2
		c-0.1,0.3-0.1,0.7-0.1,1C119.1,26.8,120.4,28.1,122,28.1"/>
	<path fill="#ED408E" d="M122,22.3L122,22.3C121.9,22.3,121.9,22.3,122,22.3c0,2,0.9,3.6,2.2,4.7c0.4-0.5,0.7-1.1,0.7-1.8
		C124.9,23.6,123.6,22.3,122,22.3"/>
	<path fill="#74509F" d="M134.5,40.4c-1.2,0-2.3-0.5-3.2-1.2c0,0,0,0,0,0c0,2.2,1.8,4,4,4s4-1.8,4-4v0c0-0.6-0.1-1.2-0.4-1.7
		C138.2,39.2,136.5,40.4,134.5,40.4"/>
	<path fill="#5E318D" d="M138.9,37.5c-0.6-1.4-2-2.3-3.6-2.3c-2.2,0-4,1.8-4,3.9c0.9,0.7,2,1.2,3.2,1.2
		C136.5,40.4,138.2,39.2,138.9,37.5"/>
	<path fill="#74509F" d="M157.4,54.2c1.8,0,3.3,1.1,4,2.7c0.6-0.1,1.1-0.3,1.6-0.6c-0.7-0.9-1.1-2.1-1.1-3.4c0-1.1,0.3-2.1,0.8-2.9
		c-0.3-0.3-0.5-0.6-0.8-0.9c0,0,0,0,0,0c-1,2-2.8,3.4-5.1,3.9c0,0.4,0.1,0.9,0.2,1.3C157.1,54.2,157.2,54.2,157.4,54.2"/>
	<path fill="#5E318D" d="M161.8,52.9c0,1.3,0.4,2.4,1.1,3.4c1.1-0.7,1.8-1.9,1.8-3.3c0-0.6-0.1-1.2-0.4-1.7
		c-0.6-0.3-1.2-0.7-1.7-1.2C162.1,50.8,161.8,51.8,161.8,52.9"/>
	<path fill="#937BB3" d="M161.3,58.7c0.1,0,0.3,0,0.4,0c0-0.1,0-0.1,0-0.2c0-0.6-0.1-1.1-0.3-1.6c-0.2,0-0.4,0.1-0.6,0.1
		c-1.8,0-3.2-1.1-3.8-2.7c-1.8,0.2-3.2,1.4-3.7,3.1c1.4,0.7,2.8,1.6,4,2.6C158.4,59.1,159.8,58.7,161.3,58.7"/>
	<path fill="#937BB3" d="M160.7,56.9c0.2,0,0.4,0,0.6-0.1c-0.6-1.6-2.2-2.7-4-2.7c-0.1,0-0.3,0-0.4,0
		C157.5,55.8,159,56.9,160.7,56.9"/>
	<path fill="#EF689E" d="M128.6,35.1c1-0.4,1.8-1.5,1.8-2.7c0-1.6-1.3-2.9-2.9-2.9c-1.3,0-2.5,0.9-2.8,2.2
		C126.5,32,128.1,33.3,128.6,35.1"/>
	<path fill="#ED408E" d="M127.4,35.3c0.4,0,0.8-0.1,1.1-0.2c-0.5-1.8-2.1-3.1-3.9-3.4c-0.1,0.2-0.1,0.5-0.1,0.8
		C124.5,34,125.8,35.3,127.4,35.3"/>
	<path fill="#74509F" d="M149,42.9c0.5-1.1,1.3-2,2.3-2.7c-1.5,0.2-3,0.6-4.3,1.1c0.1,0.4,0.3,0.9,0.6,1.2
		C148.1,42.5,148.5,42.7,149,42.9"/>
	<path fill="#B0A0C6" d="M120,45c0-0.1,0-0.2,0-0.3c0-1.5,0.7-2.8,1.7-3.7c-0.2,0-0.3-0.1-0.5-0.1c-1.2,0-2.1,0.9-2.2,2.1v0.3
		C119,44,119.4,44.6,120,45"/>
	<path fill="#937BB3" d="M123.4,43.1c0-1-0.7-1.9-1.7-2.2c-1,0.9-1.7,2.2-1.7,3.7c0,0.1,0,0.2,0,0.3c0.3,0.2,0.7,0.3,1.2,0.3
		C122.4,45.3,123.4,44.3,123.4,43.1"/>
	<path fill="#937BB3" d="M136.9,43c-1.4,0-2.5,1.1-2.5,2.5c0,1.4,1.1,2.5,2.5,2.5c1.2,0,2.3-0.9,2.4-2.1v-0.8
		C139.1,43.9,138.1,43,136.9,43"/>
	<path fill="#EF689E" d="M133.5,20.2c0.3-0.4,0.5-0.9,0.5-1.4c0-0.8-0.4-1.5-1.1-1.9c-0.4-0.1-0.8-0.2-1.2-0.3
		c-0.5,0-0.9,0.2-1.3,0.4C132,17.6,133,18.8,133.5,20.2"/>
	<path fill="#ED408E" d="M130.6,17c-0.6,0.4-0.9,1.1-0.9,1.8c0,1.2,1,2.2,2.2,2.2c0.7,0,1.3-0.3,1.7-0.8C133,18.8,132,17.6,130.6,17
		"/>
	<path fill="#B0A0C6" d="M137.1,29.8c-0.2,0-0.5,0-0.7,0.1c-0.1,0-0.2,0.1-0.3,0.1c-0.3,0.2-0.6,0.4-0.8,0.7
		c1.6,0.2,2.9,1.2,3.6,2.6c0.3-0.3,0.4-0.7,0.5-1.2v-0.5C139.2,30.7,138.3,29.8,137.1,29.8"/>
	<path fill="#937BB3" d="M137.1,34.2c0.7,0,1.3-0.3,1.7-0.8c-0.7-1.4-2-2.4-3.6-2.6c-0.2,0.4-0.4,0.8-0.4,1.2
		C134.9,33.2,135.9,34.2,137.1,34.2"/>
	<path fill="#B0A0C6" d="M136.1,30c0.1,0,0.2-0.1,0.3-0.1C136.3,29.9,136.2,30,136.1,30"/>
	<path fill="#EF689E" d="M163.7,44.2c0,1.2-0.5,2.2-1.3,2.9c-0.1,0.7-0.3,1.4-0.6,2c0,0,0,0,0,0c0.4,0.1,0.7,0.3,1.1,0.5
		c1-1.4,2.7-2.3,4.6-2.3c2.2,0,4.1,1.2,5,3.1c0,0,0,0,0,0c-0.2-0.5-0.3-0.9-0.6-1.3c-2-4.2-5.7-7.1-10.4-8.4c0,0,0,0,0,0
		C162.8,41.3,163.7,42.6,163.7,44.2"/>
	<path fill="#ED408E" d="M164.3,51.2c1,0.5,2.2,0.8,3.4,0.8c1.8,0,3.5-0.6,4.7-1.7c-0.9-1.8-2.8-3.1-5-3.1c-1.9,0-3.5,0.9-4.6,2.3
		C163.5,50,164,50.5,164.3,51.2"/>
	<path fill="#EF689E" d="M162.6,50c0.1-0.1,0.2-0.3,0.3-0.4c-0.3-0.2-0.7-0.4-1.1-0.5C162.1,49.4,162.3,49.7,162.6,50"/>
	<path fill="#ED408E" d="M164.3,51.2c-0.3-0.7-0.8-1.2-1.5-1.6c-0.1,0.1-0.2,0.3-0.3,0.4C163.1,50.5,163.7,50.9,164.3,51.2"/>
	<path fill="#F395BA" d="M152.6,40c0,0.2,0.1,0.4,0.1,0.6c0,1.5-1.1,2.7-2.5,2.9c1.8,1.2,3,3.2,3,5.5c0,1.2-0.3,2.4-0.9,3.4
		c1,0.5,2,0.8,3.2,0.8c0.5,0,0.9,0,1.4-0.1c0,0,0,0,0,0c0-2.2,1.8-4,4-4c0.4,0,0.7,0.1,1.1,0.1l0,0c-0.3-0.4-0.5-0.7-0.7-1.1
		c-0.4,0.2-0.9,0.2-1.4,0.2c-2.2,0-4-1.8-4-4c0-2.2,1.7-3.9,3.9-4c0,0-0.1,0-0.1-0.1c-1.2-0.2-2.5-0.3-3.9-0.3
		C154.6,39.8,153.6,39.9,152.6,40"/>
	<path fill="#EF689E" d="M161.8,49.1c-0.3-0.1-0.7-0.1-1.1-0.1c-2.2,0-4,1.8-4,4v0C159,52.5,160.8,51.1,161.8,49.1"/>
	<path fill="#ED408E" d="M152.7,40.6c0-0.2,0-0.4-0.1-0.6c-0.5,0-0.9,0.1-1.4,0.2c-1,0.7-1.8,1.6-2.3,2.7c0.4,0.2,0.8,0.4,1.2,0.6
		C151.6,43.3,152.7,42.1,152.7,40.6"/>
	<path fill="#EF689E" d="M161.1,47.9c0.2,0.4,0.4,0.8,0.7,1.1c0.3-0.6,0.5-1.3,0.6-2C162,47.5,161.6,47.8,161.1,47.9"/>
	<path fill="#937BB3" d="M135.2,91.5c1.7-1.1,2.9-2.8,3.6-4.8C138.1,88.6,136.8,90.3,135.2,91.5"/>
	<path fill="#937BB3" d="M146.5,55.6c-0.6,0-1.1-0.1-1.6-0.2h-0.1c-1.3,0-2.7,0.1-3.9,0.4c0,0.3,0.1,0.7,0.1,1.1
		c0,0.7-0.1,1.4-0.3,2c1.2-2.2,3.2-3.2,6.2-3.2c0.6,0,1.1,0,1.6,0.1c-0.4-0.1-0.9-0.2-1.3-0.2C147,55.6,146.8,55.6,146.5,55.6"/>
	<path fill="#937BB3" d="M133.6,64.3c-1.3,0-2.6-0.4-3.7-1c0.1,0.7,0.2,1.4,0.2,2.1c0,3.5-1.8,6.6-4.5,8.4c1.1-0.4,2.3-0.6,3.5-0.6
		c5.6,0,10.1,4.5,10.1,10c0-0.1,0-0.2,0-0.3V66c0-2.1,0.2-3.9,0.7-5.4C138.7,62.8,136.3,64.3,133.6,64.3"/>
	<path fill="#B0A0C6" d="M153.1,58.5c0-0.4,0.1-0.8,0.2-1.2c-1.1-0.5-2.2-0.9-3.4-1.2c3.1,1,4,4.1,4,9.5c0.1-1.2,0.5-2.4,1.1-3.4
		C153.8,61.4,153.1,60,153.1,58.5"/>
	<path fill="#937BB3" d="M159,74.6c-0.1-0.4-0.1-0.9-0.1-1.3c0-0.1,0-0.1,0-0.2c-2.8-0.9-4.8-3.4-5.1-6.4v15.1c0,0.6,0,1.2,0.1,1.8
		c0-0.1,0-0.2,0-0.3C154,79.6,156,76.4,159,74.6"/>
	<path fill="#937BB3" d="M159,73.1c0,0.1,0,0.1,0,0.2c0,0.4,0,0.9,0.1,1.3c1.5-0.8,3.2-1.3,5-1.3c0,0,0.1,0,0.1,0c0-0.1,0-0.2,0-0.4
		c-0.9,0.4-1.9,0.6-2.9,0.6C160.5,73.5,159.7,73.4,159,73.1"/>
	<path fill="#ED408E" d="M129.2,73.2c-1.2,0-2.4,0.2-3.5,0.6c-0.1,0-0.1,0.1-0.2,0.1c0,0.3,0,0.6,0,0.9c0,7.2,3.9,13.4,9.7,16.8
		c0,0,0,0,0,0c1.6-1.2,2.9-2.9,3.6-4.8c0.4-1.1,0.5-2.2,0.6-3.5C139.3,77.7,134.7,73.2,129.2,73.2"/>
	<path fill="#ED408E" d="M130.1,65.4c0-0.7-0.1-1.4-0.2-2.1c-0.2-0.1-0.3-0.2-0.5-0.3c-2.3,3-3.8,6.8-4,10.9c0.1,0,0.1,0,0.2-0.1
		C128.4,72,130.1,68.9,130.1,65.4"/>
	<path fill="#ED408E" d="M125.5,73.9L125.5,73.9c0.1,0,0.1,0,0.2-0.1C125.6,73.8,125.5,73.9,125.5,73.9"/>
	<path fill="#937BB3" d="M157.2,59.9c-1.2-1-2.6-1.9-4-2.6c-0.1,0.4-0.2,0.8-0.2,1.2c0,1.5,0.8,2.8,1.9,3.6
		C155.6,61.2,156.3,60.5,157.2,59.9"/>
	<path fill="#74509F" d="M129.7,62.6c2.8-3.4,6.7-5.9,11.2-6.8c-0.5-3.6-3.6-6.4-7.3-6.4c-0.3,0-0.5,0-0.8,0c0,0.1,0,0.3,0,0.5
		c0,2.2-1.8,4-4,4c-0.7,0-1.3-0.2-1.9-0.5c-0.5,1-0.8,2.1-0.8,3.4c0,0.2,0,0.4,0,0.5C127.9,58.7,129.1,60.5,129.7,62.6"/>
	<path fill="#74509F" d="M126.2,57.4c0.2,2.4,1.4,4.4,3.3,5.6c0.1-0.1,0.2-0.2,0.3-0.4C129.1,60.5,127.9,58.7,126.2,57.4"/>
	<path fill="#ED408E" d="M132.9,49.9c0-0.2,0-0.3,0-0.5c-2.6,0.3-4.7,1.8-5.9,4c0.6,0.3,1.2,0.5,1.9,0.5
		C131.1,54,132.9,52.2,132.9,49.9"/>
	<path fill="#5E318D" d="M140.9,55.8c-4.5,0.9-8.4,3.4-11.2,6.8c0.1,0.2,0.1,0.4,0.2,0.7c1.1,0.6,2.3,1,3.7,1c2.8,0,5.2-1.5,6.4-3.7
		c0.2-0.6,0.4-1.2,0.7-1.7c0.2-0.6,0.3-1.3,0.3-2C141,56.5,141,56.1,140.9,55.8"/>
	<path fill="#74509F" d="M129.7,62.6c-0.1,0.1-0.2,0.2-0.3,0.4c0.1,0.1,0.3,0.2,0.5,0.3C129.9,63.1,129.8,62.9,129.7,62.6"/>
	<path fill="#EF689E" d="M159.6,62.2c0.9,1.1,1.7,2.3,2.4,3.5c0.8-0.8,1.7-1.5,2.8-2.1c-0.5-0.8-0.7-1.8-0.7-2.8
		c0-0.5,0.1-1.1,0.2-1.6c-0.8-0.3-1.7-0.6-2.6-0.6C161.6,60.2,160.8,61.5,159.6,62.2"/>
	<path fill="#EF689E" d="M164.8,63.7c-1,0.5-2,1.3-2.7,2.1c1.1,2.2,1.9,4.6,2.1,7.2c2.6-1.1,4.4-3.6,4.5-6.5
		C167,66.1,165.6,65.1,164.8,63.7"/>
	<path fill="#ED408E" d="M164.8,63.7c0.9-0.5,2-0.9,3-1.1c-0.8-1.4-2-2.6-3.6-3.3c-0.1,0.5-0.2,1-0.2,1.6
		C164,61.9,164.3,62.8,164.8,63.7"/>
	<path fill="#ED408E" d="M167.8,62.6c-1.1,0.2-2.1,0.6-3,1.1c0.8,1.4,2.2,2.5,3.9,2.8c0-0.1,0-0.2,0-0.4
		C168.7,64.8,168.4,63.6,167.8,62.6"/>
	<path fill="#74509F" d="M161.7,58.7c-0.1,0-0.3,0-0.4,0c-1.5,0-2.9,0.4-4,1.2c0.9,0.7,1.6,1.5,2.4,2.3
		C160.8,61.5,161.6,60.2,161.7,58.7"/>
	<path fill="#ED408E" d="M159,73.1c0.1-2.9,1.2-5.5,3-7.4c-0.7-1.3-1.5-2.5-2.4-3.5c-0.7,0.4-1.4,0.6-2.2,0.6
		c-0.9,0-1.7-0.3-2.4-0.7c-0.6,1-1,2.1-1.1,3.4c0,0.1,0,0.2,0,0.3v0.9C154.1,69.7,156.2,72.2,159,73.1"/>
	<path fill="#ED408E" d="M159,73.1c0.7,0.2,1.5,0.4,2.3,0.4c1,0,2-0.2,2.9-0.6c-0.2-2.6-1-5-2.1-7.2C160.2,67.7,159,70.3,159,73.1"
		/>
	<path fill="#74509F" d="M157.2,59.9c-0.9,0.6-1.7,1.4-2.2,2.3c0.7,0.4,1.5,0.7,2.4,0.7c0.8,0,1.6-0.2,2.2-0.6
		C158.9,61.4,158.1,60.6,157.2,59.9"/>
	<path fill="#74509F" d="M169.9,84.3c-2.6,0-5.1-0.9-7-2.5c-1.3,3.4-3.5,6.3-6.3,8.4c0.8,0.8,1.7,1.6,2.7,2.1c1.4,0.6,3,0.9,4.9,0.9
		c1.4,0,2.6-0.2,3.7-0.5c2.7-1.1,4.9-3.4,5.8-6.2c0.2-0.9,0.4-1.8,0.5-2.9c0-0.1,0-0.2,0-0.3C172.8,84,171.4,84.3,169.9,84.3"/>
	<path fill="#74509F" d="M162.9,81.8c1.9,1.6,4.3,2.5,7,2.5c1.5,0,2.9-0.3,4.3-0.9v0c0-5.5-4.5-10-10-10.1c0,0.5,0.1,1,0.1,1.5
		C164.2,77.2,163.8,79.6,162.9,81.8"/>
	<path fill="#5E318D" d="M159,74.6c-3,1.7-5.1,5-5.1,8.8c0,0.1,0,0.2,0,0.3c0.1,1.4,0.4,2.6,0.8,3.7c0.5,1,1.1,2,1.8,2.8
		c2.8-2.2,5-5.1,6.3-8.4C160.8,80,159.4,77.5,159,74.6"/>
	<path fill="#5E318D" d="M159,74.6c0.3,2.9,1.8,5.4,3.9,7.1c0.8-2.2,1.3-4.5,1.3-7c0-0.5,0-1-0.1-1.5c0,0-0.1,0-0.1,0
		C162.2,73.3,160.5,73.8,159,74.6"/>
	<path fill="#EF689E" d="M139.9,49c0,3.1,2.1,5.7,5,6.4c0.8,0,1.6,0.1,2.3,0.2c2.1-0.2,3.9-1.5,4.9-3.2c-2.3-1.2-3.9-3.6-3.9-6.4
		c0-0.9,0.2-1.8,0.5-2.7c-0.5-0.2-0.9-0.5-1.2-0.9c-0.4-0.1-0.7-0.1-1.1-0.1c-1.4,0-2.6,0.4-3.7,1.1l0,0c-0.2,0.1-0.3,0.2-0.5,0.4
		c0,0,0,0,0,0C140.8,45.1,139.9,46.9,139.9,49"/>
	<path fill="#EF689E" d="M147.6,42.5c0.3,0.4,0.7,0.7,1.2,0.9c0.1-0.2,0.1-0.3,0.2-0.5C148.5,42.7,148.1,42.5,147.6,42.5"/>
	<path fill="#ED408E" d="M150.2,43.5c-0.1,0-0.2,0-0.4,0c-0.4,0-0.7-0.1-1-0.2c-0.3,0.8-0.5,1.7-0.5,2.7c0,2.8,1.6,5.2,3.9,6.4
		c0.6-1,0.9-2.1,0.9-3.4C153.1,46.7,152,44.7,150.2,43.5"/>
	<path fill="#ED408E" d="M150.2,43.5c-0.4-0.2-0.8-0.5-1.2-0.6c-0.1,0.2-0.2,0.3-0.2,0.5c0.3,0.1,0.7,0.2,1,0.2
		C149.9,43.5,150.1,43.5,150.2,43.5"/>
	<path fill="#EF689E" d="M147.3,55.6c-0.8-0.1-1.5-0.1-2.3-0.2c0.5,0.1,1,0.2,1.6,0.2C146.8,55.6,147,55.6,147.3,55.6"/>
	<path fill="#EF689E" d="M159.6,40.2c0.5,0.4,1,0.8,1.4,1.3c0.1-0.3,0.3-0.6,0.5-0.9c-0.1,0-0.1-0.1-0.2-0.1
		c-0.4-0.1-0.9-0.2-1.3-0.3c-0.1,0-0.1,0-0.2,0C159.7,40.2,159.6,40.2,159.6,40.2"/>
	<path fill="#ED408E" d="M162.4,47.1c0.8-0.7,1.3-1.8,1.3-2.9c0-1.6-0.9-2.9-2.2-3.6c-0.2,0.3-0.3,0.6-0.5,0.9
		c1,1.2,1.6,2.8,1.6,4.4C162.5,46.4,162.5,46.7,162.4,47.1"/>
	<path fill="#EF689E" d="M161,41.5c-0.4-0.5-0.9-0.9-1.4-1.3c-2.1,0.1-3.9,1.8-3.9,4c0,2.2,1.8,4,4,4c0.5,0,0.9-0.1,1.4-0.2
		c-0.5-1-0.8-2.1-0.8-3.3C160.3,43.5,160.5,42.5,161,41.5"/>
	<path fill="#ED408E" d="M162.5,46c0-1.7-0.6-3.2-1.6-4.4c-0.4,0.9-0.7,2-0.7,3.1c0,1.2,0.3,2.3,0.8,3.3c0.5-0.2,1-0.5,1.3-0.8
		C162.5,46.7,162.5,46.4,162.5,46"/>
	<path fill="#F6B6CD" d="M224,62.4c2.2,0,4.1,1.1,5.4,2.7c1.3-2.2,3-4,5-5.6c-1.1-0.8-1.9-2.1-1.9-3.5c0-0.3,0-0.6,0.1-0.8
		c-1.8-1.6-4.2-2.7-6.9-2.7c-1.1,0-2,0.2-3,0.5c0.2,0.4,0.3,0.8,0.3,1.3c0,1.5-1.2,2.8-2.8,2.8c-0.8,0-1.5-0.3-2-0.9
		c0,0.3,0.1,0.5,0.1,0.8c0,0.8-0.2,1.5-0.5,2.1c0.7,1.4,1,3.3,1.1,5.7C220.2,63.4,222,62.4,224,62.4"/>
	<path fill="#B0A0C6" d="M192.1,73.7c-1.6-0.4-2.9-1.3-3.8-2.6c-1,0.6-2.2,0.9-3.5,0.9v10.6c0,0.2,0,0.3,0,0.5
		C184.9,78.7,188,74.9,192.1,73.7"/>
	<path fill="#937BB3" d="M201.9,49.5c0,0.9,0.8,1.7,1.7,1.7c0.9,0,1.7-0.8,1.7-1.7c0-0.8-0.5-1.4-1.3-1.6c-0.2,0.3-0.4,0.6-0.7,0.8
		c0-0.3,0-0.6-0.1-0.9C202.5,48,201.9,48.7,201.9,49.5"/>
	<path fill="#ED408E" d="M211.2,51.3c1.5,0,2.8-1.2,2.8-2.8c0-1.5-1.2-2.8-2.8-2.8c-1.5,0-2.8,1.2-2.8,2.8
		C208.4,50,209.6,51.3,211.2,51.3"/>
	<path fill="#EF689E" d="M222.8,53c-0.5-0.9-1.4-1.5-2.5-1.5c-1.5,0-2.8,1.2-2.8,2.8c0,0.1,0,0.1,0,0.2c0.3,0.4,0.5,0.9,0.7,1.4
		C219.4,54.6,221,53.6,222.8,53"/>
	<path fill="#EF689E" d="M218.2,55.9c0,0.1,0.1,0.2,0.1,0.4c0.5,0.5,1.2,0.9,2,0.9c1.5,0,2.8-1.2,2.8-2.8c0-0.5-0.1-0.9-0.3-1.3
		C221,53.6,219.4,54.6,218.2,55.9"/>
	<path fill="#EF689E" d="M196.6,58.1c1.5,0,2.8-1.2,2.8-2.8c0-0.9-0.5-1.8-1.2-2.3c-0.2-0.1-0.4-0.2-0.6-0.3c0,0-0.1,0-0.1,0
		c-0.9,1-2.2,1.7-3.6,2.1c0,0.2-0.1,0.4-0.1,0.6C193.8,56.8,195.1,58.1,196.6,58.1"/>
	<path fill="#ED408E" d="M233,46.4c-1.5,0-2.8,1.2-2.8,2.8c0,1.5,1.2,2.8,2.8,2.8c1.5,0,2.8-1.2,2.8-2.8c0-0.4-0.1-0.8-0.2-1.1
		c-0.1-0.1-0.2-0.3-0.2-0.4C234.8,46.9,234,46.4,233,46.4"/>
	<path fill="#EF689E" d="M225.9,44.6c0,1.5,1.2,2.8,2.8,2.8c1.5,0,2.8-1.2,2.8-2.8c0-0.7-0.3-1.3-0.7-1.8c-0.5-0.3-0.9-0.6-1.5-0.9
		c-0.2,0-0.4-0.1-0.6-0.1C227.2,41.8,225.9,43,225.9,44.6"/>
	<path fill="#EF689E" d="M198.2,53c0.3,0.1,0.6,0.2,1,0.2c1.5,0,2.8-1.2,2.8-2.8c0-1.4-1.1-2.6-2.5-2.8v0c0,1.9-0.7,3.6-1.9,4.9
		c0,0,0.1,0.1,0.1,0.1C197.8,52.8,198,52.9,198.2,53"/>
	<path fill="#EF689E" d="M198.2,53c-0.2-0.1-0.4-0.2-0.6-0.3C197.8,52.8,198,53,198.2,53"/>
	<path fill="#937BB3" d="M199.4,47.2c1.2-0.7,2-1.9,2-3.4c0-0.2,0-0.5-0.1-0.7c-1.2-1.5-3-2.5-5.4-2.8c-0.4,0.2-0.7,0.4-1,0.7
		C197.4,42.1,199.2,44.4,199.4,47.2"/>
	<path fill="#937BB3" d="M217.5,54.5c-0.8-1.1-2-1.8-3.4-1.8c-1.6,0-2.9,0.8-3.7,2.1c0,0,0,0,0,0.1c0,0.4,0,0.7-0.1,1
		c0.5-0.1,1-0.1,1.5-0.1c2.3,0,3.9,0.6,5.1,1.8c0.3-0.6,0.8-1.1,1.2-1.6C217.8,55.6,217.6,55.1,217.5,54.5"/>
	<path fill="#937BB3" d="M218.3,56.2c-0.1-0.1-0.1-0.2-0.2-0.2c-0.5,0.5-0.9,1.1-1.2,1.6c0.4,0.4,0.7,0.9,1,1.5
		c0.3-0.6,0.5-1.3,0.5-2.1C218.4,56.8,218.4,56.5,218.3,56.2"/>
	<path fill="#937BB3" d="M218.2,55.9c-0.1-0.5-0.4-1-0.7-1.4c0,0.6,0.2,1.1,0.6,1.5C218.1,56,218.2,55.9,218.2,55.9"/>
	<path fill="#937BB3" d="M218.1,56c0.1,0.1,0.1,0.2,0.2,0.2c0-0.1,0-0.2-0.1-0.4C218.2,55.9,218.1,56,218.1,56"/>
	<path fill="#EF689E" d="M209.9,56.1c0.1-0.4,0.3-0.8,0.5-1.2c0-2.3-1.9-4.2-4.3-4.2c-2.4,0-4.3,1.9-4.3,4.3c0,0.7,0.2,1.3,0.5,1.9
		c1.2,0.3,2.1,1.1,2.6,2.2c0.3,0.1,0.7,0.2,1.1,0.2C206.8,57.5,208.2,56.5,209.9,56.1"/>
	<path fill="#EF689E" d="M210.4,54.9c-0.2,0.4-0.4,0.8-0.5,1.2c0.1,0,0.2-0.1,0.4-0.1C210.4,55.6,210.4,55.3,210.4,54.9
		C210.4,54.9,210.4,54.9,210.4,54.9"/>
	<path fill="#EF689E" d="M263.7,45.1c-0.9-1.4-2.4-2.3-4.1-2.3c-1.8,0-3.3,1-4.2,2.4c1.3-0.5,2.8-0.7,4.3-0.7
		C261.2,44.5,262.5,44.7,263.7,45.1"/>
	<path fill="#937BB3" d="M188.2,58.5c0.9-0.9,1.5-2.1,1.5-3.5c0-0.2,0-0.3,0-0.5c-2-0.7-3.5-2.3-4.2-4.3c-0.2,0-0.4,0-0.6,0
		c0,0,0,0-0.1,0v7.5C186,57.6,187.2,57.9,188.2,58.5"/>
	<path fill="#EF689E" d="M191.1,61.4c0.6,1,0.9,2.2,0.9,3.5c0,1.1-0.3,2.2-0.7,3.2c0.9,0.5,1.7,1.1,2.4,1.7c0.7-2.5,2.4-4.5,4.6-5.6
		c-0.7-0.6-1.2-1.5-1.4-2.5c-0.9-0.5-2-0.8-3.2-0.8C192.7,60.8,191.9,61,191.1,61.4"/>
	<path fill="#EF689E" d="M188.3,71.1c0.9,1.3,2.2,2.2,3.8,2.6c0.4-0.1,0.9-0.2,1.3-0.3c-0.1-0.5-0.1-0.9-0.1-1.4
		c0-0.8,0.1-1.5,0.3-2.3c-0.7-0.7-1.5-1.3-2.4-1.7C190.6,69.3,189.6,70.4,188.3,71.1"/>
	<path fill="#74509F" d="M202.3,56.8c-0.4-0.1-0.8-0.2-1.2-0.2c-2.4,0-4.3,1.9-4.3,4.3c0,0.2,0,0.4,0.1,0.7c0.9,0.5,1.7,1.3,2.3,2.2
		c0.9-0.3,1.9-0.5,2.9-0.5c0.8,0,1.6,0.1,2.4,0.3c0.2-0.3,0.4-0.6,0.6-1c0.1-0.6,0.2-1.2,0.4-1.8c0-0.7-0.2-1.3-0.4-1.8
		C203.8,58.7,202.8,57.9,202.3,56.8"/>
	<path fill="#74509F" d="M204.9,59c-0.5-1.1-1.5-1.9-2.6-2.2C202.8,57.9,203.8,58.7,204.9,59"/>
	<path fill="#74509F" d="M198.2,64.2c0.3-0.1,0.6-0.3,0.9-0.4c-0.6-0.9-1.4-1.6-2.3-2.2C197,62.6,197.5,63.5,198.2,64.2"/>
	<path fill="#F395BA" d="M185.5,50.2c2.2,0.3,4,2.1,4.2,4.3c0.8,0.3,1.6,0.5,2.5,0.5c0.6,0,1.1-0.1,1.6-0.2c0.3-1.3,1.4-2.2,2.7-2.2
		c0.3,0,0.6,0,0.9,0.1c0,0,0,0,0,0c-0.7-0.5-1.1-1.3-1.1-2.2c0-1.5,1.2-2.8,2.8-2.8c0.1,0,0.2,0,0.3,0c0-0.2,0-0.3,0-0.5
		c-0.5,0.3-1.2,0.5-1.8,0.5c-2.1,0-3.8-1.7-3.8-3.8c0-1.1,0.5-2.1,1.2-2.8c-0.8-0.3-1.7-0.5-2.7-0.5c-0.8,0-1.5,0.1-2.2,0.4
		c-2.7,1-4.4,3.2-5,6.5c0,0.1,0,0.3,0,0.4C185,48.6,185.2,49.4,185.5,50.2"/>
	<path fill="#ED408E" d="M197.5,52.7c-0.3-0.1-0.6-0.1-0.9-0.1c-1.3,0-2.5,0.9-2.7,2.2C195.3,54.4,196.5,53.7,197.5,52.7"/>
	<path fill="#ED408E" d="M199.4,47.7c-0.1,0-0.2,0-0.3,0c-1.5,0-2.8,1.2-2.8,2.8c0,0.9,0.4,1.7,1.1,2.2
		C198.7,51.4,199.4,49.6,199.4,47.7L199.4,47.7"/>
	<path fill="#74509F" d="M195,41c-0.7,0.7-1.2,1.7-1.2,2.8c0,2.1,1.7,3.8,3.8,3.8c0.7,0,1.3-0.2,1.9-0.5
		C199.2,44.4,197.4,42.1,195,41"/>
	<path fill="#5E318D" d="M185.5,50.2c0.7,2,2.3,3.6,4.2,4.3C189.5,52.2,187.7,50.4,185.5,50.2"/>
	<path fill="#937BB3" d="M273,57.5c0-0.2,0-0.4,0-0.5h-0.1c0,0.2,0,0.5,0,0.7c0,5.6-3.5,10.3-8.3,12.2c0.4,1.3,0.6,2.6,0.7,3.9
		c4.3,1,7.5,4.8,7.7,9.4h0c0-0.1,0-0.2,0-0.3V57.5z"/>
	<path fill="#F395BA" d="M263.8,45.1C263.8,45.1,263.8,45.1,263.8,45.1l0,0.1C263.8,45.2,263.8,45.2,263.8,45.1"/>
	<path fill="#F395BA" d="M268.2,50.8c-1.3,0-2.4-1.1-2.4-2.4c0-0.7,0.3-1.4,0.9-1.8c-0.3,0.1-0.6,0.2-0.9,0.2
		c-0.6,0-1.1-0.3-1.5-0.7c0.2,0.5,0.3,1.1,0.3,1.7c0,2.7-2.2,4.8-4.8,4.8c-2.7,0-4.8-2.2-4.8-4.8c0-0.2,0-0.5,0.1-0.7
		c-0.5,1.6-2,2.7-3.7,2.7c-0.6,0-1.1-0.1-1.6-0.3c-0.1,0.1-0.1,0.2-0.2,0.3c0.3,0.2,0.6,0.4,0.8,0.7c0.6-0.4,1.4-0.6,2.1-0.6
		c2.4,0,4.3,1.9,4.3,4.3c0,1.6-0.9,3.1-2.3,3.8c2.9,1.4,5.3,3.5,7.2,6c2.2-4,6.5-6.7,11.3-6.8c-0.1-2.7-1.1-5.2-2.7-7.3
		C269.8,50.3,269.1,50.8,268.2,50.8"/>
	<path fill="#F395BA" d="M255,46.3c0.1-0.4,0.3-0.7,0.5-1c-0.2,0-0.3,0.1-0.4,0.2c0,0.1,0,0.2,0,0.4C255.1,45.9,255.1,46.1,255,46.3
		"/>
	<path fill="#ED408E" d="M254.9,47c0,0.2-0.1,0.5-0.1,0.7c0,2.7,2.2,4.8,4.8,4.8s4.8-2.2,4.8-4.8c0-0.6-0.1-1.1-0.3-1.7
		c-0.2-0.2-0.3-0.5-0.4-0.8l-0.1-0.1c-1.2-0.4-2.6-0.6-3.9-0.6c-1.5,0-3,0.3-4.3,0.7c-0.2,0.3-0.3,0.7-0.5,1
		C255,46.5,255,46.7,254.9,47"/>
	<path fill="#F395BA" d="M261.6,63.7c1.3,1.8,2.4,3.9,3,6.2c4.9-1.9,8.3-6.7,8.3-12.2c0-0.2,0-0.5,0-0.7
		C268.1,57,263.8,59.7,261.6,63.7"/>
	<path fill="#74509F" d="M187.2,66.8c0.2-2.4,1.7-4.5,3.9-5.4c-0.7-1.2-1.7-2.2-2.9-2.9c-0.9,0.8-2,1.3-3.3,1.3c0,0,0,0-0.1,0v7
		c0.4-0.1,0.8-0.1,1.2-0.1C186.4,66.7,186.8,66.8,187.2,66.8"/>
	<path fill="#74509F" d="M187.1,67.4c0-0.2,0-0.4,0-0.6c-0.4,0-0.7-0.1-1.1-0.1c-0.4,0-0.8,0-1.2,0.1V72c1.3,0,2.4-0.4,3.5-0.9
		C187.6,70,187.1,68.7,187.1,67.4"/>
	<path fill="#5E318D" d="M188.2,58.5c-1-0.5-2.1-0.9-3.4-0.9v2.2c0,0,0,0,0.1,0C186.2,59.8,187.3,59.3,188.2,58.5"/>
	<path fill="#5E318D" d="M187.2,66.8c1.5,0.1,2.8,0.6,4,1.2c0.5-1,0.7-2,0.7-3.2c0-1.3-0.3-2.4-0.9-3.5
		C188.9,62.3,187.4,64.4,187.2,66.8"/>
	<path fill="#5E318D" d="M187.1,67.4c0,1.4,0.4,2.7,1.2,3.7c1.2-0.7,2.3-1.8,2.9-3.1c-1.2-0.7-2.6-1.1-4-1.2
		C187.1,67,187.1,67.2,187.1,67.4"/>
	<path fill="#B0A0C6" d="M201.1,65.2c-0.4,0-0.9-0.1-1.3-0.2c0.3,0.7,0.4,1.5,0.4,2.3c0,2.7-1.7,5.1-4.1,6.1c3.9,0.5,7.1,3.3,8.3,7
		c0.1,0,0.3-0.1,0.4-0.1V64.9c0-0.4,0-0.8,0-1.1c-0.2-0.1-0.3-0.1-0.5-0.2C203.6,64.6,202.4,65.2,201.1,65.2"/>
	<path fill="#937BB3" d="M193.6,69.8c1.1,1,1.9,2.3,2.5,3.7c0,0,0,0,0.1,0c2.4-1,4.1-3.3,4.1-6.1c0-0.8-0.2-1.6-0.4-2.3
		c-0.6-0.2-1.1-0.5-1.6-0.9C196,65.3,194.3,67.3,193.6,69.8"/>
	<path fill="#937BB3" d="M193.4,73.4c0.5-0.1,0.9-0.1,1.4-0.1c0.4,0,0.9,0,1.3,0.1c-0.6-1.4-1.5-2.6-2.5-3.7
		c-0.2,0.7-0.3,1.5-0.3,2.3C193.3,72.5,193.3,73,193.4,73.4"/>
	<path fill="#5E318D" d="M201.1,65.2c1.4,0,2.6-0.6,3.4-1.6c-0.8-0.2-1.6-0.3-2.4-0.3c-1,0-2,0.2-2.9,0.5c0.3,0.4,0.5,0.8,0.6,1.3
		C200.2,65.2,200.6,65.2,201.1,65.2"/>
	<path fill="#5E318D" d="M199.8,65c-0.2-0.4-0.4-0.9-0.6-1.3c-0.3,0.1-0.6,0.2-0.9,0.4C198.7,64.6,199.2,64.9,199.8,65"/>
	<path fill="#B0A0C6" d="M219.4,86.2c0-0.1-0.1-0.2-0.1-0.3C219.3,86,219.4,86.1,219.4,86.2"/>
	<path fill="#B0A0C6" d="M222.9,75.7c-1.6-0.3-2.9-1.1-3.9-2.2v9.2c0,0.6,0,1.2,0.1,1.8c0-0.3,0-0.6,0-0.9
		C219,80.3,220.5,77.5,222.9,75.7"/>
	<path fill="#B0A0C6" d="M219.5,86.6c0,0.1,0.1,0.3,0.1,0.4h0C219.6,86.9,219.6,86.8,219.5,86.6"/>
	<path fill="#B0A0C6" d="M219.2,85.1c0-0.1,0-0.2,0-0.3C219.1,84.9,219.1,85,219.2,85.1"/>
	<path fill="#74509F" d="M248.2,54.8c0.1,0.4,0.2,0.8,0.4,1.2c2.1,0.3,4,0.9,5.8,1.8c1.3-0.7,2.3-2.1,2.3-3.8c0-2.4-1.9-4.3-4.3-4.3
		c-0.8,0-1.5,0.2-2.1,0.6c0.4,0.5,0.6,1.1,0.6,1.8C250.9,53.5,249.7,54.7,248.2,54.8"/>
	<path fill="#937BB3" d="M255.1,45.4c-0.2-2-1.8-3.5-3.8-3.5c-2.1,0-3.9,1.7-3.9,3.9c0,1.6,0.9,2.9,2.3,3.5
		C251.1,47.6,252.9,46.2,255.1,45.4"/>
	<path fill="#74509F" d="M254.9,47c0-0.2,0.1-0.5,0.2-0.7c0-0.2,0-0.3,0-0.5c0-0.1,0-0.3,0-0.4c-2.1,0.8-4,2.2-5.4,3.9
		c0.5,0.2,1,0.3,1.6,0.3C252.9,49.6,254.4,48.5,254.9,47"/>
	<path fill="#937BB3" d="M254.9,47c0.1-0.2,0.1-0.5,0.2-0.7C255,46.5,254.9,46.7,254.9,47"/>
	<path fill="#937BB3" d="M235.3,59c1.8-1.2,3.7-2.1,5.8-2.6c0-0.1,0-0.2,0-0.3c0-2.4-1.9-4.3-4.3-4.3c-2.1,0-3.8,1.5-4.2,3.4
		C233.8,56.3,234.7,57.6,235.3,59"/>
	<path fill="#937BB3" d="M234.4,59.6c0.3-0.2,0.6-0.4,0.9-0.6c-0.6-1.4-1.5-2.7-2.7-3.8c-0.1,0.3-0.1,0.6-0.1,0.8
		C232.5,57.6,233.3,58.8,234.4,59.6"/>
	<path fill="#937BB3" d="M209.6,43.8c0,1.1,0.9,1.9,1.9,1.9c1.1,0,1.9-0.9,1.9-1.9c0-1-0.8-1.9-1.9-1.9c-0.3,0-0.5,0.1-0.8,0.2
		c-0.1,0-0.2,0.1-0.3,0.2C210,42.6,209.6,43.2,209.6,43.8"/>
	<path fill="#5E318D" d="M215.5,49.3c0,1,0.9,1.9,1.9,1.9c1.1,0,1.9-0.9,1.9-1.9c0-1.1-0.8-1.9-1.9-1.9
		C216.4,47.4,215.5,48.2,215.5,49.3"/>
	<path fill="#74509F" d="M240.6,51.4c0,1,0.9,1.9,1.9,1.9s1.9-0.9,1.9-1.9c0-1-0.9-1.9-1.9-1.9S240.6,50.4,240.6,51.4"/>
	<path fill="#5E318D" d="M241.7,46c0-0.7-0.6-1.3-1.3-1.3c-0.7,0-1.3,0.6-1.3,1.3c0,0.7,0.6,1.3,1.3,1.3
		C241.1,47.2,241.7,46.7,241.7,46"/>
	<path fill="#937BB3" d="M218.3,41c0,0.7,0.6,1.3,1.3,1.3c0.7,0,1.3-0.6,1.3-1.3c0-0.5-0.3-0.9-0.7-1.1c-0.4,0-0.8,0-1.2,0
		C218.6,40.1,218.3,40.5,218.3,41"/>
	<path fill="#EF689E" d="M238.2,50.9c1.1,0,1.9-0.8,1.9-1.9c0-1-0.9-1.9-1.9-1.9c-0.5,0-1,0.2-1.3,0.5c-0.1,0.1-0.2,0.2-0.3,0.3
		c-0.2,0.3-0.3,0.7-0.3,1C236.3,50,237.1,50.9,238.2,50.9"/>
	<path fill="#937BB3" d="M263.8,44.9c0,0.1,0,0.2,0,0.3c1,0.3,2,0.8,2.9,1.3c0.1-0.1,0.2-0.1,0.3-0.2c0.4-0.3,0.6-0.8,0.6-1.4
		c0-0.5-0.2-0.9-0.5-1.2c-0.2-0.2-0.5-0.4-0.7-0.5c-0.2-0.1-0.5-0.2-0.7-0.2C264.6,42.9,263.8,43.8,263.8,44.9"/>
	<path fill="#74509F" d="M264.2,46c0.3,0.4,0.9,0.7,1.5,0.7c0.3,0,0.6-0.1,0.9-0.2c0,0,0.1-0.1,0.1-0.1c-0.9-0.5-1.9-1-2.9-1.3
		c0,0,0,0.1,0,0.1C264,45.5,264.1,45.7,264.2,46"/>
	<path fill="#937BB3" d="M264.2,46c-0.1-0.3-0.2-0.5-0.4-0.8C263.9,45.5,264,45.8,264.2,46"/>
	<path fill="#EF689E" d="M270.2,49.7c0.2-0.4,0.4-0.8,0.4-1.3c0-1.3-1.1-2.4-2.4-2.4c-0.4,0-0.9,0.1-1.2,0.3
		c-0.1,0.1-0.2,0.2-0.3,0.2C268.1,47.3,269.3,48.4,270.2,49.7"/>
	<path fill="#ED408E" d="M266.7,46.5c0,0-0.1,0-0.1,0.1c-0.5,0.4-0.9,1.1-0.9,1.8c0,1.3,1.1,2.4,2.4,2.4c0.9,0,1.6-0.5,2.1-1.1
		C269.3,48.4,268.1,47.3,266.7,46.5"/>
	<path fill="#EF689E" d="M267,46.3c-0.1,0.1-0.2,0.1-0.3,0.2c0,0,0,0,0,0C266.8,46.4,266.9,46.3,267,46.3"/>
	<path fill="#EF689E" d="M266.7,46.5C266.7,46.5,266.7,46.5,266.7,46.5c-0.1,0-0.1,0-0.1,0.1C266.6,46.5,266.7,46.5,266.7,46.5"/>
	<path fill="#ED408E" d="M242.9,44c0,1.3,1.1,2.4,2.4,2.4c1.3,0,2.4-1.1,2.4-2.4c0-1.3-1.1-2.4-2.4-2.4c-0.3,0-0.5,0.1-0.8,0.1
		c-0.2,0.1-0.3,0.1-0.4,0.2C243.3,42.3,242.9,43.1,242.9,44"/>
	<path fill="#937BB3" d="M255.8,44c1.2,0,2.1-0.9,2.1-2.1s-1-2.1-2.1-2.1c-1.2,0-2.1,0.9-2.1,2.1S254.6,44,255.8,44"/>
	<path fill="#EF689E" d="M215.6,43.4c0.8,0,1.5-0.7,1.5-1.5c0-0.8-0.7-1.5-1.5-1.5c-0.8,0-1.5,0.7-1.5,1.5
		C214.2,42.7,214.8,43.4,215.6,43.4"/>
	<path fill="#EF689E" d="M219.5,47.1c0.8,0,1.5-0.7,1.5-1.5c0-0.8-0.7-1.5-1.5-1.5c-0.8,0-1.5,0.7-1.5,1.5
		C218.1,46.4,218.7,47.1,219.5,47.1"/>
	<path fill="#EF689E" d="M224,44.2c0.8,0,1.5-0.7,1.5-1.5c0-0.8-0.7-1.5-1.5-1.5c-0.8,0-1.5,0.7-1.5,1.5
		C222.5,43.5,223.2,44.2,224,44.2"/>
	<path fill="#EF689E" d="M202,80.8c-1.9,0-3.7-0.6-5.1-1.7c-0.7,5.3-5.1,9.4-10.6,9.5c1.2,2,3.1,3.5,5.4,4.2c0.9,0.3,1.9,0.4,3,0.4
		c1.6,0,3.1-0.3,4.4-0.9c2.4-1.2,4.3-3.3,5.2-5.9c0-0.1,0.1-0.2,0.1-0.3c0,0,0-0.1,0-0.1c0.2-0.9,0.4-1.8,0.4-2.9
		c0-1-0.2-1.9-0.4-2.8C203.7,80.6,202.9,80.8,202,80.8"/>
	<path fill="#EF689E" d="M193.5,73.9c-0.5,0-1-0.1-1.4-0.2c-4.1,1.2-7.2,4.9-7.3,9.4c0,1.3,0.2,2.4,0.5,3.4c0.2,0.7,0.6,1.4,1,2
		c5.4-0.1,9.9-4.2,10.6-9.5C195.2,77.8,194,76,193.5,73.9"/>
	<path fill="#EF689E" d="M192.1,73.7c0.5,0.1,0.9,0.2,1.4,0.2c0-0.2-0.1-0.3-0.1-0.5C193,73.5,192.5,73.6,192.1,73.7"/>
	<path fill="#ED408E" d="M197,77.7c0,0.5,0,0.9-0.1,1.4c1.4,1.1,3.2,1.7,5.1,1.7c0.8,0,1.6-0.1,2.4-0.3c-1.1-3.7-4.3-6.5-8.3-7
		c0,0,0,0,0,0C196.7,74.7,197,76.2,197,77.7"/>
	<path fill="#ED408E" d="M196.1,73.4c-0.8,0.3-1.6,0.5-2.5,0.5c-0.1,0-0.1,0-0.2,0c0.5,2.1,1.7,3.9,3.4,5.2c0.1-0.5,0.1-0.9,0.1-1.4
		C197,76.2,196.7,74.7,196.1,73.4"/>
	<path fill="#EF689E" d="M196.1,73.4C196.2,73.4,196.2,73.4,196.1,73.4C196.2,73.4,196.2,73.4,196.1,73.4
		C196.1,73.4,196.1,73.4,196.1,73.4"/>
	<path fill="#ED408E" d="M193.4,73.4c0,0.2,0,0.3,0.1,0.5c0.1,0,0.1,0,0.2,0c0.9,0,1.7-0.2,2.5-0.5c0,0,0,0,0,0
		c-0.4-0.1-0.8-0.1-1.3-0.1C194.4,73.3,193.9,73.4,193.4,73.4"/>
	<path fill="#74509F" d="M227.9,82.1c-1.4,2.9-4.4,5-7.9,5c-0.1,0-0.2,0-0.3,0c0.8,2.2,2.4,4,4.5,5.2c1.4,0.7,3,1,4.8,1
		c1.7,0,3.2-0.3,4.4-0.8c0.7-0.3,1.3-0.7,1.8-1.2C231.9,89.1,229.3,85.9,227.9,82.1"/>
	<path fill="#74509F" d="M224,75.8c-0.4,0-0.8,0-1.1-0.1c-2.4,1.8-3.9,4.7-3.9,7.9c0,0.3,0,0.6,0,0.9c0,0.1,0,0.2,0.1,0.4
		c0,0.1,0,0.2,0,0.3c0,0.3,0.1,0.5,0.2,0.8c0,0.1,0,0.2,0.1,0.3c0,0.2,0.1,0.3,0.1,0.4c0,0.1,0.1,0.3,0.2,0.4c0.1,0,0.2,0,0.3,0
		c3.5,0,6.5-2,7.9-5c-0.8-2.1-1.3-4.4-1.3-6.8C225.8,75.6,224.9,75.8,224,75.8"/>
	<path fill="#ED408E" d="M273,83.2c-3.1,0-6-1.2-8.3-3c-1.2,4.6-4.1,8.5-7.9,11.1c0.2,0.1,0.4,0.3,0.6,0.4c1.6,1,3.5,1.5,5.7,1.5
		c2.1,0,3.9-0.5,5.3-1.3c2.2-1.4,3.8-3.6,4.4-6.1c0-0.2,0.1-0.3,0.1-0.5c0-0.1,0-0.3,0.1-0.5c0-0.2,0-0.3,0.1-0.5c0-0.3,0-0.6,0-0.9
		C273,83.4,273,83.3,273,83.2"/>
	<path fill="#ED408E" d="M264.7,80.2c2.3,1.9,5.1,3,8.3,3c-0.1-4.6-3.4-8.4-7.7-9.4c0,0.4,0,0.9,0,1.3
		C265.3,76.9,265.1,78.6,264.7,80.2"/>
	<path fill="#937BB3" d="M253.2,85C253.2,85,253.2,85,253.2,85C253.2,85,253.2,85,253.2,85"/>
	<path fill="#937BB3" d="M253.9,87.5c0.6,1.6,1.6,2.8,2.9,3.8c0,0,0,0,0,0C255.5,90.3,254.5,89,253.9,87.5"/>
	<path fill="#74509F" d="M260.5,73.9c-0.3-1-0.5-2-0.5-3.1c0,0-0.1,0-0.2,0c-2.5,0-4.8-0.7-6.8-1.9v13.7c0,0.6,0,1.2,0.1,1.7
		c0-0.3,0-0.6,0-0.8C253,78.9,256.2,75,260.5,73.9"/>
	<path fill="#937BB3" d="M246,55.8c-1.7,0-3.3,0.2-4.9,0.6c-0.2,2.2-2,4-4.3,4c-0.4,0-0.8-0.1-1.2-0.2c0.2,0.9,0.4,1.8,0.4,2.7
		c0,4.2-2.6,7.9-6.2,9.5c-0.3,0.4-0.6,0.9-0.9,1.2h0c5.4,0,9.8,4.3,9.9,9.7c0-0.1,0-0.3,0-0.4V65.2C238.9,58.9,241.1,55.8,246,55.8
		c0.3,0.1,0.6,0.1,0.8,0.1c0,0,0,0,0-0.1C246.5,55.8,246.3,55.8,246,55.8"/>
	<path fill="#937BB3" d="M253.8,87.2c0-0.1-0.1-0.2-0.1-0.3C253.7,87,253.7,87.1,253.8,87.2"/>
	<path fill="#5E318D" d="M229.4,65.2c0.8,1.1,1.3,2.5,1.3,3.9c0,1.2-0.3,2.3-0.8,3.2c3.7-1.6,6.2-5.2,6.2-9.5c0-0.9-0.1-1.8-0.4-2.7
		c-0.5-0.1-0.9-0.3-1.3-0.6C232.4,61.1,230.7,63,229.4,65.2"/>
	<path fill="#74509F" d="M260.5,73.9c0.8-0.2,1.6-0.3,2.5-0.3c0.8,0,1.5,0.1,2.3,0.3c-0.1-1.4-0.3-2.7-0.7-3.9
		c-1.4,0.6-3,0.9-4.6,0.9C260,71.9,260.2,72.9,260.5,73.9"/>
	<path fill="#5E318D" d="M260,70.8c0-0.2,0-0.5,0-0.7c0-2.3,0.6-4.5,1.7-6.4c-1.9-2.5-4.3-4.6-7.2-6c-0.6,0.3-1.3,0.5-2,0.5
		c-0.3,0-0.6,0-0.9-0.1c1.1,1.5,1.5,3.8,1.5,6.9v3.9c2,1.2,4.3,1.9,6.8,1.9C259.9,70.8,259.9,70.8,260,70.8"/>
	<path fill="#5E318D" d="M260,70.1c0,0.2,0,0.5,0,0.7c1.6,0,3.2-0.3,4.6-0.9c-0.6-2.3-1.7-4.3-3-6.2C260.6,65.6,260,67.8,260,70.1"
		/>
	<path fill="#5E318D" d="M248.8,56.2c1.1,0.4,2,1,2.7,1.9c0.3,0.1,0.6,0.1,0.9,0.1c0.7,0,1.4-0.2,2-0.5c-1.8-0.9-3.8-1.5-5.8-1.7
		C248.6,56.1,248.7,56.1,248.8,56.2"/>
	<path fill="#74509F" d="M235.7,60.2c0.4,0.1,0.8,0.2,1.2,0.2c2.3,0,4.1-1.7,4.3-4c-2.1,0.5-4.1,1.4-5.8,2.6
		C235.4,59.4,235.6,59.8,235.7,60.2"/>
	<path fill="#74509F" d="M234.4,59.6c0.4,0.3,0.8,0.5,1.3,0.6c-0.1-0.4-0.2-0.8-0.4-1.2C235,59.2,234.7,59.4,234.4,59.6"/>
	<path fill="#5E318D" d="M229,73.6L229,73.6c-0.3,0.4-0.7,0.7-1.1,1c0.5,1.1,0.9,2.4,0.9,3.8c0,1.4-0.3,2.6-0.9,3.8
		c1.4,3.8,4,7,7.3,9.2c1.7-1.3,2.9-3.2,3.4-5.3c0.2-0.8,0.3-1.7,0.3-2.7C238.8,77.9,234.4,73.6,229,73.6"/>
	<path fill="#5E318D" d="M227.8,74.5c-0.4,0.3-0.8,0.5-1.3,0.7c0,2.4,0.5,4.7,1.3,6.8c0.6-1.1,0.9-2.4,0.9-3.8
		C228.7,77,228.4,75.7,227.8,74.5"/>
	<path fill="#5E318D" d="M260.5,73.9c-4.3,1.1-7.5,5-7.5,9.6c0,0.3,0,0.5,0,0.8c0,0.2,0,0.4,0.1,0.6c0,0,0,0,0,0.1
		c0.1,0.7,0.3,1.3,0.5,1.9c0,0.1,0.1,0.2,0.1,0.3c0,0.1,0.1,0.2,0.1,0.3c0.7,1.5,1.6,2.8,2.9,3.8c3.8-2.6,6.7-6.5,7.9-11.1
		C262.7,78.6,261.3,76.4,260.5,73.9"/>
	<path fill="#5E318D" d="M260.5,73.9c0.8,2.5,2.2,4.7,4.2,6.3c0.4-1.6,0.7-3.3,0.7-5c0-0.5,0-0.9,0-1.4c-0.7-0.2-1.5-0.3-2.3-0.3
		C262.1,73.5,261.3,73.7,260.5,73.9"/>
	<path fill="#EF689E" d="M226.7,72.8c0.3-2.8,1.3-5.3,2.6-7.6c-1.2-1.6-3.2-2.7-5.4-2.7c-2,0-3.9,0.9-5.1,2.4c0,0.3,0,0.6,0,0.9v4
		c0.3,0,0.7-0.1,1-0.1C222.7,69.6,225.1,70.8,226.7,72.8"/>
	<path fill="#EF689E" d="M222.9,75.7c1.1-0.8,2.4-1.5,3.8-1.8c0-0.2,0-0.5,0.1-0.7c-0.3,0-0.6,0-0.9,0c-2.6,0-5-1-6.8-2.6v2.8
		C219.9,74.6,221.3,75.4,222.9,75.7"/>
	<path fill="#EF689E" d="M226.7,73.1c0-0.1,0-0.2,0-0.4c-1.6-2-4-3.2-6.8-3.2c-0.3,0-0.7,0-1,0.1v1c1.8,1.6,4.2,2.6,6.8,2.6
		C226.1,73.2,226.4,73.2,226.7,73.1"/>
	<path fill="#EF689E" d="M226.6,73.9c-1.4,0.3-2.7,1-3.8,1.8c0.4,0.1,0.7,0.1,1.1,0.1c0.9,0,1.8-0.2,2.6-0.5c0,0,0-0.1,0-0.1
		C226.6,74.7,226.6,74.3,226.6,73.9"/>
	<path fill="#ED408E" d="M227.4,73.7c0.5-0.1,1-0.1,1.5-0.1c0.3-0.4,0.6-0.8,0.9-1.2c-0.9,0.4-1.9,0.6-2.8,0.8
		C227.1,73.3,227.3,73.5,227.4,73.7"/>
	<path fill="#ED408E" d="M229.4,65.2c-1.4,2.3-2.3,4.9-2.6,7.6c0.1,0.1,0.2,0.2,0.2,0.3c1-0.1,2-0.4,2.9-0.8c0.5-1,0.8-2.1,0.8-3.2
		C230.7,67.6,230.2,66.3,229.4,65.2"/>
	<path fill="#ED408E" d="M227,73.1c-0.1,0-0.2,0-0.3,0c0,0.2,0,0.5-0.1,0.7c0.3-0.1,0.5-0.1,0.8-0.1C227.3,73.5,227.1,73.3,227,73.1
		"/>
	<path fill="#ED408E" d="M226.7,72.8c0,0.1,0,0.2,0,0.4c0.1,0,0.2,0,0.3,0C226.9,73,226.8,72.9,226.7,72.8"/>
	<path fill="#ED408E" d="M227.8,74.5c0.4-0.3,0.8-0.6,1.1-1c-0.5,0-1,0.1-1.5,0.1C227.6,74,227.7,74.3,227.8,74.5"/>
	<path fill="#ED408E" d="M226.6,73.9c0,0.4,0,0.9,0,1.3c0,0,0,0.1,0,0.1c0.5-0.2,0.9-0.4,1.3-0.7c-0.1-0.3-0.3-0.6-0.4-0.8
		C227.1,73.8,226.9,73.8,226.6,73.9"/>
	<path fill="#EF689E" d="M248.1,49.2c-1.5,0-2.8,1.2-2.8,2.8c0,1.2,0.7,2.1,1.7,2.6c0.5-1.8,1.3-3.5,2.4-5
		C249.1,49.4,248.6,49.2,248.1,49.2"/>
	<path fill="#EF689E" d="M248.2,54.8c-0.1-0.3-0.1-0.5-0.1-0.8c0-1.6,0.9-3,2.1-3.7c-0.2-0.3-0.5-0.5-0.8-0.7c-1.1,1.5-2,3.1-2.4,5
		C247.4,54.7,247.7,54.8,248.2,54.8L248.2,54.8"/>
	<path fill="#ED408E" d="M248.1,53.9c0,0.3,0,0.6,0.1,0.8c1.5,0,2.7-1.3,2.7-2.8c0-0.7-0.2-1.3-0.6-1.8
		C249,51,248.1,52.4,248.1,53.9"/>
</g>
</svg>
