<?xml version="1.0" encoding="utf-8"?>
<!-- Generator: Adobe Illustrator 13.0.0, SVG Export Plug-In . SVG Version: 6.00 Build 14948)  -->
<!DOCTYPE svg PUBLIC "-//W3C//DTD SVG 1.1//EN" "http://www.w3.org/Graphics/SVG/1.1/DTD/svg11.dtd">
<svg version="1.1" id="Entrepreneurial_Spark" xmlns="http://www.w3.org/2000/svg" xmlns:xlink="http://www.w3.org/1999/xlink"
	 x="0px" y="0px" width="390px" height="150px" viewBox="0 0 390 150" enable-background="new 0 0 390 150" xml:space="preserve">
<path fill="#401664" d="M341.1,95.8c2.4,0,4.3,0.8,5.8,2.5c2.2,2.5,2.5,6.1,2.2,8.8l0,0.2h-12.1c0.1,1.3,0.7,4.5,5.1,4.5
	c2.2,0,4.1-0.7,5.1-1.3l0.4-0.2v4l-0.1,0.1c-1.4,0.6-2.8,1.3-5.9,1.3c-1.5,0-8.9-0.5-8.9-9.8C332.5,97.9,337.9,95.8,341.1,95.8
	 M344.8,103.7c-0.1-1.6-1-4.1-3.9-4.1c-2.7,0-3.9,2.3-4,4.1H344.8z"/>
<path fill="#EF4035" d="M40.4,56.9c0,0.9-0.8,1.7-1.7,1.7H30v-8.7c0-0.9,0.8-1.7,1.7-1.7h8.7V56.9z"/>
<path fill="#003876" d="M68.2,50.7c0-0.3,0-0.6,0.1-0.9c0.5-2.2,2-3.4,4.4-3.4H79c2.6,0,4,1.2,4.3,3.7c0,0.2,0,0.4,0,0.8v3.7
	l-10.5,4l0,0.3c0,0.8,0.3,1.3,0.9,1.3h9.6v4.7H73.2c-1.2,0-2.1-0.2-2.8-0.5c-1.5-0.8-2.2-2.2-2.2-4.2V50.7z M78.7,52.2V52
	c-0.1-0.4-0.4-0.6-0.9-0.7c-0.1,0-0.1,0-0.2,0h-3.2c-0.7,0-1.1,0.2-1.4,0.7c-0.1,0.1-0.1,0.3-0.1,0.5v1.9L78.7,52.2z"/>
<path fill="#003876" d="M86.4,64.7v-14c0-0.2,0-0.5,0.1-0.8c0.3-2.4,1.8-3.5,4.3-3.5h6.5c2.5,0,4,1.2,4.3,3.5c0,0.3,0.1,0.6,0.1,0.8
	v14H97V52.3c0-0.1,0-0.2,0-0.3c-0.1-0.7-0.6-1-1.5-1h-2.9c-0.9,0-1.4,0.3-1.5,1v12.7H86.4z"/>
<polygon fill="#003876" points="104.8,64.7 104.8,39.5 109.5,39.5 109.5,46.4 112.6,46.4 112.6,51.1 109.5,51.1 109.5,64.7 "/>
<path fill="#003876" d="M114.4,51.1c0-3.1,1.6-4.7,4.7-4.7h3.1v4.7h-2c-0.8,0.1-1.2,0.4-1.2,1v12.7h-4.7V51.1z"/>
<path fill="#003876" d="M124,50.7c0-0.3,0-0.6,0.1-0.9c0.5-2.2,2-3.4,4.4-3.4h6.3c2.6,0,4,1.2,4.3,3.7c0,0.2,0,0.4,0,0.8v3.7
	l-10.5,4l0,0.3c0,0.8,0.3,1.3,0.9,1.3h9.6v4.7H129c-1.2,0-2.1-0.2-2.8-0.5c-1.5-0.8-2.2-2.2-2.2-4.2V50.7z M134.5,52.2V52
	c-0.1-0.4-0.4-0.6-0.9-0.7c-0.1,0-0.1,0-0.2,0h-3.2c-0.7,0-1.1,0.2-1.4,0.7c-0.1,0.1-0.1,0.3-0.1,0.5v1.9L134.5,52.2z"/>
<path fill="#003876" d="M142.2,71.6V51.3c0-0.2,0-0.5,0.1-0.9c0.3-2.2,1.4-3.5,3.5-3.9c0.3,0,0.5-0.1,0.6-0.1h6.7
	c0.3,0,0.6,0,0.9,0.1c2.4,0.4,3.5,2,3.5,4.6v9.5c0,0.8-0.3,1.6-0.8,2.3c-0.1,0.1-0.3,0.3-0.5,0.6c-0.9,0.8-1.9,1.3-3,1.3h-6.3v6.9
	h-1.2H142.2z M146.9,58.9c0.1,0.6,0.5,1,1.2,1.1c0,0,0.1,0,0.3,0h3.5c0.3-0.1,0.5-0.2,0.7-0.4c0.2-0.3,0.3-0.5,0.3-0.7v-7
	c-0.1-0.5-0.4-0.8-0.9-0.9c0,0-0.1,0-0.2,0h-3.6c-0.5,0-0.9,0.3-1.2,0.8c-0.1,0.2-0.2,0.4-0.2,0.6v6.2
	C146.9,58.8,146.9,58.9,146.9,58.9"/>
<path fill="#003876" d="M160.7,51.1c0-3.1,1.6-4.7,4.7-4.7h3.1v4.7h-2c-0.8,0.1-1.2,0.4-1.2,1v12.7h-4.7V51.1z"/>
<path fill="#003876" d="M170.4,50.7c0-0.3,0-0.6,0.1-0.9c0.5-2.2,2-3.4,4.4-3.4h6.3c2.6,0,4,1.2,4.3,3.7c0,0.2,0,0.4,0,0.8v3.7
	l-10.5,4l0,0.3c0,0.8,0.3,1.3,0.9,1.3h9.6v4.7h-10.2c-1.2,0-2.1-0.2-2.8-0.5c-1.5-0.8-2.2-2.2-2.2-4.2V50.7z M180.9,52.2V52
	c-0.1-0.4-0.4-0.6-0.9-0.7c-0.1,0-0.2,0-0.2,0h-3.2c-0.7,0-1.1,0.2-1.4,0.7c-0.1,0.1-0.1,0.3-0.1,0.5v1.9L180.9,52.2z"/>
<path fill="#003876" d="M188.6,64.7v-14c0-0.2,0-0.5,0.1-0.8c0.4-2.4,1.8-3.5,4.3-3.5h6.5c2.5,0,4,1.2,4.3,3.5
	c0,0.3,0.1,0.6,0.1,0.8v14h-4.7V52.3c0-0.1,0-0.2,0-0.3c-0.1-0.7-0.6-1-1.5-1h-2.9c-0.9,0-1.4,0.3-1.5,1v12.7H188.6z"/>
<path fill="#003876" d="M207,50.7c0-0.3,0-0.6,0.1-0.9c0.5-2.2,2-3.4,4.4-3.4h6.3c2.6,0,4,1.2,4.3,3.7c0,0.2,0,0.4,0,0.8v3.7
	l-10.5,4l0,0.3c0,0.8,0.3,1.3,0.9,1.3h9.6v4.7H212c-1.2,0-2.1-0.2-2.8-0.5c-1.5-0.8-2.2-2.2-2.2-4.2V50.7z M217.6,52.2V52
	c-0.1-0.4-0.4-0.6-0.9-0.7c-0.1,0-0.1,0-0.2,0h-3.2c-0.7,0-1.1,0.2-1.4,0.7c-0.1,0.1-0.1,0.3-0.1,0.5v1.9L217.6,52.2z"/>
<path fill="#003876" d="M225.3,60.4v-14h4.7V59c0.1,0.7,0.6,1,1.5,1h2.9c0.9,0,1.4-0.3,1.5-1c0-0.1,0-0.2,0-0.3V46.4h4.7v14
	c0,0.2,0,0.5-0.1,0.8c-0.4,2.4-1.8,3.5-4.3,3.5h-6.5c-2.5,0-4-1.2-4.3-3.5C225.3,60.9,225.3,60.6,225.3,60.4"/>
<path fill="#003876" d="M243.7,51.1c0-3.1,1.6-4.7,4.7-4.7h3.1v4.7h-2c-0.8,0.1-1.2,0.4-1.2,1v12.7h-4.7V51.1z"/>
<path fill="#003876" d="M252.7,41.7c0-0.8,0.2-1.6,0.8-2.1c0.6-0.6,1.3-0.9,2.1-0.9c0.8,0,1.5,0.3,2,0.9c0.6,0.6,0.9,1.3,0.9,2
	c0,0.8-0.3,1.5-0.9,2.1c-0.6,0.6-1.3,0.8-2.1,0.8c-0.8,0-1.5-0.3-2-0.8C253.1,43.1,252.8,42.5,252.7,41.7 M253.3,64.7 M253.3,46.4
	h4.7v18.4h-4.7V46.4z"/>
<path fill="#003876" d="M261.2,60.6v-3.7c0-1.4,0.4-2.4,1.2-3.2c0.8-0.8,1.9-1.1,3.3-1.1h6.2v-1c0-0.4-0.4-0.6-1-0.7h-9.7v-4.4h10.7
	c0.1,0,0.4,0,0.8,0.1c2.2,0.3,3.4,1.4,3.8,3.4c0,0.3,0.1,0.5,0.1,0.8v9.8c0,0.3,0,0.6-0.1,0.8c-0.2,1-0.7,1.9-1.4,2.5
	c-0.7,0.6-1.6,0.9-2.7,0.9h-6.4c-2.7,0-4.3-1.1-4.7-3.3C261.3,61.2,261.3,61,261.2,60.6 M266.1,59.8c0.2,0.2,0.4,0.3,0.7,0.4
	c0.1,0,0.1,0,0.2,0h3.6c0.8,0,1.2-0.4,1.2-1v-1.3c0-0.4-0.2-0.8-0.6-0.9c-0.1-0.1-0.3-0.1-0.6-0.1h-4.1c-0.4,0.1-0.6,0.4-0.7,0.9
	v1.4C265.8,59.4,265.9,59.6,266.1,59.8"/>
<rect x="279.7" y="39.5" fill="#003876" width="4.7" height="25.2"/>
<path fill="#EF4035" d="M297.2,64.7V60h8.3c0.5-0.1,0.8-0.3,0.9-0.7c0,0,0-0.1,0-0.2v-0.4c0-0.5-0.3-0.8-0.8-0.9h-4
	c-0.7,0-1.4-0.2-2-0.5c-1.6-0.9-2.4-2-2.4-3.4v-3.4c0-0.3,0-0.7,0.1-1.1c0.5-2.1,1.9-3.1,4.4-3.1h9.3l0.1,4.7h-8.5
	c-0.1,0-0.2,0.1-0.4,0.1c-0.3,0.3-0.5,0.6-0.5,0.7v0.4c0,0.5,0.4,0.7,1.1,0.9h4.1c1,0,2,0.4,2.8,1.3c0.8,0.8,1.2,1.8,1.2,2.8v3.4
	c0,0.7-0.2,1.5-0.6,2.2c-0.4,0.7-0.9,1.2-1.6,1.5c-0.5,0.3-1.2,0.4-2.1,0.4H297.2z"/>
<path fill="#EF4035" d="M314.2,71.6V51.3c0-0.2,0-0.5,0.1-0.9c0.3-2.2,1.4-3.5,3.5-3.9c0.3,0,0.5-0.1,0.6-0.1h6.7
	c0.3,0,0.6,0,0.9,0.1c2.4,0.4,3.5,2,3.5,4.6v9.5c0,0.8-0.3,1.6-0.8,2.3c-0.1,0.1-0.3,0.3-0.5,0.6c-0.9,0.8-1.9,1.3-3,1.3h-6.3v6.9
	h-1.2H314.2z M318.9,58.9c0.1,0.6,0.5,1,1.2,1.1c0,0,0.1,0,0.3,0h3.5c0.3-0.1,0.5-0.2,0.7-0.4c0.2-0.3,0.3-0.5,0.3-0.7v-7
	c-0.1-0.5-0.4-0.8-0.9-0.9c0,0-0.1,0-0.2,0h-3.6c-0.5,0-0.9,0.3-1.2,0.8c-0.1,0.2-0.2,0.4-0.2,0.6v6.2
	C318.9,58.8,318.9,58.9,318.9,58.9"/>
<path fill="#EF4035" d="M332.8,60.6v-3.7c0-1.4,0.4-2.4,1.2-3.2c0.8-0.8,1.9-1.1,3.3-1.1h6.2v-1c0-0.4-0.4-0.6-1-0.7h-9.7v-4.4h10.7
	c0.1,0,0.4,0,0.8,0.1c2.2,0.3,3.4,1.4,3.8,3.4c0,0.3,0.1,0.5,0.1,0.8v9.8c0,0.3,0,0.6-0.1,0.8c-0.2,1-0.7,1.9-1.4,2.5
	c-0.7,0.6-1.6,0.9-2.7,0.9h-6.4c-2.7,0-4.3-1.1-4.7-3.3C332.9,61.2,332.8,61,332.8,60.6 M337.7,59.8c0.2,0.2,0.4,0.3,0.7,0.4
	c0.1,0,0.2,0,0.2,0h3.6c0.8,0,1.2-0.4,1.2-1v-1.3c0-0.4-0.2-0.8-0.6-0.9c-0.1-0.1-0.3-0.1-0.6-0.1h-4.1c-0.4,0.1-0.6,0.4-0.7,0.9
	v1.4C337.4,59.4,337.5,59.6,337.7,59.8"/>
<path fill="#EF4035" d="M351.3,51.1c0-3.1,1.6-4.7,4.7-4.7h3.1v4.7h-2c-0.8,0.1-1.2,0.4-1.2,1v12.7h-4.7V51.1z"/>
<path fill="#EF4035" d="M360.9,64.7 M360.9,39.5h4.7v25.2h-4.7V39.5z M366.2,53.7l4.3-7.3h5.4l-5.2,8.9l5.8,9.5h-5.5l-4.9-8.1
	c-0.3-0.5-0.4-1.1-0.3-1.8C365.8,54.4,366,54,366.2,53.7"/>
<path fill="#003876" d="M22.1,60.9h-9.7V37.3c0,0-0.4-2.2,1.4-4.6c1.8-2.3,5.4-2.1,5.4-2.1H58v9.8l-31-0.1c0,0-2.9-0.4-4,0.8
	c-1,1.1-1,3.1-1,3.1C22.1,49.6,22.1,60.9,22.1,60.9"/>
<path fill="#003876" d="M48.3,45.7H58v23.6c0,0,0.4,2.2-1.4,4.6c-1.8,2.3-5.4,2.1-5.4,2.1H12.4v-9.8l31,0.1c0,0,2.9,0.4,4-0.8
	c1-1.1,1-3.1,1-3.1C48.3,57,48.3,45.7,48.3,45.7"/>
<rect x="287.8" y="52.2" fill="#EF4035" width="6.5" height="6.5"/>
<path fill="#401664" d="M285.1,96.1c2.2,0,7.4,0.6,7.4,6.5v12.8h-4.2c0,0,0-1.4,0-1.5c-1.2,1-2.6,1.9-4.9,1.9
	c-3.3,0-6.7-2.2-6.7-6.4c0-3,2.4-6.3,7.6-6.3h3.9c0-1.8-0.2-3.2-3.9-3.2c-1.5,0-3.8,0.5-4.8,0.9l-0.4,0.2v-3.8l0.2-0.1
	C280.9,96.5,283,96.1,285.1,96.1 M288.3,106.9h-3.7c-2.3,0-3.6,0.9-3.6,2.6c0,1.6,1.2,2.6,3,2.6c2.3,0,3.9-1.6,4.3-2.2V106.9z"/>
<polygon fill="#401664" points="259.7,115.5 259.7,98 270.6,115.5 274.6,115.5 274.6,90.5 270.5,90.5 270.5,108 259.7,90.5 
	255.6,90.5 255.6,115.5 "/>
<path fill="#401664" d="M372.6,96.5v-6.3l-4.2,1.5v4.8h-2.7v0.8c0,1.2,0,2.5,0,2.7l0,0.3h2.7l0,10.6c0,4.7,3.5,5,4.6,5
	c1.6,0,2.6-0.1,3.9-0.4l0.2,0v-3.7l-0.3,0.1c-0.3,0.1-1,0.3-1.9,0.3c-1.5,0-2.3-0.3-2.3-2.1v-9.7h4.5c0,0,0-3.6,0-3.7H372.6z"/>
<path fill="#401664" d="M360.9,104.6l-0.5-0.2c-0.5-0.2-1.1-0.5-1.8-0.8l-0.2-0.1c-1-0.5-2.3-1-2.3-2.1c0-1.4,2-1.5,2.6-1.5
	c1.7,0,3.2,0.4,4.9,1.2l0.4,0.2v-4l-0.1-0.1c-0.9-0.4-3.1-1-5.3-1c-5.4,0-6.8,3.5-6.8,5.3c0,3.5,2.6,4.6,3.7,5.1
	c1.2,0.5,1.9,0.8,2.7,1.2l0.6,0.3c1.7,0.7,2.3,1.1,2.3,2.2c0,1.2-1.1,1.9-3,1.9c-2.1,0-4.3-0.8-5.6-1.5l-0.4-0.2v4.1l0.1,0.1
	c1.6,0.8,3.9,1.3,6,1.3c4.7,0,7.2-2.9,7.2-5.7C365.3,107.5,364.1,106,360.9,104.6"/>
<path fill="#401664" d="M329.1,90.5c-0.1,0.6-3.1,16.8-3.1,17c0-0.2-3.9-15.4-4.3-17h-4.1l-4.2,17l-3.4-17h-4.4l5.2,25h4.2l4.5-17.4
	l4.4,17.4h4.3l5-25H329.1z"/>
<path fill="#401664" d="M300.6,96.5v-6.3l-4.2,1.5v4.8h-2.7l0,0.8c0,1.2,0,2.5,0,2.7l0,0.3h2.7v10.6c0,4.7,3.5,5,4.6,5
	c1.6,0,2.6-0.1,3.9-0.4l0.2,0v-3.7l-0.3,0.1c-0.3,0.1-1,0.3-1.9,0.3c-1.5,0-2.3-0.3-2.3-2.1v-9.7h4.5c0,0,0-3.6,0-3.7H300.6z"/>
<path fill="#EC1B2E" d="M228.3,90.5c-0.3,0-0.6,0.2-0.8,0.5l-3.8,6.5c0,0.1,0,0.2,0,0.2c0,0.1,0.1,0.1,0.2,0.1l7,0
	c0.6,0,1.2,0.3,1.5,0.8l3.5,6.1c0,0.1,0.1,0.1,0.2,0.1c0.1,0,0.2,0,0.2-0.1l3.8-6.5c0.1-0.3,0.2-0.6,0-0.9l-3.6-6.3
	c-0.2-0.3-0.5-0.5-0.9-0.5H228.3z"/>
<path fill="#EC1B2E" d="M221.5,115c0.2,0.3,0.5,0.5,0.8,0.5l7.5,0c0.1,0,0.2,0,0.2-0.1c0-0.1,0-0.2,0-0.2l-3.5-6.1
	c-0.3-0.5-0.3-1.2,0-1.7l3.5-6.1c0-0.1,0-0.2,0-0.2c0-0.1-0.1-0.1-0.2-0.1l-7.5,0c-0.3,0-0.6,0.2-0.8,0.5l-3.6,6.3
	c-0.2,0.3-0.2,0.7,0,1L221.5,115z"/>
<path fill="#EC1B2E" d="M246.2,108.6c0.2-0.3,0.2-0.6,0-0.9l-3.8-6.5c0-0.1-0.1-0.1-0.2-0.1c-0.1,0-0.2,0-0.2,0.1l-3.5,6.1
	c-0.3,0.5-0.9,0.9-1.4,0.9l-7,0c-0.1,0-0.2,0-0.2,0.1c0,0.1,0,0.2,0,0.2l3.8,6.5c0.2,0.3,0.5,0.4,0.8,0.4h7.3c0.3,0,0.7-0.2,0.9-0.5
	L246.2,108.6z"/>
<g>
	<path fill="#401664" d="M102.3,99.6c3.5,0,5,2.1,5,4.8c0,2.8-1.6,5-5,5h-3.5v5.4h-2.1V99.6H102.3z M98.8,107.4h3.3c2,0,3-1.1,3-3.1
		c0-1.7-0.8-2.8-3-2.8h-3.3V107.4z"/>
	<path fill="#401664" d="M118.6,109.6c0,3.2-1.9,5.4-5.2,5.4s-5.2-2.2-5.2-5.4c0-3.2,1.9-5.4,5.2-5.4S118.6,106.4,118.6,109.6z
		 M110.3,109.6c0,2.2,1.2,3.6,3.2,3.6c1.9,0,3.2-1.4,3.2-3.6c0-2.2-1.2-3.6-3.2-3.6C111.5,106,110.3,107.4,110.3,109.6z"/>
	<path fill="#401664" d="M132.5,114.8h-2.3l-2.5-8.2l-2.5,8.2H123l-3.6-10.3h2.1l2.6,8.6l2.4-8.6h2.3l2.5,8.5l2.3-8.5h2L132.5,114.8
		z"/>
	<path fill="#401664" d="M146.3,110.2h-7.9c0.2,2,1.5,3.2,3.4,3.2c1.3,0,2.3-0.6,3-1.5l1.5,0.9c-0.9,1.5-2.5,2.3-4.5,2.3
		c-3.4,0-5.3-2.2-5.3-5.4c0-3.2,1.9-5.4,5-5.4c3.1,0,4.9,2.2,4.9,5.3C146.3,109.7,146.3,109.9,146.3,110.2z M138.5,108.5h5.8
		c-0.3-1.6-1.3-2.5-2.9-2.5C139.7,105.9,138.8,107,138.5,108.5z"/>
	<path fill="#401664" d="M155.8,104.9l-0.9,1.7c-0.6-0.3-1.2-0.4-1.7-0.4c-1,0-2,0.6-2.7,2.1v6.5h-1.9v-10.3h1.9v1.5
		c0.5-0.8,1.4-1.7,3-1.7C154.2,104.2,155,104.4,155.8,104.9z"/>
	<path fill="#401664" d="M166,110.2H158c0.2,2,1.5,3.2,3.4,3.2c1.3,0,2.3-0.6,3-1.5l1.5,0.9c-0.9,1.5-2.5,2.3-4.5,2.3
		c-3.4,0-5.3-2.2-5.3-5.4c0-3.2,1.9-5.4,5-5.4c3.1,0,4.9,2.2,4.9,5.3C166,109.7,166,109.9,166,110.2z M158.1,108.5h5.8
		c-0.3-1.6-1.3-2.5-2.9-2.5C159.4,105.9,158.4,107,158.1,108.5z"/>
	<path fill="#401664" d="M175.7,114.8v-0.9c-0.7,0.8-1.6,1.2-3,1.2c-3.1,0-5.1-2.2-5.1-5.4c0-3.2,2-5.4,5.1-5.4c1.3,0,2.3,0.4,3,1.2
		v-6.2h1.9v15.6H175.7z M169.7,109.6c0,2.2,1.2,3.6,3.2,3.6c1.2,0,2.2-0.6,2.8-1.5v-4.1c-0.6-0.9-1.6-1.5-2.8-1.5
		C170.9,106,169.7,107.4,169.7,109.6z"/>
	<path fill="#401664" d="M189.1,105.4c0.7-0.8,1.6-1.2,3-1.2c3.1,0,5.1,2.2,5.1,5.4c0,3.2-2,5.4-5.1,5.4c-1.3,0-2.3-0.4-3-1.2v0.9
		h-1.9V99.2h1.9V105.4z M189.1,107.6v4.1c0.6,0.9,1.6,1.5,2.8,1.5c2,0,3.2-1.4,3.2-3.6c0-2.2-1.2-3.6-3.2-3.6
		C190.6,106,189.6,106.6,189.1,107.6z"/>
	<path fill="#401664" d="M202.1,119.9H200l2.3-5l-4.5-10.5h2.2l3.3,8.1l3.1-8.1h2.1L202.1,119.9z"/>
</g>
</svg>
