<?xml version="1.0" encoding="utf-8"?>
<!-- Generator: Adobe Illustrator 13.0.0, SVG Export Plug-In . SVG Version: 6.00 Build 14948)  -->
<!DOCTYPE svg PUBLIC "-//W3C//DTD SVG 1.1//EN" "http://www.w3.org/Graphics/SVG/1.1/DTD/svg11.dtd">
<svg version="1.1" id="Innovation_Birmingham" xmlns="http://www.w3.org/2000/svg" xmlns:xlink="http://www.w3.org/1999/xlink"
	 x="0px" y="0px" width="390px" height="150px" viewBox="0 0 390 150" enable-background="new 0 0 390 150" xml:space="preserve">
<g>
	<g>
		<path fill="#42B5E3" d="M245.2,77.9c0,0,136.5-4.3,65,16.6c-2.8,0.8-32.7,11.3-32.7,11.3l-46.8,4.1c0,0,73.3-18.9,78.7-21
			C335.4,79,245.2,77.9,245.2,77.9"/>
		<path fill="#B5BF36" d="M290.4,103.6c0,0,26-8.4,28.9-9.7c13.2-5.6-56.7-12.7-56.7-12.7s79.5,4.3,67.7,13.7
			c-1.8,1.4-9.3,5.7-9.3,5.7L290.4,103.6z"/>
		<path fill="#6B2975" d="M178.2,107.9c0,0,133.2-25.5,135.5-26c32.5-6.3-58.1-7.2-58.1-7.2s116.9-3.1,63.2,9.5
			c-2.5,0.6,5.1-0.2-85.3,20.6L178.2,107.9z"/>
	</g>
	<polygon fill="#B5BF36" points="235.7,50.4 235.7,33.2 206.8,33.3 206.9,61.6 215.3,59.5 215.3,88.9 235.7,74.4 235.7,60.7 
		230.9,55.9 	"/>
	<polygon fill="#8C5291" points="207,61.6 196.8,64.2 196.8,105.3 215.3,121.1 215.3,88.9 207,94.9 	"/>
	<polygon fill="#6B2975" points="215.3,59.5 206.9,61.6 206.9,95 215.3,88.9 	"/>
	<polygon fill="#8C5291" points="215.3,41.8 215.3,55.7 196.8,60.7 196.8,47.6 	"/>
	<polygon fill="#6B2975" points="215.3,41.9 206.8,44.5 206.9,58 215.3,55.7 	"/>
	<rect x="241.5" y="46.4" fill="#6B2975" width="2.2" height="10"/>
	<g>
		<path fill="#6B2975" d="M253,56.4l-4-5.3c-0.3-0.4-0.6-0.8-0.9-1.2h0c0,0.3,0,1,0,1.4v5.1h-2.2v-10h2.2l3.9,5
			c0.3,0.4,0.6,0.8,0.9,1.2h0c0-0.5,0-1.2,0-1.6v-4.6h2.2v10H253z"/>
		<path fill="#6B2975" d="M264.3,56.4l-4-5.3c-0.3-0.4-0.6-0.8-0.9-1.2h0c0,0.3,0,1,0,1.4v5.1h-2.2v-10h2.2l3.9,5
			c0.3,0.4,0.6,0.8,0.9,1.2h0c0-0.5,0-1.2,0-1.6v-4.6h2.2v10H264.3z"/>
		<path fill="#6B2975" d="M273.2,48.1c-1.5,0-2.7,1.2-2.7,3.3c0,2.1,1.2,3.3,2.7,3.3c1.5,0,2.7-1.2,2.7-3.3
			C275.9,49.3,274.7,48.1,273.2,48.1 M276.9,55c-0.9,1-2.2,1.5-3.7,1.5c-1.5,0-2.6-0.4-3.5-1.2c-1-0.9-1.5-2.3-1.5-3.8
			c0-1.5,0.5-2.8,1.4-3.7c0.9-0.9,2.1-1.5,3.6-1.5c1.6,0,2.9,0.6,3.8,1.5c0.8,0.9,1.2,2.2,1.2,3.5C278.2,52.8,277.8,54.1,276.9,55"
			/>
		<path fill="#6B2975" d="M284.4,56.4h-1.7l-4-10h2.5l1.8,5c0.3,0.7,0.5,1.4,0.7,1.9h0c0.2-0.5,0.4-1.2,0.7-1.8l2-5h2.3L284.4,56.4z
			"/>
		<path fill="#6B2975" d="M292.8,50.6c-0.2-0.5-0.3-0.9-0.4-1.2h0c-0.1,0.3-0.2,0.8-0.4,1.2l-0.6,1.6h1.8L292.8,50.6z M294.9,56.4
			L294,54h-3.1l-0.9,2.4h-2.2l3.8-10h1.8l4,10H294.9z"/>
	</g>
	<polygon fill="#6B2975" points="304.5,48.2 302,48.2 302,56.4 299.7,56.4 299.7,48.2 296.9,48.2 296.9,46.4 305,46.4 	"/>
	<rect x="306.3" y="46.4" fill="#6B2975" width="2.2" height="10"/>
	<g>
		<path fill="#6B2975" d="M315.4,48.1c-1.5,0-2.7,1.2-2.7,3.3c0,2.1,1.2,3.3,2.7,3.3c1.5,0,2.7-1.2,2.7-3.3
			C318,49.3,316.8,48.1,315.4,48.1 M319.1,55c-0.9,1-2.2,1.5-3.7,1.5c-1.5,0-2.6-0.4-3.5-1.2c-1-0.9-1.5-2.3-1.5-3.8
			c0-1.5,0.5-2.8,1.4-3.7c0.9-0.9,2.1-1.5,3.6-1.5c1.6,0,2.9,0.6,3.8,1.5c0.8,0.9,1.2,2.2,1.2,3.5C320.4,52.8,319.9,54.1,319.1,55"
			/>
		<path fill="#6B2975" d="M329.3,56.4l-4-5.3c-0.3-0.4-0.6-0.8-0.9-1.2h0c0,0.3,0,1,0,1.4v5.1h-2.2v-10h2.2l3.9,5
			c0.3,0.4,0.6,0.8,0.9,1.2h0c0-0.5,0-1.2,0-1.6v-4.6h2.2v10H329.3z"/>
		<path fill="#6B2975" d="M244.1,64.6h-1.4v3.3h1.3c1.3,0,2-0.7,2-1.7C246,65.3,245.3,64.6,244.1,64.6 M242.7,60.3v3.1h1.2
			c0.8,0,1.6-0.6,1.6-1.6c0-0.9-0.5-1.5-1.7-1.5H242.7z M244,69.1h-2.6v-10h2.8c1.8,0,2.6,1.3,2.6,2.4c0,1-0.4,1.8-1.3,2.2v0
			c1,0.2,1.9,1.1,1.9,2.4C247.4,67.5,246.6,69.1,244,69.1"/>
	</g>
	<rect x="250" y="59.1" fill="#6B2975" width="1.3" height="10"/>
	<g>
		<path fill="#6B2975" d="M256.6,60.3h-0.9v3.5h1c1.1,0,1.8-0.8,1.8-1.8C258.4,61.1,258,60.3,256.6,60.3 M259.4,69.1
			c-1.5-2.6-2.4-4-2.8-4.1h-1v4.1h-1.3v-10h2.2c2.3,0,3.3,1.2,3.3,2.7c0,1.4-0.9,2.3-1.8,2.7v0c0.4,0.2,1.4,2,2.9,4.6H259.4z"/>
		<path fill="#6B2975" d="M271,69.1v-6.8c0-0.4,0-0.6,0-1.1h0c-0.2,0.4-0.4,0.7-0.5,1l-2.4,3.9h-0.8l-2.5-4c-0.2-0.3-0.3-0.5-0.5-1
			h0c0.1,0.5,0.1,0.7,0.1,1v6.8H263v-10h1.3l2.9,4.5c0.2,0.4,0.4,0.7,0.5,0.9h0c0.1-0.3,0.2-0.5,0.5-1l2.7-4.5h1.3v10H271z"/>
	</g>
	<rect x="275.4" y="59.1" fill="#6B2975" width="1.3" height="10"/>
	<g>
		<path fill="#6B2975" d="M286.8,69.1l-4.7-6.4c-0.5-0.7-0.8-1.1-1-1.5h0c0,0.3,0,0.7,0,1.2v6.7h-1.3v-10h1.3l4.5,6.2
			c0.6,0.8,0.9,1.2,1.1,1.6h0c0-0.4,0-0.8,0-1.3v-6.5h1.3v10H286.8z"/>
		<path fill="#6B2975" d="M295.4,69.2c-2.9,0-4.8-2.1-4.8-5c0-3.1,2.1-5.2,5.1-5.2c1.2,0,2.2,0.3,2.7,0.6l0,1.4
			c-0.6-0.3-1.6-0.8-2.7-0.8c-2.5,0-3.8,1.6-3.8,3.9c0,2.4,1.4,4,3.7,4c0.8,0,1.4-0.1,1.7-0.4v-3.5h1.3v4.2
			C298.1,68.8,296.9,69.2,295.4,69.2"/>
	</g>
	<polygon fill="#6B2975" points="308.1,69.1 308.1,64.6 303,64.6 303,69.1 301.7,69.1 301.7,59.1 303,59.1 303,63.4 308.1,63.4 
		308.1,59.1 309.4,59.1 309.4,69.1 	"/>
	<g>
		<path fill="#6B2975" d="M316.1,62.3c-0.2-0.5-0.3-0.9-0.4-1.2h0c-0.1,0.4-0.2,0.7-0.4,1.2l-1.1,3h2.8L316.1,62.3z M318.5,69.1
			l-1-2.6h-3.7l-0.9,2.6h-1.3l3.7-10h0.8l3.8,10H318.5z"/>
		<path fill="#6B2975" d="M330,69.1v-6.8c0-0.4,0-0.6,0-1.1h0c-0.2,0.4-0.4,0.7-0.5,1l-2.4,3.9h-0.8l-2.5-4c-0.2-0.3-0.3-0.5-0.5-1
			h0c0.1,0.5,0.1,0.7,0.1,1v6.8H322v-10h1.3l2.9,4.5c0.2,0.4,0.4,0.7,0.5,0.9h0c0.1-0.3,0.2-0.5,0.5-1l2.7-4.5h1.3v10H330z"/>
	</g>
</g>
<g>
	<defs>
		<path id="SVGID_1_" d="M57.7,75c0,34.7,28.1,62.8,62.8,62.8c34.7,0,62.8-28.1,62.8-62.8c0-34.7-28.1-62.8-62.8-62.8
			C85.8,12.2,57.7,40.3,57.7,75"/>
	</defs>
	<clipPath id="SVGID_2_">
		<use xlink:href="#SVGID_1_"  overflow="visible"/>
	</clipPath>
	<path clip-path="url(#SVGID_2_)" fill="#E0E9F3" d="M183.3,75c0,34.7-28.1,62.8-62.8,62.8c-34.7,0-62.8-28.1-62.8-62.8
		c0-34.7,28.1-62.8,62.8-62.8C155.2,12.2,183.3,40.3,183.3,75"/>
	<path clip-path="url(#SVGID_2_)" fill="#FFFFFF" d="M177,75.4c0,5.4-4.3,9.7-9.7,9.7c-5.4,0-9.7-4.3-9.7-9.7c0-5.4,4.3-9.7,9.7-9.7
		C172.7,65.7,177,70,177,75.4"/>
	<path clip-path="url(#SVGID_2_)" fill="#DAE5E1" d="M86.3,84.8c-9.5,0-17.2-7.7-17.2-17.2c0-7.3,4.5-13.5,10.9-16
		c0,0.2,0.1,0.3,0.1,0.5c-5.5,2.5-9.3,8-9.3,14.4c0,8.8,7.1,15.8,15.8,15.8c7.4,0,13.7-5.1,15.4-12c0.4,0,0.8,0.1,1.1,0.1
		C101.8,78.7,94.8,84.8,86.3,84.8 M87.8,63.7C87.8,63.7,87.8,63.7,87.8,63.7c-1.1-1.1-1.7-2.6-1.7-4.2c0-3.2,2.6-5.8,5.8-5.9h0
		c-3.2,0.1-5.8,2.7-5.8,5.9C86.1,61.1,86.7,62.6,87.8,63.7"/>
	<path clip-path="url(#SVGID_2_)" fill="#D4E1D4" d="M86.7,82.5c-8.8,0-15.8-7.1-15.8-15.8c0-6.4,3.8-11.9,9.3-14.4
		c0.1,0.3,0.2,0.6,0.3,0.9c-4.2,2.4-7.1,6.9-7.1,12.1c0,7.7,6.2,13.9,13.9,13.9c5.9,0,11-3.7,13-8.9c0.6,0.1,1.2,0.2,1.9,0.3
		C100.3,77.4,94.1,82.5,86.7,82.5"/>
	<path clip-path="url(#SVGID_2_)" fill="#CADDBD" d="M87.2,79.1c-7.7,0-13.9-6.2-13.9-13.9c0-5.2,2.9-9.8,7.1-12.1
		c0.1,0.2,0.1,0.4,0.2,0.6c-3.4,2.2-5.6,6-5.6,10.3c0,6.8,5.5,12.3,12.3,12.3c4.6,0,8.6-2.5,10.7-6.2c0.4,0,0.8,0,1.3-0.1
		c0.3,0.1,0.5,0.1,0.8,0.2C98.2,75.4,93.1,79.1,87.2,79.1"/>
	<path clip-path="url(#SVGID_2_)" fill="#CEE2F1" d="M91.8,53.6C91.8,53.6,91.9,53.6,91.8,53.6C91.9,53.6,91.9,53.6,91.8,53.6
		L91.8,53.6L91.8,53.6"/>
	<path clip-path="url(#SVGID_2_)" fill="#C8DFE2" d="M91.8,53.6C91.8,53.6,91.9,53.6,91.8,53.6C91.9,53.6,91.8,53.6,91.8,53.6
		L91.8,53.6z"/>
	<path clip-path="url(#SVGID_2_)" fill="#CEE2F1" d="M104.7,70.6c-0.5,0-1,0-1.5,0c0.1-0.4,0.1-0.9,0.2-1.3
		c6.8-2.3,11.7-8.7,11.7-16.3c0-9.5-7.7-17.2-17.2-17.2c-9,0-16.3,6.9-17.1,15.6c-0.3,0.1-0.5,0.2-0.8,0.3c-0.6-2.1-0.9-4.4-0.9-6.7
		c0-14.2,11.5-25.6,25.6-25.6c14.1,0,25.6,11.5,25.6,25.6C130.3,59.2,118.9,70.6,104.7,70.6"/>
	<path clip-path="url(#SVGID_2_)" fill="#C8DFE2" d="M103.2,70.6c-0.4,0-0.8-0.1-1.1-0.1c0.1-0.3,0.1-0.6,0.2-0.9
		c0.4-0.1,0.7-0.2,1.1-0.3C103.3,69.7,103.3,70.1,103.2,70.6 M80.1,52.2c0-0.2-0.1-0.3-0.1-0.5c0.3-0.1,0.5-0.2,0.8-0.3
		c0,0.2,0,0.4,0,0.5C80.5,52,80.3,52.1,80.1,52.2"/>
	<path clip-path="url(#SVGID_2_)" fill="#C2DBD5" d="M102,70.5c-0.6-0.1-1.3-0.2-1.9-0.3c0-0.1,0.1-0.2,0.1-0.3
		c0.7-0.1,1.3-0.2,2-0.4C102.2,69.9,102.1,70.2,102,70.5 M80.4,53.1c-0.1-0.3-0.2-0.6-0.3-0.9c0.2-0.1,0.4-0.2,0.6-0.3
		c0,0.3,0,0.7,0,1C80.6,53,80.5,53.1,80.4,53.1"/>
	<path clip-path="url(#SVGID_2_)" fill="#BBD8C2" d="M100.2,70.2c-0.3-0.1-0.5-0.1-0.8-0.2c0.3,0,0.6-0.1,0.9-0.1
		C100.2,70.1,100.2,70.1,100.2,70.2 M80.6,53.7c-0.1-0.2-0.1-0.4-0.2-0.6c0.1-0.1,0.2-0.1,0.3-0.2v0c0,0.2,0,0.4,0,0.6
		C80.7,53.7,80.6,53.7,80.6,53.7"/>
	<path clip-path="url(#SVGID_2_)" fill="#CEE2F1" d="M91.9,65.5c-1.6,0-3.1-0.7-4.1-1.8c1.1,1,2.5,1.7,4.1,1.7
		c1.6,0,3.1-0.6,4.1-1.7C95,64.7,93.5,65.4,91.9,65.5"/>
	<path clip-path="url(#SVGID_2_)" fill="#C8DFE2" d="M91.9,65.5c-1.6,0-3.1-0.7-4.1-1.8c0,0,0,0,0,0C88.8,64.7,90.3,65.4,91.9,65.5"
		/>
	<path clip-path="url(#SVGID_2_)" fill="#BBD8C2" d="M98.1,70.1c0.1-0.1,0.1-0.2,0.2-0.3c0.4,0.1,0.7,0.2,1.1,0.3
		C98.9,70.1,98.5,70.1,98.1,70.1"/>
	<path clip-path="url(#SVGID_2_)" fill="#BCDCF0" d="M103.4,69.2c0-0.4,0.1-0.7,0.1-1.1c5.6-2.5,9.4-8,9.4-14.5
		c0-8.8-7.1-15.8-15.8-15.8h0c-7.9,0-14.5,5.8-15.7,13.4c-0.2,0.1-0.4,0.1-0.6,0.2c0.8-8.8,8.1-15.6,17.1-15.6
		c9.5,0,17.2,7.7,17.2,17.2C115,60.5,110.1,66.9,103.4,69.2"/>
	<path clip-path="url(#SVGID_2_)" fill="#B9D9E2" d="M102.2,69.6c0.1-0.3,0.1-0.7,0.2-1c0.3-0.1,0.7-0.3,1-0.4c0,0.4,0,0.7-0.1,1.1
		C103,69.4,102.6,69.5,102.2,69.6 M80.7,52c0-0.2,0-0.4,0-0.5c0.2-0.1,0.4-0.1,0.6-0.2c0,0.2,0,0.3-0.1,0.5
		C81.1,51.8,80.9,51.9,80.7,52"/>
	<path clip-path="url(#SVGID_2_)" fill="#B2D6D6" d="M100.3,70c0.1-0.3,0.2-0.6,0.3-0.9c0.6-0.1,1.2-0.3,1.8-0.5
		c0,0.3-0.1,0.7-0.2,1C101.6,69.7,100.9,69.9,100.3,70 M80.7,52.9c0-0.3,0-0.7,0-1c0.2-0.1,0.4-0.1,0.5-0.2c0,0.3-0.1,0.6-0.1,0.9
		C81,52.8,80.9,52.9,80.7,52.9"/>
	<path clip-path="url(#SVGID_2_)" fill="#ABD4C5" d="M99.4,70.1c-0.4-0.1-0.7-0.2-1.1-0.3c0.1-0.1,0.1-0.2,0.2-0.4
		c0.7-0.1,1.4-0.2,2.1-0.3c-0.1,0.3-0.2,0.6-0.3,0.9C100,70,99.7,70,99.4,70.1 M80.7,53.6c0-0.2,0-0.4,0-0.6v0
		c0.2-0.1,0.3-0.2,0.5-0.2c0,0.2,0,0.4,0,0.7C81,53.4,80.9,53.5,80.7,53.6"/>
	<path clip-path="url(#SVGID_2_)" fill="#C8DFE2" d="M87.8,63.7c-1-1-1.7-2.3-1.8-3.8c0-0.1,0-0.2,0-0.4c0-3.3,2.6-5.9,5.9-5.9
		c-3.2,0.1-5.8,2.7-5.8,5.9C86.1,61.1,86.7,62.6,87.8,63.7"/>
	<path clip-path="url(#SVGID_2_)" fill="#B9D9E2" d="M86,59.9c0-0.1,0-0.2,0-0.4c0-3.3,2.6-5.9,5.9-5.9h0h-0.1
		c-3.2,0-5.9,2.7-5.9,5.9C86,59.6,86,59.8,86,59.9"/>
	<path clip-path="url(#SVGID_2_)" fill="#AFD6CE" d="M85.9,59.5L85.9,59.5c0-3.3,2.7-5.9,5.9-5.9C88.6,53.6,86,56.2,85.9,59.5"/>
	<path clip-path="url(#SVGID_2_)" fill="#B9D9E2" d="M91.8,65.5c-0.5,0-1-0.1-1.5-0.2c-2.4-0.7-4.2-2.8-4.3-5.4
		c0.1,1.5,0.8,2.8,1.8,3.8C88.8,64.7,90.3,65.4,91.8,65.5C91.9,65.5,91.8,65.5,91.8,65.5"/>
	<path clip-path="url(#SVGID_2_)" fill="#A9D4E2" d="M90.3,65.2c-1-0.3-1.9-0.8-2.6-1.5c-1.1-1.1-1.8-2.6-1.8-4.2v0
		c0,0.1,0,0.2,0,0.4C86.1,62.4,87.9,64.6,90.3,65.2"/>
	<path clip-path="url(#SVGID_2_)" fill="#A1D1CF" d="M87.7,63.8c-0.3-0.2-0.5-0.5-0.7-0.8c-0.7-1-1.1-2.2-1.1-3.4v0v0v0
		C85.9,61.2,86.6,62.7,87.7,63.8"/>
	<path clip-path="url(#SVGID_2_)" fill="#ACD7EF" d="M103.4,68.2c0-0.2,0-0.3,0-0.5c0-0.3,0-0.5,0-0.8c4.5-2.4,7.5-7.2,7.5-12.6
		c0-7.9-6.4-14.3-14.3-14.3c-6.7,0-12.4,4.7-13.9,10.9c-0.4,0.1-0.9,0.2-1.3,0.3c1.2-7.6,7.7-13.4,15.7-13.4h0
		c8.8,0,15.8,7.1,15.8,15.8C112.9,60.1,109,65.7,103.4,68.2"/>
	<path clip-path="url(#SVGID_2_)" fill="#A9D4E2" d="M102.4,68.6c0-0.4,0.1-0.8,0.1-1.2c0.3-0.1,0.6-0.3,0.9-0.5c0,0.3,0,0.5,0,0.8
		c0,0.2,0,0.3,0,0.5C103.1,68.3,102.7,68.4,102.4,68.6 M81.3,51.8c0-0.2,0-0.3,0.1-0.5c0.4-0.1,0.9-0.2,1.3-0.3
		c0,0.1-0.1,0.3-0.1,0.4C82.1,51.5,81.7,51.6,81.3,51.8"/>
	<path clip-path="url(#SVGID_2_)" fill="#A2D1D9" d="M100.6,69.1c0.1-0.4,0.2-0.7,0.3-1.1c0.6-0.2,1.1-0.4,1.7-0.6
		c0,0.4,0,0.8-0.1,1.2C101.8,68.8,101.2,69,100.6,69.1 M81.2,52.7c0-0.3,0-0.6,0.1-0.9c0.4-0.2,0.9-0.3,1.3-0.4
		c-0.1,0.3-0.1,0.6-0.1,0.8C82,52.3,81.6,52.5,81.2,52.7"/>
	<path clip-path="url(#SVGID_2_)" fill="#9ACEC8" d="M98.5,69.4c0.2-0.3,0.3-0.7,0.4-1c0.7-0.1,1.3-0.3,1.9-0.5
		c-0.1,0.4-0.2,0.8-0.3,1.1C99.9,69.3,99.2,69.4,98.5,69.4 M81.2,53.4c0-0.2,0-0.4,0-0.7c0.4-0.2,0.8-0.4,1.2-0.5
		c0,0.2-0.1,0.4-0.1,0.6C81.9,52.9,81.5,53.1,81.2,53.4"/>
	<path clip-path="url(#SVGID_2_)" fill="#CEE2F1" d="M96,63.7c1-1.1,1.7-2.5,1.7-4.1c0-3.2-2.6-5.8-5.8-5.9c0.3,0,0.6,0,0.9,0.1
		c2.8,0.5,4.9,2.9,5,5.8C97.8,61.1,97.1,62.6,96,63.7"/>
	<path clip-path="url(#SVGID_2_)" fill="#BCDCF0" d="M92.9,53.7c-0.3,0-0.6-0.1-0.9-0.1h0c0,0,0,0,0,0
		C92.2,53.6,92.6,53.6,92.9,53.7"/>
	<rect x="91.9" y="53.6" clip-path="url(#SVGID_2_)" fill="#B9D9E2" width="0" height="0"/>
	<path clip-path="url(#SVGID_2_)" fill="#BCDCF0" d="M91.9,65.5C91.9,65.5,91.9,65.5,91.9,65.5c1.6,0,3-0.7,4.1-1.8
		c1.1-1.1,1.8-2.6,1.8-4.2c0,0,0,0,0,0.1C97.8,62.8,95.2,65.4,91.9,65.5"/>
	<path clip-path="url(#SVGID_2_)" fill="#B9D9E2" d="M91.9,65.5C91.9,65.5,91.9,65.5,91.9,65.5C91.9,65.5,91.9,65.5,91.9,65.5"/>
	<polygon clip-path="url(#SVGID_2_)" fill="#A9D4E2" points="91.9,53.6 91.9,53.6 91.9,53.6 91.9,53.6 	"/>
	<polygon clip-path="url(#SVGID_2_)" fill="#A1D1CF" points="91.9,53.6 91.9,53.6 91.9,53.6 	"/>
	<path clip-path="url(#SVGID_2_)" fill="#A9D4E2" d="M91.9,65.5L91.9,65.5C91.8,65.5,91.9,65.5,91.9,65.5
		C91.9,65.5,91.9,65.5,91.9,65.5L91.9,65.5"/>
	<path clip-path="url(#SVGID_2_)" fill="#9ED2EE" d="M103.4,66.9c0-0.5-0.1-1-0.1-1.5c3.5-2.4,5.8-6.4,5.8-10.9
		c0-7.3-5.9-13.2-13.2-13.2h0c-6,0-11,4-12.6,9.5c-0.2,0-0.4,0.1-0.6,0.1C84.2,44.6,89.8,40,96.6,40c7.9,0,14.3,6.4,14.3,14.3
		C110.9,59.8,107.9,64.5,103.4,66.9"/>
	<path clip-path="url(#SVGID_2_)" fill="#98CFE1" d="M102.5,67.4c0-0.2,0-0.5,0-0.7c0-0.2,0-0.5,0-0.8c0.3-0.2,0.5-0.3,0.8-0.5
		c0.1,0.5,0.1,1,0.1,1.5C103.1,67.1,102.8,67.2,102.5,67.4 M82.6,51.4c0-0.1,0.1-0.3,0.1-0.4c0.2,0,0.4-0.1,0.6-0.1
		c0,0.1-0.1,0.3-0.1,0.4C82.9,51.3,82.7,51.3,82.6,51.4"/>
	<path clip-path="url(#SVGID_2_)" fill="#95CDD8" d="M100.8,68c0.1-0.4,0.2-0.9,0.2-1.4c0.5-0.2,1-0.5,1.5-0.7c0,0.2,0,0.5,0,0.8
		c0,0.2,0,0.5,0,0.7C102,67.6,101.4,67.8,100.8,68 M82.4,52.2c0-0.3,0.1-0.6,0.1-0.8c0.2,0,0.4-0.1,0.5-0.1C83,51.5,83,51.7,82.9,52
		C82.8,52.1,82.6,52.1,82.4,52.2"/>
	<path clip-path="url(#SVGID_2_)" fill="#8FCBCA" d="M98.9,68.4c0.1-0.4,0.3-0.8,0.4-1.2c0.6-0.2,1.2-0.4,1.7-0.6
		c0,0.5-0.1,0.9-0.2,1.4C100.2,68.2,99.6,68.3,98.9,68.4 M82.3,52.7c0-0.2,0-0.4,0.1-0.6c0.2-0.1,0.3-0.1,0.5-0.2
		c0,0.2-0.1,0.4-0.1,0.5C82.7,52.6,82.5,52.7,82.3,52.7"/>
	<path clip-path="url(#SVGID_2_)" fill="#81CCF0" d="M103.3,65.4c-0.1-0.4-0.1-0.8-0.2-1.2c2.7-2.2,4.4-5.6,4.4-9.4
		c0-6.7-5.5-12.2-12.2-12.2c-5.3,0-9.8,3.4-11.5,8.1c-0.2,0-0.3,0.1-0.5,0.1c1.6-5.5,6.7-9.5,12.6-9.5h0c7.3,0,13.2,5.9,13.2,13.2
		C109,59,106.8,63,103.3,65.4"/>
	<path clip-path="url(#SVGID_2_)" fill="#7FCAE5" d="M102.5,65.9c0-0.4-0.1-0.8-0.1-1.2c0.2-0.2,0.5-0.3,0.7-0.5
		c0.1,0.4,0.2,0.8,0.2,1.2C103,65.6,102.8,65.8,102.5,65.9 M83.1,51.2c0-0.1,0.1-0.3,0.1-0.4c0.2,0,0.3-0.1,0.5-0.1
		c0,0.1-0.1,0.3-0.1,0.4C83.4,51.1,83.3,51.2,83.1,51.2"/>
	<path clip-path="url(#SVGID_2_)" fill="#7BC8DD" d="M101,66.6c0-0.4,0.1-0.7,0.1-1.1c0.4-0.2,0.9-0.5,1.3-0.8
		c0,0.4,0.1,0.8,0.1,1.2C102,66.2,101.5,66.4,101,66.6 M82.9,52c0.1-0.3,0.1-0.5,0.2-0.8c0.2,0,0.3-0.1,0.5-0.1
		c-0.1,0.2-0.2,0.5-0.2,0.8C83.2,51.9,83.1,52,82.9,52"/>
	<path clip-path="url(#SVGID_2_)" fill="#71C4CF" d="M99.3,67.2c0.1-0.3,0.2-0.7,0.2-1c0.5-0.2,1.1-0.5,1.6-0.7c0,0.4,0,0.8-0.1,1.1
		C100.5,66.9,99.9,67.1,99.3,67.2 M82.8,52.5c0-0.2,0.1-0.4,0.1-0.5c0.1,0,0.3-0.1,0.4-0.1c0,0.2-0.1,0.3-0.1,0.5
		C83.1,52.4,83,52.5,82.8,52.5"/>
	<path clip-path="url(#SVGID_2_)" fill="#98D1E4" d="M91.8,65.5c-0.3,0-0.7,0-1-0.1c-0.2,0-0.3-0.1-0.5-0.1
		C90.8,65.4,91.3,65.4,91.8,65.5L91.8,65.5"/>
	<path clip-path="url(#SVGID_2_)" fill="#91CDD3" d="M91.8,65.5c-0.3,0-0.6,0-0.9-0.1c0,0,0,0-0.1,0C91.1,65.4,91.4,65.4,91.8,65.5"
		/>
	<path clip-path="url(#SVGID_2_)" fill="#89CDE5" d="M90.8,65.4c-1.2-0.2-2.2-0.8-3.1-1.6c0.7,0.7,1.6,1.2,2.6,1.5
		C90.5,65.3,90.6,65.3,90.8,65.4"/>
	<path clip-path="url(#SVGID_2_)" fill="#82C9D3" d="M90.8,65.4c-1.6-0.3-2.9-1.2-3.8-2.4c0.2,0.3,0.4,0.6,0.7,0.8
		C88.6,64.6,89.6,65.1,90.8,65.4C90.8,65.4,90.8,65.4,90.8,65.4"/>
	<path clip-path="url(#SVGID_2_)" fill="#9DD4F1" d="M92,65.5L92,65.5c3.2,0,5.8-2.7,5.8-5.9C97.8,62.8,95.2,65.4,92,65.5"/>
	<polygon clip-path="url(#SVGID_2_)" fill="#98D1E4" points="92,65.5 91.9,65.5 91.9,65.5 	"/>
	<path clip-path="url(#SVGID_2_)" fill="#89CDE5" d="M91.9,65.5c0,0-0.1,0-0.1,0H91.9L91.9,65.5L91.9,65.5H92
		C92,65.5,91.9,65.5,91.9,65.5"/>
	<path clip-path="url(#SVGID_2_)" fill="#82C9D3" d="M91.9,65.5c0,0-0.1,0-0.1,0h0C91.8,65.5,91.8,65.5,91.9,65.5"/>
	<path clip-path="url(#SVGID_2_)" fill="#9BD4F1" d="M97.8,59.5c0-2.9-2.2-5.3-5-5.8c0,0,0,0,0,0c1.8,0.3,3.3,1.5,4.2,3
		C97.6,57.5,97.8,58.5,97.8,59.5"/>
	<path clip-path="url(#SVGID_2_)" fill="#8CCFF0" d="M92.9,53.7C92.9,53.7,92.9,53.7,92.9,53.7c-0.4-0.1-0.7-0.1-1-0.1
		C92.2,53.6,92.6,53.6,92.9,53.7"/>
	<path clip-path="url(#SVGID_2_)" fill="#89CDE5" d="M91.9,53.6"/>
	<path clip-path="url(#SVGID_2_)" fill="#8CCFF0" d="M97.8,59.5L97.8,59.5L97.8,59.5z"/>
	<path clip-path="url(#SVGID_2_)" fill="#7BC9E5" d="M91.9,53.6L91.9,53.6L91.9,53.6z"/>
	<path clip-path="url(#SVGID_2_)" fill="#73C5D6" d="M91.9,53.6"/>
	<path clip-path="url(#SVGID_2_)" fill="#64C5D9" d="M96.8,56.1c-0.5-0.5-0.9-1-1.5-1.5c0.3,0.2,0.6,0.4,0.8,0.7
		C96.4,55.5,96.6,55.8,96.8,56.1"/>
	<path clip-path="url(#SVGID_2_)" fill="#54C2DA" d="M97,56.3c-0.1-0.1-0.1-0.2-0.2-0.3c-0.2-0.3-0.4-0.6-0.7-0.8
		C96.5,55.6,96.8,55.9,97,56.3"/>
	<path clip-path="url(#SVGID_2_)" fill="#54C2DA" d="M96.1,55.3c-0.2-0.2-0.5-0.5-0.8-0.7c0,0,0,0,0,0C95.6,54.8,95.9,55,96.1,55.3
		C96.1,55.2,96.1,55.2,96.1,55.3"/>
	<path clip-path="url(#SVGID_2_)" fill="#53C1D3" d="M96.1,55.2c-0.2-0.2-0.5-0.5-0.8-0.6c-0.1-0.1-0.2-0.1-0.2-0.2
		C95.5,54.6,95.8,54.9,96.1,55.2"/>
	<path clip-path="url(#SVGID_2_)" fill="#56C2EE" d="M103.1,64.2c-1.6-7.8-8.5-13.6-16.8-13.6c-0.9,0-1.7,0.1-2.6,0.2
		c1.7-4.7,6.2-8.1,11.5-8.1c6.7,0,12.2,5.5,12.2,12.2C107.4,58.6,105.7,61.9,103.1,64.2"/>
	<path clip-path="url(#SVGID_2_)" fill="#50C0E4" d="M102.4,64.7c-1-7.8-7.6-13.9-15.7-13.9c-1.1,0-2.1,0.1-3.1,0.3
		c0-0.1,0.1-0.3,0.1-0.4c0.8-0.1,1.7-0.2,2.6-0.2c8.3,0,15.2,5.8,16.8,13.6C102.8,64.4,102.6,64.5,102.4,64.7"/>
	<path clip-path="url(#SVGID_2_)" fill="#4FBFE0" d="M101.1,65.5c0-0.1,0-0.2,0-0.3c0-7.7-6.2-13.9-13.9-13.9
		c-1.3,0-2.6,0.2-3.8,0.5c0.1-0.3,0.1-0.5,0.2-0.8c1-0.2,2-0.3,3.1-0.3c8.1,0,14.8,6.1,15.7,13.9C102,65,101.5,65.3,101.1,65.5"/>
	<path clip-path="url(#SVGID_2_)" fill="#47C0DC" d="M97,56.3C97,56.3,97,56.3,97,56.3c-0.3-0.4-0.6-0.8-0.9-1.1c0,0,0,0,0,0
		C96.5,55.6,96.8,55.9,97,56.3"/>
	<path clip-path="url(#SVGID_2_)" fill="#43BFD6" d="M99.5,66.2c0.1-0.7,0.2-1.5,0.2-2.2c0-2.9-1-5.6-2.7-7.7
		c-0.3-0.4-0.6-0.8-0.9-1.1c-0.3-0.3-0.7-0.6-1-0.8c-2.1-1.7-4.8-2.7-7.7-2.7c-1.4,0-2.8,0.2-4.1,0.7c0-0.2,0.1-0.3,0.1-0.5
		c1.2-0.3,2.5-0.5,3.8-0.5c7.7,0,13.9,6.2,13.9,13.9c0,0.1,0,0.2,0,0.3C100.6,65.8,100.1,66,99.5,66.2"/>
	<path clip-path="url(#SVGID_2_)" fill="#7CCAEF" d="M97.8,59.5c0-1-0.3-1.9-0.7-2.8C97.5,57.5,97.8,58.4,97.8,59.5L97.8,59.5"/>
	<path clip-path="url(#SVGID_2_)" fill="#6EC7EF" d="M92,65.5L92,65.5c3.2-0.1,5.8-2.7,5.8-5.9v-0.1v0v0.1
		C97.8,62.8,95.2,65.4,92,65.5"/>
	<path clip-path="url(#SVGID_2_)" fill="#6BC5E5" d="M92,65.5"/>
	<path clip-path="url(#SVGID_2_)" fill="#5DC2E5" d="M91.9,65.5L91.9,65.5c0,0,0.1,0,0.1,0C92,65.5,91.9,65.5,91.9,65.5"/>
	<path clip-path="url(#SVGID_2_)" fill="#54C2DA" d="M91.9,65.5"/>
	<path clip-path="url(#SVGID_2_)" fill="#BBD59E" d="M87.4,76.4C80.5,76.4,75,70.9,75,64c0-4.3,2.2-8.1,5.6-10.3
		c0,0.1,0.1,0.2,0.1,0.4c0.6,9,8,16.1,17.1,16.1c0.1,0,0.2,0,0.2,0C96,73.9,92,76.4,87.4,76.4"/>
	<path clip-path="url(#SVGID_2_)" fill="#AFD1A2" d="M80.7,54.1c0-0.1-0.1-0.2-0.1-0.4c0,0,0.1,0,0.1-0.1
		C80.7,53.8,80.7,53.9,80.7,54.1"/>
	<path clip-path="url(#SVGID_2_)" fill="#AFD1A2" d="M97.9,70.1c-9.1,0-16.6-7.1-17.1-16.1c0.2,0.4,0.3,0.8,0.5,1.2
		c0.8,8,7.6,14.2,15.8,14.2c0.1,0,0.1,0,0.2,0c0.4,0.1,0.7,0.2,1.1,0.3c-0.1,0.1-0.1,0.2-0.2,0.3C98,70.1,97.9,70.1,97.9,70.1"/>
	<path clip-path="url(#SVGID_2_)" fill="#A2CDA5" d="M98.3,69.8c-0.4-0.1-0.7-0.2-1.1-0.3c0.4,0,0.8,0,1.3-0.1
		C98.4,69.6,98.3,69.7,98.3,69.8 M81.2,55.3c-0.2-0.4-0.4-0.8-0.5-1.2c0-0.1,0-0.3,0-0.4c0.1-0.1,0.3-0.2,0.5-0.3c0,0.1,0,0.2,0,0.3
		C81.2,54.2,81.2,54.8,81.2,55.3"/>
	<path clip-path="url(#SVGID_2_)" fill="#A2CDA5" d="M97,69.5c-8.2,0-14.9-6.2-15.8-14.2c0.5,1.1,1,2.1,1.6,3.1
		c1.5,5.3,6,9.3,11.6,10.1c0.9,0.4,1.8,0.8,2.8,1C97.1,69.5,97.1,69.5,97,69.5"/>
	<path clip-path="url(#SVGID_2_)" fill="#97CAA7" d="M97.2,69.5c-1-0.3-1.9-0.6-2.8-1c0.7,0.1,1.4,0.2,2.2,0.2
		c0.8,0,1.6-0.1,2.3-0.2c-0.1,0.3-0.3,0.7-0.4,1C98,69.5,97.6,69.5,97.2,69.5 M82.8,58.4c-0.6-1-1.1-2-1.6-3
		c-0.1-0.5-0.1-1.1-0.1-1.6c0-0.1,0-0.2,0-0.3c0.4-0.2,0.8-0.4,1.2-0.6c-0.1,0.5-0.1,1-0.1,1.6C82.3,55.7,82.5,57.1,82.8,58.4"/>
	<path clip-path="url(#SVGID_2_)" fill="#97CAA7" d="M94.4,68.5c-5.5-0.8-10-4.8-11.6-10.1c0.3,0.5,0.6,1,0.9,1.4
		c1.5,3.3,4.2,5.9,7.7,7.1C92.4,67.5,93.4,68,94.4,68.5"/>
	<path clip-path="url(#SVGID_2_)" fill="#8FC8A9" d="M96.6,68.6c-0.7,0-1.5-0.1-2.2-0.2c-1-0.4-2-1-2.9-1.5c1.4,0.5,2.9,0.8,4.4,0.8
		c1.2,0,2.3-0.2,3.4-0.4c-0.1,0.4-0.2,0.8-0.4,1.2C98.1,68.6,97.4,68.6,96.6,68.6 M83.8,59.8c-0.3-0.5-0.6-0.9-0.9-1.4
		c-0.4-1.3-0.6-2.6-0.6-4.1c0-0.5,0-1.1,0.1-1.6c0.2-0.1,0.3-0.1,0.5-0.2c-0.1,0.6-0.1,1.3-0.1,2C82.7,56.4,83.1,58.2,83.8,59.8"/>
	<path clip-path="url(#SVGID_2_)" fill="#A2CDA5" d="M85.9,59.5L85.9,59.5c0-3.3,2.7-5.9,5.9-5.9C88.6,53.6,86,56.2,85.9,59.5"/>
	<path clip-path="url(#SVGID_2_)" fill="#97CAA7" d="M87,62.9c-0.7-1-1.1-2.2-1.1-3.4v0c0,0,0,0,0,0c0,0,0,0,0,0
		C85.9,60.8,86.4,62,87,62.9"/>
	<polygon clip-path="url(#SVGID_2_)" fill="#97CAA7" points="91.9,53.6 91.9,53.6 91.9,53.6 	"/>
	<path clip-path="url(#SVGID_2_)" fill="#83C7AD" d="M91.5,66.9c-3.4-1.2-6.2-3.8-7.7-7.1c0.3,0.4,0.6,0.8,0.9,1.2
		c1.1,1.9,2.7,3.4,4.6,4.5C90,66,90.7,66.5,91.5,66.9"/>
	<path clip-path="url(#SVGID_2_)" fill="#7BC5AF" d="M95.9,67.7c-1.5,0-3-0.3-4.4-0.8c-0.7-0.4-1.4-0.9-2.1-1.4
		c1.7,1,3.7,1.5,5.9,1.5c1.5,0,3-0.3,4.3-0.8c-0.1,0.3-0.1,0.7-0.2,1C98.2,67.5,97,67.7,95.9,67.7 M84.7,61
		c-0.3-0.4-0.6-0.8-0.9-1.2c-0.7-1.6-1.1-3.4-1.1-5.3c0-0.7,0.1-1.3,0.1-2c0.1-0.1,0.3-0.1,0.4-0.2C83.1,53.2,83,54,83,54.8
		C83,57.1,83.6,59.2,84.7,61"/>
	<path clip-path="url(#SVGID_2_)" fill="#8BC9AA" d="M91.8,65.5c-0.3,0-0.6,0-0.9-0.1c0,0,0,0-0.1,0C91.1,65.4,91.5,65.4,91.8,65.5"
		/>
	<path clip-path="url(#SVGID_2_)" fill="#83C7AD" d="M90.9,65.4c-2.8-0.5-4.9-2.9-4.9-5.9v0c0,1.3,0.4,2.5,1.1,3.4
		C87.9,64.2,89.3,65.1,90.9,65.4C90.9,65.4,90.9,65.4,90.9,65.4"/>
	<path clip-path="url(#SVGID_2_)" fill="#83C7AD" d="M91.9,65.5c0,0-0.1,0-0.1,0h0C91.8,65.5,91.8,65.5,91.9,65.5"/>
	<path clip-path="url(#SVGID_2_)" fill="#80C6AD" d="M85.9,59.5L85.9,59.5c0-3.2,2.6-5.9,5.9-5.9h0C88.6,53.6,86,56.2,85.9,59.5"/>
	<polygon clip-path="url(#SVGID_2_)" fill="#77C4AF" points="85.9,59.5 85.9,59.5 85.9,59.5 	"/>
	<path clip-path="url(#SVGID_2_)" fill="#94CCBE" d="M97.1,56.7c-0.8-1.6-2.4-2.7-4.2-3c0,0,0,0,0.1,0c1.1,0.2,2.1,0.7,2.9,1.4
		C96.4,55.6,96.8,56.1,97.1,56.7"/>
	<path clip-path="url(#SVGID_2_)" fill="#8DCAB1" d="M95.9,55.1c-0.8-0.7-1.8-1.2-2.9-1.4c0.1,0,0.2,0,0.3,0.1
		C94.3,54,95.2,54.5,95.9,55.1"/>
	<path clip-path="url(#SVGID_2_)" fill="#8CC9BE" d="M93,53.7C93,53.7,92.9,53.7,93,53.7c-0.4-0.1-0.7-0.1-1.1-0.1
		C92.3,53.6,92.6,53.6,93,53.7"/>
	<path clip-path="url(#SVGID_2_)" fill="#87C7B8" d="M91.9,53.6"/>
	<path clip-path="url(#SVGID_2_)" fill="#82C8B3" d="M93.3,53.8c-0.1,0-0.2-0.1-0.3-0.1c-0.3-0.1-0.7-0.1-1.1-0.1h0
		C92.4,53.6,92.9,53.6,93.3,53.8"/>
	<polygon clip-path="url(#SVGID_2_)" fill="#80C6AD" points="91.9,53.6 91.9,53.6 91.9,53.6 	"/>
	<path clip-path="url(#SVGID_2_)" fill="#7FC5B8" d="M91.9,53.6L91.9,53.6L91.9,53.6z"/>
	<polygon clip-path="url(#SVGID_2_)" fill="#77C4AF" points="91.9,53.6 91.8,53.6 91.9,53.6 91.9,53.6 91.9,53.6 91.9,53.6 	"/>
	<path clip-path="url(#SVGID_2_)" fill="#6FC2B0" d="M85.9,59.5L85.9,59.5c0-1.7,0.6-3.1,1.7-4.2c1.1-1,2.5-1.7,4.1-1.7
		c0,0,0,0,0.1,0C88.6,53.6,86,56.2,85.9,59.5"/>
	<path clip-path="url(#SVGID_2_)" fill="#6FC2B0" d="M91.8,65.5L91.8,65.5c-0.3,0-0.6,0-0.9-0.1C91.2,65.4,91.5,65.4,91.8,65.5
		L91.8,65.5z"/>
	<path clip-path="url(#SVGID_2_)" fill="#64C0B2" d="M91.7,65.5c-3.3,0-5.9-2.7-5.9-5.9c0-1.7,0.7-3.2,1.8-4.3
		c-1,1.1-1.7,2.5-1.7,4.1c0,0,0,0,0,0.1v0c0,2.9,2.1,5.4,4.9,5.9C91.2,65.4,91.4,65.4,91.7,65.5"/>
	<path clip-path="url(#SVGID_2_)" fill="#80C8C0" d="M97.8,59.4c0-1-0.3-1.9-0.7-2.7c-0.3-0.6-0.7-1.1-1.2-1.6
		C97,56.2,97.8,57.7,97.8,59.4L97.8,59.4"/>
	<path clip-path="url(#SVGID_2_)" fill="#7AC5B4" d="M97.8,59.4c0-1.7-0.8-3.2-1.9-4.3c-0.7-0.6-1.6-1.1-2.6-1.4
		c2.4,0.6,4.3,2.7,4.5,5.2C97.8,59.1,97.8,59.3,97.8,59.4L97.8,59.4"/>
	<path clip-path="url(#SVGID_2_)" fill="#70C3B6" d="M97.8,59c-0.2-2.6-2.1-4.6-4.5-5.2c-0.4-0.1-0.9-0.2-1.4-0.2H92
		c1.2,0,2.4,0.4,3.3,1c0.5,0.5,1,1,1.5,1.5C97.4,56.9,97.7,57.9,97.8,59"/>
	<polygon clip-path="url(#SVGID_2_)" fill="#6FC2B0" points="91.9,53.6 91.9,53.6 92,53.6 	"/>
	<path clip-path="url(#SVGID_2_)" fill="#78C6C0" d="M92,65.5L92,65.5c3.2-0.1,5.8-2.7,5.8-5.9v-0.1v0v0.1
		C97.8,62.8,95.2,65.4,92,65.5"/>
	<path clip-path="url(#SVGID_2_)" fill="#75C5BB" d="M92,65.5"/>
	<path clip-path="url(#SVGID_2_)" fill="#70C3B6" d="M92,65.5L92,65.5c3.2-0.1,5.8-2.7,5.8-5.9v-0.1v0c0-0.1,0-0.3,0-0.4
		c0,0.2,0,0.3,0,0.5C97.8,62.7,95.3,65.4,92,65.5L92,65.5"/>
	<path clip-path="url(#SVGID_2_)" fill="#6FC2B0" d="M92,65.5L92,65.5L92,65.5z"/>
	<path clip-path="url(#SVGID_2_)" fill="#68C1B6" d="M92.1,65.5c3.2-0.1,5.7-2.7,5.7-5.9c0-0.2,0-0.3,0-0.5c-0.1-1.1-0.4-2.1-1-2.9
		c0.1,0.1,0.1,0.2,0.2,0.3c0.6,0.9,0.9,2,0.9,3.2C97.9,62.8,95.3,65.4,92.1,65.5"/>
	<path clip-path="url(#SVGID_2_)" fill="#68C1B6" d="M95.3,54.6c-0.9-0.6-2.1-1-3.3-1h0C93.2,53.6,94.4,54,95.3,54.6
		C95.3,54.6,95.3,54.6,95.3,54.6"/>
	<path clip-path="url(#SVGID_2_)" fill="#64C0B2" d="M87.6,55.3c1.1-1.1,2.6-1.8,4.3-1.8c1.2,0,2.3,0.3,3.2,0.9
		c0.1,0.1,0.2,0.1,0.2,0.2c-0.9-0.6-2.1-1-3.3-1c0,0,0,0-0.1,0c0,0,0,0-0.1,0c0,0,0,0-0.1,0c0,0,0,0-0.1,0
		C90.2,53.6,88.7,54.2,87.6,55.3"/>
	<path clip-path="url(#SVGID_2_)" fill="#64C0B2" d="M89.4,65.5c-1.9-1.1-3.5-2.6-4.6-4.5C86.1,62.7,87.6,64.2,89.4,65.5"/>
	<path clip-path="url(#SVGID_2_)" fill="#6CC3BC" d="M91.9,65.5L91.9,65.5c0,0,0.1,0,0.1,0h0C92,65.5,91.9,65.5,91.9,65.5"/>
	<polygon clip-path="url(#SVGID_2_)" fill="#68C1B6" points="92,65.5 92,65.5 92.1,65.5 	"/>
	<path clip-path="url(#SVGID_2_)" fill="#64C0B2" d="M91.9,65.5c-0.1,0-0.1,0-0.2,0c0,0,0,0,0,0h0L91.9,65.5L91.9,65.5l0.1,0h0h0
		c0,0,0,0,0.1,0C92,65.5,92,65.5,91.9,65.5"/>
	<path clip-path="url(#SVGID_2_)" fill="#5FBFB7" d="M92.1,65.5L92.1,65.5c3.2,0,5.9-2.7,5.9-5.9c0-1.2-0.3-2.3-0.9-3.2c0,0,0,0,0,0
		c0.6,0.9,0.9,2,0.9,3.2C97.9,62.8,95.3,65.4,92.1,65.5"/>
	<path clip-path="url(#SVGID_2_)" fill="#5DBFB3" d="M95.2,67c-2.1,0-4.1-0.5-5.9-1.5c-1.7-1.3-3.3-2.8-4.6-4.5
		c-1.1-1.8-1.7-3.9-1.7-6.2c0-0.8,0.1-1.6,0.2-2.4c1.3-0.5,2.7-0.7,4.1-0.7c2.9,0,5.6,1,7.7,2.7c-0.9-0.6-2-0.9-3.2-0.9
		c-1.7,0-3.2,0.7-4.3,1.8c-1.1,1.1-1.8,2.6-1.8,4.3c0,3.3,2.6,5.9,5.9,5.9c0.1,0,0.1,0,0.2,0c0.1,0,0.1,0,0.2,0
		c3.2,0,5.9-2.7,5.9-5.9c0-1.2-0.3-2.3-0.9-3.2c1.7,2.1,2.7,4.8,2.7,7.7c0,0.8-0.1,1.5-0.2,2.2C98.2,66.7,96.7,67,95.2,67"/>
	<path clip-path="url(#SVGID_2_)" fill="#2E3191" d="M84.2,73.7c0-2.7-1.1-6.7-5.7-6.7c-4.2,0-6.1,3.8-6.4,6.7H84.2z M72.1,75.2
		c0,6.1,3.3,8.5,7.3,8.5c2.8,0,4.2-0.6,5.3-1.1l0.5,1.5c-0.7,0.4-2.7,1.2-6,1.2c-5.5,0-8.9-4-8.9-9.6c0-6.4,3.7-10.4,8.6-10.4
		c6.3,0,7.4,5.9,7.4,8.6c0,0.5,0,0.8-0.1,1.2H72.1z"/>
	<rect x="91.1" y="65.9" clip-path="url(#SVGID_2_)" fill="#2E3191" width="1.9" height="19.1"/>
	<path clip-path="url(#SVGID_2_)" fill="#2E3191" d="M102,61.6v4.2h5.5v1.5H102v12.4c0,2.4,0.8,4,2.8,4c1,0,1.7-0.2,2.2-0.3l0.2,1.5
		c-0.6,0.3-1.5,0.5-2.7,0.5c-1.4,0-2.5-0.5-3.3-1.4c-0.9-1-1.2-2.6-1.2-4.5V67.4h-3.2v-1.5h3.2v-3.5L102,61.6z"/>
	<path clip-path="url(#SVGID_2_)" fill="#72953D" d="M111.5,65.9h0.6V68h0c0.1-0.2,0.2-0.3,0.3-0.5l1.3-1.6h0.7l-1.6,1.9l1.7,2.5
		h-0.7l-1.4-2.2l-0.4,0.5v1.7h-0.6V65.9z"/>
	<path clip-path="url(#SVGID_2_)" fill="#72953D" d="M115.1,67.9c0-0.3,0-0.6,0-0.9h0.5l0,0.5h0c0.2-0.3,0.5-0.6,1-0.6
		c0.4,0,1.1,0.3,1.1,1.3v1.9h-0.6v-1.8c0-0.5-0.2-0.9-0.7-0.9c-0.4,0-0.7,0.3-0.8,0.6c0,0.1,0,0.2,0,0.3v1.9h-0.6V67.9z"/>
	<path clip-path="url(#SVGID_2_)" fill="#72953D" d="M119,68.7c0,0.7,0.4,1.2,1,1.2c0.5,0,1-0.5,1-1.2c0-0.5-0.3-1.2-0.9-1.2
		C119.3,67.4,119,68.1,119,68.7 M121.5,68.6c0,1.2-0.8,1.7-1.6,1.7c-0.9,0-1.5-0.6-1.5-1.6c0-1.1,0.7-1.7,1.6-1.7
		C120.9,67,121.5,67.7,121.5,68.6"/>
	<path clip-path="url(#SVGID_2_)" fill="#72953D" d="M122.4,67.1l0.4,1.6c0.1,0.4,0.2,0.7,0.2,1h0c0.1-0.3,0.2-0.7,0.3-1l0.5-1.6
		h0.5l0.5,1.6c0.1,0.4,0.2,0.7,0.3,1h0c0.1-0.3,0.1-0.7,0.2-1l0.5-1.6h0.6l-1,3.2h-0.5l-0.5-1.5c-0.1-0.4-0.2-0.7-0.3-1h0
		c-0.1,0.4-0.2,0.7-0.3,1l-0.5,1.5h-0.5l-1-3.2H122.4z"/>
	<rect x="127" y="65.6" clip-path="url(#SVGID_2_)" fill="#72953D" width="0.6" height="4.6"/>
	<path clip-path="url(#SVGID_2_)" fill="#72953D" d="M130.6,68.4c0-0.4-0.1-0.9-0.8-0.9c-0.6,0-0.8,0.5-0.9,0.9H130.6z M128.9,68.8
		c0,0.8,0.5,1.1,1.1,1.1c0.4,0,0.7-0.1,0.9-0.2l0.1,0.4c-0.2,0.1-0.5,0.2-1.1,0.2c-1,0-1.6-0.6-1.6-1.6c0-1,0.6-1.7,1.5-1.7
		c1,0,1.3,0.9,1.3,1.5c0,0.1,0,0.2,0,0.3H128.9z"/>
	<path clip-path="url(#SVGID_2_)" fill="#72953D" d="M134,68.4c0-0.1,0-0.2,0-0.2c-0.1-0.4-0.4-0.7-0.8-0.7c-0.6,0-0.9,0.5-0.9,1.2
		c0,0.6,0.3,1.2,0.9,1.2c0.4,0,0.7-0.3,0.8-0.7c0-0.1,0-0.2,0-0.2V68.4z M134.6,65.6v3.8c0,0.3,0,0.6,0,0.8h-0.5l0-0.5h0
		c-0.2,0.4-0.6,0.6-1.1,0.6c-0.8,0-1.3-0.6-1.3-1.6c0-1.1,0.6-1.7,1.4-1.7c0.5,0,0.8,0.2,1,0.5h0v-1.9H134.6z"/>
	<path clip-path="url(#SVGID_2_)" fill="#72953D" d="M137.6,68.3c0-0.1,0-0.2,0-0.3c-0.1-0.3-0.4-0.6-0.8-0.6
		c-0.5,0-0.9,0.5-0.9,1.2c0,0.6,0.3,1.1,0.9,1.1c0.4,0,0.7-0.2,0.8-0.6c0-0.1,0-0.2,0-0.3V68.3z M138.2,67.1c0,0.2,0,0.5,0,0.9v1.8
		c0,0.7-0.1,1.2-0.4,1.4c-0.3,0.3-0.8,0.4-1.1,0.4c-0.4,0-0.8-0.1-1-0.3l0.1-0.4c0.2,0.1,0.5,0.2,0.9,0.2c0.6,0,1-0.3,1-1.1v-0.4h0
		c-0.2,0.3-0.5,0.5-1,0.5c-0.8,0-1.3-0.7-1.3-1.5c0-1.1,0.7-1.7,1.4-1.7c0.5,0,0.8,0.3,1,0.5h0l0-0.5H138.2z"/>
	<path clip-path="url(#SVGID_2_)" fill="#72953D" d="M141.2,68.4c0-0.4-0.1-0.9-0.8-0.9c-0.6,0-0.8,0.5-0.9,0.9H141.2z M139.5,68.8
		c0,0.8,0.5,1.1,1.1,1.1c0.4,0,0.7-0.1,0.9-0.2l0.1,0.4c-0.2,0.1-0.5,0.2-1.1,0.2c-1,0-1.6-0.6-1.6-1.6c0-1,0.6-1.7,1.5-1.7
		c1,0,1.3,0.9,1.3,1.5c0,0.1,0,0.2,0,0.3H139.5z"/>
	<path clip-path="url(#SVGID_2_)" fill="#72953D" d="M144.5,66.8c0,0.3,0.1,0.6,0.3,0.8c0.4-0.3,0.7-0.5,0.7-0.9
		c0-0.3-0.2-0.6-0.5-0.6C144.7,66.2,144.5,66.5,144.5,66.8 M145.9,69.5c-0.3-0.3-0.8-0.8-1.2-1.4c-0.2,0.2-0.6,0.4-0.6,0.9
		c0,0.5,0.4,0.9,0.9,0.9C145.4,69.9,145.7,69.7,145.9,69.5 M146.6,70.2c-0.1-0.1-0.2-0.2-0.4-0.4c-0.4,0.4-0.8,0.5-1.3,0.5
		c-0.9,0-1.4-0.6-1.4-1.2c0-0.6,0.4-1,0.9-1.3v0c-0.2-0.3-0.4-0.6-0.4-0.9c0-0.5,0.4-1.1,1.1-1.1c0.5,0,1,0.4,1,0.9
		c0,0.5-0.3,0.8-1,1.2v0c0.4,0.4,0.8,0.9,1.1,1.2c0.2-0.3,0.3-0.7,0.4-1.3h0.5c-0.1,0.7-0.3,1.2-0.6,1.6c0.2,0.2,0.5,0.5,0.7,0.8
		H146.6z"/>
	<rect x="111.5" y="73.2" clip-path="url(#SVGID_2_)" fill="#72953D" width="0.6" height="4.4"/>
	<path clip-path="url(#SVGID_2_)" fill="#72953D" d="M113.1,75.3c0-0.3,0-0.6,0-0.9h0.5l0,0.5h0c0.2-0.3,0.5-0.6,1-0.6
		c0.4,0,1.1,0.3,1.1,1.3v1.9h-0.6v-1.8c0-0.5-0.2-0.9-0.7-0.9c-0.4,0-0.7,0.3-0.8,0.6c0,0.1,0,0.2,0,0.3v1.9h-0.6V75.3z"/>
	<path clip-path="url(#SVGID_2_)" fill="#72953D" d="M116.7,75.3c0-0.3,0-0.6,0-0.9h0.5l0,0.5h0c0.2-0.3,0.5-0.6,1-0.6
		c0.4,0,1.1,0.3,1.1,1.3v1.9h-0.6v-1.8c0-0.5-0.2-0.9-0.7-0.9c-0.4,0-0.7,0.3-0.8,0.6c0,0.1,0,0.2,0,0.3v1.9h-0.6V75.3z"/>
	<path clip-path="url(#SVGID_2_)" fill="#72953D" d="M120.7,76c0,0.7,0.4,1.2,1,1.2c0.5,0,1-0.5,1-1.2c0-0.5-0.3-1.2-0.9-1.2
		C121,74.8,120.7,75.4,120.7,76 M123.2,76c0,1.2-0.8,1.7-1.6,1.7c-0.9,0-1.5-0.6-1.5-1.6c0-1.1,0.7-1.7,1.6-1.7
		C122.6,74.4,123.2,75,123.2,76"/>
	<path clip-path="url(#SVGID_2_)" fill="#72953D" d="M124.1,74.4l0.6,1.8c0.1,0.3,0.2,0.5,0.3,0.8h0c0.1-0.3,0.2-0.5,0.3-0.8
		l0.6-1.8h0.6l-1.2,3.2h-0.5l-1.2-3.2H124.1z"/>
	<path clip-path="url(#SVGID_2_)" fill="#72953D" d="M128.6,76c-0.6,0-1.3,0.1-1.3,0.7c0,0.4,0.2,0.6,0.5,0.6c0.4,0,0.7-0.3,0.8-0.5
		c0-0.1,0-0.1,0-0.2V76z M128.7,77.6l0-0.4h0c-0.2,0.2-0.5,0.5-1,0.5c-0.6,0-1-0.5-1-0.9c0-0.8,0.7-1.2,1.9-1.2v-0.1
		c0-0.3-0.1-0.7-0.7-0.7c-0.3,0-0.6,0.1-0.8,0.2l-0.1-0.4c0.3-0.2,0.6-0.3,1-0.3c1,0,1.2,0.7,1.2,1.3v1.2c0,0.3,0,0.5,0,0.8H128.7z"
		/>
	<path clip-path="url(#SVGID_2_)" fill="#72953D" d="M130.8,73.5v0.9h0.8v0.4h-0.8v1.7c0,0.4,0.1,0.6,0.4,0.6c0.1,0,0.3,0,0.3,0
		l0,0.4c-0.1,0-0.3,0.1-0.5,0.1c-0.3,0-0.5-0.1-0.6-0.2c-0.2-0.2-0.2-0.5-0.2-0.8v-1.7h-0.5v-0.4h0.5v-0.8L130.8,73.5z"/>
	<path clip-path="url(#SVGID_2_)" fill="#72953D" d="M132.3,74.4h0.6v3.2h-0.6V74.4z M132.9,73.6c0,0.2-0.1,0.4-0.4,0.4
		c-0.2,0-0.3-0.2-0.3-0.4c0-0.2,0.1-0.4,0.4-0.4C132.8,73.2,132.9,73.4,132.9,73.6"/>
	<path clip-path="url(#SVGID_2_)" fill="#72953D" d="M134.1,76c0,0.7,0.4,1.2,1,1.2c0.5,0,1-0.5,1-1.2c0-0.5-0.3-1.2-0.9-1.2
		S134.1,75.4,134.1,76 M136.6,76c0,1.2-0.8,1.7-1.6,1.7c-0.9,0-1.5-0.6-1.5-1.6c0-1.1,0.7-1.7,1.6-1.7C136,74.4,136.6,75,136.6,76"
		/>
	<path clip-path="url(#SVGID_2_)" fill="#72953D" d="M137.4,75.3c0-0.3,0-0.6,0-0.9h0.5l0,0.5h0c0.2-0.3,0.5-0.6,1-0.6
		c0.4,0,1.1,0.3,1.1,1.3v1.9h-0.6v-1.8c0-0.5-0.2-0.9-0.7-0.9c-0.4,0-0.7,0.3-0.8,0.6c0,0.1,0,0.2,0,0.3v1.9h-0.6V75.3z"/>
	<path clip-path="url(#SVGID_2_)" fill="#72953D" d="M114.6,84.8c-0.2,0.1-0.6,0.2-1.2,0.2c-1.2,0-2.2-0.8-2.2-2.2
		c0-1.4,0.9-2.3,2.3-2.3c0.5,0,0.9,0.1,1,0.2l-0.1,0.5c-0.2-0.1-0.5-0.2-0.9-0.2c-1,0-1.7,0.7-1.7,1.8c0,1.1,0.6,1.8,1.7,1.8
		c0.3,0,0.7-0.1,0.9-0.2L114.6,84.8z"/>
	<path clip-path="url(#SVGID_2_)" fill="#72953D" d="M115.5,83.4c0,0.7,0.4,1.2,1,1.2c0.5,0,1-0.5,1-1.2c0-0.5-0.3-1.2-0.9-1.2
		C115.8,82.2,115.5,82.8,115.5,83.4 M118,83.4c0,1.2-0.8,1.7-1.6,1.7c-0.9,0-1.5-0.6-1.5-1.6c0-1.1,0.7-1.7,1.6-1.7
		C117.4,81.7,118,82.4,118,83.4"/>
	<path clip-path="url(#SVGID_2_)" fill="#72953D" d="M118.8,82.7c0-0.3,0-0.6,0-0.9h0.5l0,0.5h0c0.2-0.3,0.5-0.6,1-0.6
		c0.4,0,0.8,0.3,0.9,0.6h0c0.1-0.2,0.2-0.3,0.4-0.4c0.2-0.1,0.4-0.2,0.7-0.2c0.4,0,1,0.3,1,1.4V85h-0.6v-1.8c0-0.6-0.2-1-0.7-1
		c-0.3,0-0.6,0.2-0.7,0.5c0,0.1,0,0.2,0,0.3V85h-0.6v-1.9c0-0.5-0.2-0.9-0.7-0.9c-0.4,0-0.6,0.3-0.7,0.6c0,0.1,0,0.2,0,0.3V85h-0.6
		V82.7z"/>
	<path clip-path="url(#SVGID_2_)" fill="#72953D" d="M124.2,82.7c0-0.3,0-0.6,0-0.9h0.5l0,0.5h0c0.2-0.3,0.5-0.6,1-0.6
		c0.4,0,0.8,0.3,0.9,0.6h0c0.1-0.2,0.2-0.3,0.4-0.4c0.2-0.1,0.4-0.2,0.7-0.2c0.4,0,1,0.3,1,1.4V85h-0.6v-1.8c0-0.6-0.2-1-0.7-1
		c-0.3,0-0.6,0.2-0.7,0.5c0,0.1,0,0.2,0,0.3V85h-0.6v-1.9c0-0.5-0.2-0.9-0.7-0.9c-0.4,0-0.6,0.3-0.7,0.6c0,0.1,0,0.2,0,0.3V85h-0.6
		V82.7z"/>
	<path clip-path="url(#SVGID_2_)" fill="#72953D" d="M132.3,84.1c0,0.3,0,0.6,0,0.9h-0.5l0-0.5h0c-0.1,0.3-0.5,0.6-1,0.6
		c-0.5,0-1.1-0.3-1.1-1.4v-1.8h0.6v1.7c0,0.6,0.2,1,0.7,1c0.4,0,0.7-0.3,0.8-0.5c0-0.1,0.1-0.2,0.1-0.3v-1.9h0.6V84.1z"/>
	<path clip-path="url(#SVGID_2_)" fill="#72953D" d="M133.2,82.7c0-0.3,0-0.6,0-0.9h0.5l0,0.5h0c0.2-0.3,0.5-0.6,1-0.6
		c0.4,0,1.1,0.3,1.1,1.3V85h-0.6v-1.8c0-0.5-0.2-0.9-0.7-0.9c-0.4,0-0.7,0.3-0.8,0.6c0,0.1,0,0.2,0,0.3V85h-0.6V82.7z"/>
	<path clip-path="url(#SVGID_2_)" fill="#72953D" d="M136.8,81.8h0.6V85h-0.6V81.8z M137.5,80.9c0,0.2-0.1,0.3-0.4,0.3
		c-0.2,0-0.3-0.2-0.3-0.3c0-0.2,0.1-0.4,0.4-0.4C137.4,80.6,137.5,80.7,137.5,80.9"/>
	<path clip-path="url(#SVGID_2_)" fill="#72953D" d="M139.1,80.9v0.9h0.8v0.4h-0.8v1.7c0,0.4,0.1,0.6,0.4,0.6c0.1,0,0.3,0,0.3,0
		l0,0.4c-0.1,0-0.3,0.1-0.5,0.1c-0.3,0-0.5-0.1-0.6-0.2c-0.2-0.2-0.2-0.5-0.2-0.8v-1.7H138v-0.4h0.5v-0.8L139.1,80.9z"/>
	<path clip-path="url(#SVGID_2_)" fill="#72953D" d="M140.8,81.8l0.7,1.9c0.1,0.2,0.2,0.5,0.2,0.6h0c0.1-0.2,0.1-0.4,0.2-0.7
		l0.6-1.9h0.6l-0.9,2.3c-0.4,1.1-0.7,1.6-1.1,2c-0.3,0.2-0.6,0.3-0.7,0.4l-0.1-0.5c0.1,0,0.3-0.1,0.5-0.3c0.2-0.1,0.4-0.3,0.5-0.6
		c0-0.1,0-0.1,0-0.1c0,0,0-0.1,0-0.2l-1.2-2.9H140.8z"/>
	<path clip-path="url(#SVGID_2_)" fill="#0087B4" d="M78.4,101.9c-0.5,0.2-1.5,0.5-2.8,0.5c-3,0-5.3-1.8-5.3-5.1
		c0-3.2,2.3-5.3,5.6-5.3c1.3,0,2.2,0.3,2.6,0.5l-0.3,1.1c-0.5-0.2-1.3-0.4-2.2-0.4c-2.5,0-4.2,1.5-4.2,4.2c0,2.5,1.5,4.1,4.1,4.1
		c0.8,0,1.7-0.2,2.3-0.4L78.4,101.9z"/>
	<rect x="80.1" y="91.5" clip-path="url(#SVGID_2_)" fill="#0087B4" width="1.4" height="10.7"/>
	<path clip-path="url(#SVGID_2_)" fill="#0087B4" d="M83.9,94.9h1.4v7.3h-1.4V94.9z M85.4,92.9c0,0.5-0.3,0.8-0.9,0.8
		c-0.5,0-0.8-0.4-0.8-0.8c0-0.5,0.4-0.8,0.9-0.8C85.1,92.1,85.4,92.4,85.4,92.9"/>
	<path clip-path="url(#SVGID_2_)" fill="#0087B4" d="M87.6,96.9c0-0.8,0-1.4-0.1-2h1.2l0.1,1.2h0c0.4-0.7,1.2-1.3,2.4-1.3
		c1.1,0,1.9,0.6,2.2,1.5h0c0.2-0.4,0.5-0.7,0.9-1c0.5-0.3,1-0.5,1.7-0.5c1,0,2.5,0.6,2.5,3.2v4.3h-1.4v-4.1c0-1.4-0.5-2.2-1.7-2.2
		c-0.8,0-1.4,0.6-1.7,1.2c-0.1,0.2-0.1,0.4-0.1,0.7v4.5h-1.4v-4.4c0-1.2-0.5-2-1.6-2c-0.9,0-1.5,0.7-1.7,1.3
		C89,97.4,89,97.6,89,97.8v4.4h-1.4V96.9z"/>
	<path clip-path="url(#SVGID_2_)" fill="#0087B4" d="M105,98.5c-1.5,0-3.3,0.2-3.3,1.6c0,0.9,0.6,1.3,1.3,1.3c1,0,1.6-0.6,1.9-1.2
		c0-0.1,0.1-0.3,0.1-0.4V98.5z M105.2,102.3l-0.1-0.9h0c-0.4,0.6-1.3,1.1-2.4,1.1c-1.6,0-2.4-1-2.4-2.1c0-1.8,1.7-2.7,4.7-2.7v-0.2
		c0-0.6-0.2-1.7-1.8-1.7c-0.7,0-1.5,0.2-2,0.5l-0.3-0.9c0.6-0.4,1.6-0.6,2.5-0.6c2.4,0,2.9,1.5,2.9,3v2.7c0,0.6,0,1.3,0.1,1.8H105.2
		z"/>
	<path clip-path="url(#SVGID_2_)" fill="#0087B4" d="M110.3,92.8v2.1h2v1h-2v3.9c0,0.9,0.3,1.4,1.1,1.4c0.4,0,0.6,0,0.8-0.1l0.1,1
		c-0.3,0.1-0.7,0.2-1.2,0.2c-0.7,0-1.2-0.2-1.5-0.6c-0.4-0.4-0.5-1-0.5-1.9v-4h-1.2v-1h1.2v-1.8L110.3,92.8z"/>
	<path clip-path="url(#SVGID_2_)" fill="#0087B4" d="M118.7,97.9c0-0.8-0.4-2.2-1.9-2.2c-1.4,0-2,1.2-2.2,2.2H118.7z M114.6,98.8
		c0,1.8,1.2,2.5,2.7,2.5c1,0,1.6-0.2,2.1-0.4l0.2,1c-0.5,0.2-1.3,0.5-2.6,0.5c-2.4,0-3.8-1.5-3.8-3.7c0-2.2,1.4-3.9,3.6-3.9
		c2.5,0,3.2,2.1,3.2,3.4c0,0.3,0,0.5,0,0.6H114.6z"/>
	<rect x="121.5" y="97.7" clip-path="url(#SVGID_2_)" fill="#0087B4" width="3.9" height="1"/>
	<path clip-path="url(#SVGID_2_)" fill="#0087B4" d="M127.2,92.1h1.4V97h0c0.3-0.4,0.6-0.8,0.8-1.1l3.3-3.8h1.7l-3.9,4.3l4.2,5.9
		h-1.6l-3.5-5l-1,1.1v3.9h-1.4V92.1z"/>
	<rect x="135.9" y="92.1" clip-path="url(#SVGID_2_)" fill="#0087B4" width="1.4" height="10.2"/>
	<path clip-path="url(#SVGID_2_)" fill="#0087B4" d="M147.2,101.9c-0.5,0.2-1.5,0.5-2.8,0.5c-3,0-5.3-1.8-5.3-5.1
		c0-3.2,2.3-5.3,5.6-5.3c1.3,0,2.2,0.3,2.6,0.5l-0.3,1.1c-0.5-0.2-1.3-0.4-2.2-0.4c-2.5,0-4.2,1.5-4.2,4.2c0,2.5,1.5,4.1,4.1,4.1
		c0.8,0,1.7-0.2,2.3-0.4L147.2,101.9z"/>
	<path clip-path="url(#SVGID_2_)" fill="#FFFFFF" d="M97.8,59.5c0,3.3-2.7,5.9-5.9,5.9c-3.3,0-5.9-2.7-5.9-5.9
		c0-3.3,2.7-5.9,5.9-5.9C95.2,53.6,97.8,56.2,97.8,59.5"/>
</g>
</svg>
