<?xml version="1.0" encoding="utf-8"?>
<!-- Generator: Adobe Illustrator 13.0.0, SVG Export Plug-In . SVG Version: 6.00 Build 14948)  -->
<!DOCTYPE svg PUBLIC "-//W3C//DTD SVG 1.1//EN" "http://www.w3.org/Graphics/SVG/1.1/DTD/svg11.dtd">
<svg version="1.1" id="Investec" xmlns="http://www.w3.org/2000/svg" xmlns:xlink="http://www.w3.org/1999/xlink" x="0px" y="0px"
	 width="390px" height="150px" viewBox="0 0 390 150" enable-background="new 0 0 390 150" xml:space="preserve">
<path fill="#00204E" d="M122.9,52.3c0.8,0,1.7,0.4,1.7,0.9v28.3c0,0.6-0.8,0.9-1.7,0.9v0.6h8.2v-0.6c-0.8,0-1.7-0.3-1.7-0.9V53.3
	c0-0.6,0.8-0.9,1.7-0.9v-0.6h-8.2V52.3z M227.1,66.4c0-2,2.2-3,4.5-3c3.7,0,5.8,0.6,6.5,3.1l0.7,0l-0.1-3.3
	c-2.2-0.9-4.7-1.3-6.6-1.3c-6.3,0-8.9,3.3-8.9,5.8c0,7.3,12.5,5.6,12.5,11c0,1.6-1.3,3.2-4.7,3.2c-4.2,0-6.4-1.3-7.3-4.1l-0.6,0.1
	l0.3,3.9c2,0.9,4.7,1.5,7,1.5c6.8,0,9.9-3.2,9.9-6.2C240.5,70.1,227.1,71.7,227.1,66.4z M185.2,62.9c1.3,0,2.2,0.8,1.7,1.8h0
	l-6.3,12.1l-6.2-12.2c-0.3-1,0.5-1.6,1.7-1.6v-0.7h-10v0.7c1.3,0,2.1,0.5,3,2.1l10.1,18.4l10.5-18.8c0.8-1.4,1.9-1.7,2.7-1.7v-0.7
	h-7.2V62.9z M162,81.6l0-9.5h0v-4.3c0-3.9-4.2-6.1-8.5-6.1c-3.7,0-7,2.1-8.3,3.1v-2.9l0,0v0c0-0.4-0.2-0.5-0.4-0.5
	c-2.7,1-3.9,1.4-6.6,2.4v0.5c1.4,0.1,1.9,0.9,2,1.9v15.4c0,0.7-0.8,0.9-1.7,0.9v0.6h8.2v-0.6c-0.8,0-1.7-0.3-1.7-0.9V66.7h0v-0.1
	c1.1-1.1,3.4-2.3,5.8-2.3c5.1,0,6.1,2.7,6.1,5.1l0,12.2c0,0.7-0.8,0.9-1.7,0.9v0.6h8.2v-0.6C162.8,82.5,162,82.3,162,81.6z
	 M217.7,70.9c0-6.6-5.9-9.2-10.8-9.2c-8.8,0-13,5.8-13.1,10.6c0,1.7,0.5,3.7,1.5,5.3c1.1,1.8,2.6,3.2,4.5,4.2c2,1,4.2,1.5,6.6,1.5
	c2.3,0,4.2-0.3,5.9-0.8c1.7-0.6,3.3-1.5,5-2.9l0-1.6c-1.8,1.2-3.3,2-4.6,2.4c-1.3,0.4-2.8,0.6-4.5,0.6c-2.4,0-4.6-0.8-6.4-2.4
	c-1.8-1.7-2.6-4.4-2.6-6.4v-1.2H217.7z M206.2,63.4c3.2,0,6.2,1.6,6.2,5.9h-13.1C199.7,66.2,202,63.4,206.2,63.4z M289.7,70.9
	c0-6.6-5.9-9.2-10.8-9.2c-8.8,0-13,5.8-13.1,10.6c0,1.7,0.5,3.7,1.5,5.3c1.1,1.8,2.6,3.2,4.5,4.2c2,1,4.2,1.5,6.6,1.5
	c2.2,0,4.2-0.3,5.9-0.8c1.7-0.6,3.3-1.5,5-2.9l0-1.6c-1.8,1.2-3.3,2-4.6,2.4c-1.3,0.4-2.8,0.6-4.5,0.6c-2.4,0-4.6-0.8-6.4-2.4
	c-1.8-1.7-2.6-4.4-2.6-6.4v-1.2H289.7z M278.2,63.4c3.2,0,6.2,1.6,6.2,5.9h-13.1C271.7,66.2,274,63.4,278.2,63.4z M258.7,81.5
	c-1.8,0.1-5.2-0.4-5.2-4.6V64.4h8v-1.8h-7.9v-4.1l-5,0l0,4.1h-3.2l0,1.8h3.2v12.5h0c0,0,0,0,0,0V77c0,4.2,3.4,6.4,7.9,6.4
	c1.6,0,3.3-0.6,4.3-1.2c0.5-0.3,1-0.6,1.6-1.1l-0.1-0.7C261.6,80.8,260.1,81.5,258.7,81.5z M307.3,63.3c3.5,0,6.8,1.9,8.1,4.3h1.1
	v-3.9c-0.1,0-3.8-2.1-8.9-2.1c-9.7,0-13.6,6.5-13.6,10.9c0,0.9,0.1,1.8,0.4,2.8h0c0.1,0.2,0.2,0.5,0.3,0.7c0.4,1.1,1,2.2,1.8,3.2
	c0.9,1.1,2,1.9,3.3,2.6c1.6,0.8,3.3,1.3,5.1,1.4c0.6,0.1,1.2,0.1,1.9,0.1c2,0,3.6-0.4,4.9-0.9c0,0,0,0,0.1,0
	c1.6-0.5,3.1-1.5,4.8-2.9v-1.7c-1.4,1-2.7,1.7-3.8,2.1c-1.2,0.4-2.7,0.7-4.5,0.7c-6.1,0-9.1-4.2-9.1-8.8
	C299.2,68,301.7,63.3,307.3,63.3z"/>
<path fill="#00204E" d="M92.3,51.7V35h-1.5v3.6c-7.2,0.3-13.2,4.8-14.7,10.9H80c1.3-4.9,5.6-8.5,10.8-8.8v11.1H72.4v1.5h3.3
	c0.4,7.1,6.9,12.8,15,13.1V70h1.5V53.3h11.2c-0.3,5.2-4.1,9.5-9,10.7v2.2c7.1-1.2,12.5-6.4,12.9-12.9h3.3v-1.5H92.3z M90.8,64.3
	c-6-0.4-10.8-5.1-11.2-11.1h11.2V64.3z M103.1,49.5h3.9c-1.4-5.4-6.3-9.6-12.5-10.6V41C98.7,42,102,45.3,103.1,49.5z"/>
<g>
	<path fill="#00204E" d="M121.6,102.7h1.3l2.8,10.7h0l3-10.7h1.5l3,10.7h0l2.8-10.7h1.2l-3.4,12.2h-1.2l-3.1-10.9h0l-3.1,10.9H125
		L121.6,102.7z"/>
	<path fill="#00204E" d="M140.6,110.8c0,1.6,0.8,3.5,2.9,3.5c1.6,0,2.4-0.9,2.8-2.3h1.1c-0.5,2-1.6,3.2-3.9,3.2c-2.8,0-4-2.2-4-4.7
		c0-2.3,1.2-4.7,4-4.7c2.8,0,4,2.5,3.9,5H140.6z M146.3,109.9c-0.1-1.6-1.1-3.2-2.8-3.2c-1.8,0-2.7,1.5-2.9,3.2H146.3z"/>
	<path fill="#00204E" d="M150.8,108.8c0.1-2.1,1.6-3,3.6-3c1.6,0,3.3,0.5,3.3,2.8v4.7c0,0.4,0.2,0.6,0.6,0.6c0.1,0,0.3,0,0.3-0.1
		v0.9c-0.2,0.1-0.4,0.1-0.7,0.1c-1.1,0-1.3-0.6-1.3-1.5h0c-0.8,1.1-1.5,1.8-3.2,1.8c-1.6,0-3-0.8-3-2.6c0-2.5,2.4-2.6,4.7-2.8
		c0.9-0.1,1.4-0.2,1.4-1.2c0-1.5-1-1.8-2.3-1.8c-1.3,0-2.3,0.6-2.4,2.1H150.8z M156.5,110.1L156.5,110.1c-0.2,0.3-0.7,0.3-0.9,0.4
		c-1.8,0.3-4.1,0.3-4.1,2c0,1.1,1,1.7,2,1.7c1.6,0,3.1-1,3.1-2.8V110.1z"/>
	<path fill="#00204E" d="M161.8,102.7h1.1V115h-1.1V102.7z"/>
	<path fill="#00204E" d="M168.8,106.1h1.8v0.9h-1.8v6c0,0.7,0.1,1.1,0.9,1.2c0.3,0,0.6,0,0.9-0.1v0.9c-0.3,0-0.6,0-1,0
		c-1.4,0-1.9-0.5-1.9-2v-6h-1.5v-0.9h1.5v-2.7h1.1V106.1z"/>
	<path fill="#00204E" d="M174.2,102.7h1.1v4.9h0c0.4-1.1,1.6-1.8,2.8-1.8c2.5,0,3.2,1.3,3.2,3.4v5.7h-1.1v-5.5
		c0-1.5-0.5-2.7-2.2-2.7c-1.7,0-2.7,1.3-2.8,3v5.2h-1.1V102.7z"/>
	<path fill="#00204E" d="M199.2,113.4c-0.9,1.1-2.2,1.9-3.6,1.9c-2.1,0-3.7-1.2-3.7-3.4c0-1.7,1.6-2.9,3-3.6
		c-0.7-0.9-1.5-1.8-1.5-2.9c0-1.5,1.2-2.5,2.7-2.5s2.7,1,2.7,2.5c0,1.5-1.2,2.4-2.4,3.2l2.7,3.2c0.3-0.6,0.4-1.1,0.4-2.1h1.1
		c0,0.7-0.2,1.9-0.7,2.9l2.1,2.5h-1.4L199.2,113.4z M195.5,108.9c-1.2,0.6-2.5,1.6-2.5,3c0,1.4,1.3,2.4,2.7,2.4
		c1.2,0,2.2-0.8,2.9-1.7L195.5,108.9z M194.5,105.2c0,0.9,0.8,1.8,1.4,2.5c0.9-0.5,1.9-1.3,1.9-2.5c0-1-0.7-1.6-1.6-1.6
		C195.2,103.7,194.5,104.2,194.5,105.2z"/>
	<path fill="#00204E" d="M211.9,102.7h1.2V115h-1.2V102.7z"/>
	<path fill="#00204E" d="M217.4,106.1h1.1v1.5h0c0.4-1.1,1.6-1.8,2.8-1.8c2.5,0,3.2,1.3,3.2,3.4v5.7h-1.1v-5.5
		c0-1.5-0.5-2.7-2.2-2.7c-1.7,0-2.7,1.3-2.8,3v5.2h-1.1V106.1z"/>
	<path fill="#00204E" d="M227.7,106.1h1.2l2.8,7.8h0l2.7-7.8h1.1l-3.3,8.8h-1.1L227.7,106.1z"/>
	<path fill="#00204E" d="M239.3,110.8c0,1.6,0.8,3.5,2.9,3.5c1.6,0,2.4-0.9,2.8-2.3h1.1c-0.5,2-1.6,3.2-3.9,3.2c-2.8,0-4-2.2-4-4.7
		c0-2.3,1.2-4.7,4-4.7c2.8,0,4,2.5,3.9,5H239.3z M245.1,109.9c-0.1-1.6-1.1-3.2-2.8-3.2c-1.8,0-2.7,1.5-2.9,3.2H245.1z"/>
	<path fill="#00204E" d="M254.9,108.7c-0.1-1.3-1.1-1.9-2.3-1.9c-1,0-2.1,0.4-2.1,1.5c0,1,1.1,1.3,1.8,1.5l1.4,0.3
		c1.2,0.2,2.5,0.9,2.5,2.4c0,1.9-1.9,2.7-3.5,2.7c-2.1,0-3.5-1-3.6-3.1h1.1c0.1,1.5,1.2,2.2,2.6,2.2c1,0,2.4-0.4,2.4-1.7
		c0-1-1-1.4-1.9-1.6l-1.4-0.3c-1.4-0.4-2.5-0.9-2.5-2.4c0-1.8,1.8-2.5,3.3-2.5c1.8,0,3.2,0.9,3.2,2.8H254.9z"/>
	<path fill="#00204E" d="M261.7,106.1h1.8v0.9h-1.8v6c0,0.7,0.1,1.1,0.9,1.2c0.3,0,0.6,0,0.9-0.1v0.9c-0.3,0-0.6,0-1,0
		c-1.4,0-1.9-0.5-1.9-2v-6H259v-0.9h1.5v-2.7h1.1V106.1z"/>
	<path fill="#00204E" d="M267.1,106.1h1v1.5h0.1c0.6-1.1,1.5-1.7,2.9-1.7c1.2,0,2.2,0.6,2.5,1.7c0.5-1.2,1.6-1.7,2.8-1.7
		c1.9,0,2.9,1,2.9,3.1v6h-1.1V109c0-1.5-0.5-2.2-2.1-2.2c-1.9,0-2.4,1.5-2.4,3.2v5h-1.1v-6c0-1.2-0.5-2.2-1.8-2.2
		c-1.9,0-2.6,1.4-2.6,3.3v4.9h-1.1V106.1z"/>
	<path fill="#00204E" d="M284,110.8c0,1.6,0.8,3.5,2.9,3.5c1.6,0,2.4-0.9,2.8-2.3h1.1c-0.5,2-1.6,3.2-3.9,3.2c-2.8,0-4-2.2-4-4.7
		c0-2.3,1.2-4.7,4-4.7c2.8,0,4,2.5,3.9,5H284z M289.8,109.9c-0.1-1.6-1.1-3.2-2.8-3.2c-1.8,0-2.7,1.5-2.9,3.2H289.8z"/>
	<path fill="#00204E" d="M294.3,106.1h1.1v1.5h0c0.4-1.1,1.6-1.8,2.8-1.8c2.5,0,3.2,1.3,3.2,3.4v5.7h-1.1v-5.5
		c0-1.5-0.5-2.7-2.2-2.7c-1.7,0-2.7,1.3-2.8,3v5.2h-1.1V106.1z"/>
	<path fill="#00204E" d="M307.3,106.1h1.8v0.9h-1.8v6c0,0.7,0.1,1.1,0.9,1.2c0.3,0,0.6,0,0.9-0.1v0.9c-0.3,0-0.6,0-1,0
		c-1.4,0-1.9-0.5-1.9-2v-6h-1.5v-0.9h1.5v-2.7h1.1V106.1z"/>
</g>
</svg>
