<?xml version="1.0" encoding="utf-8"?>
<!-- Generator: Adobe Illustrator 13.0.0, SVG Export Plug-In . SVG Version: 6.00 Build 14948)  -->
<!DOCTYPE svg PUBLIC "-//W3C//DTD SVG 1.1//EN" "http://www.w3.org/Graphics/SVG/1.1/DTD/svg11.dtd">
<svg version="1.1" id="Sense" xmlns="http://www.w3.org/2000/svg" xmlns:xlink="http://www.w3.org/1999/xlink" x="0px" y="0px"
	 width="390px" height="150px" viewBox="0 0 390 150" enable-background="new 0 0 390 150" xml:space="preserve">
<g>
	<path fill="#260859" d="M138.6,116.7c-3,0-6-1-7.9-1.9c-0.4-0.2-0.6-0.5-0.6-0.8c0-0.1,0-0.2,0.1-0.3l0.8-2.1
		c0.1-0.3,0.3-0.6,0.6-0.6c0.1,0,0.2,0,0.3,0.1c2.1,0.9,4.9,1.7,6.9,1.7c3.4,0,5.6-1.6,5.6-4.4c0-2.3-1.7-3.5-4.4-4.5l-3.9-1.5
		c-3.4-1.3-6-3.7-6-7.3c0-5.1,4.6-7.7,9.7-7.7c2.5,0,4.9,0.4,7.5,1.6c0.3,0.2,0.5,0.3,0.5,0.6c0,0.1-0.1,0.3-0.1,0.5l-0.6,2
		c-0.1,0.4-0.3,0.6-0.6,0.6c-0.1,0-0.3-0.1-0.5-0.1c-1.5-0.7-4.2-1.4-6.1-1.4c-3.1,0-4.8,1.6-4.8,3.6c0,2,1.2,2.9,3.6,3.9l4.5,1.9
		c3.2,1.3,5.8,3.7,5.8,7.4C149.3,113.4,144.8,116.7,138.6,116.7"/>
	<path fill="#260859" d="M176.2,102.8h-17.8c0.2,5.5,3.3,9.8,9.2,9.8c2.4,0,5-0.5,7-1.2c0.2-0.1,0.4-0.1,0.6-0.1
		c0.3,0,0.6,0.1,0.7,0.5l0.6,2.1c0.1,0.1,0.1,0.2,0.1,0.3c0,0.3-0.2,0.5-0.7,0.8c-2.5,1.2-6.2,1.7-8.9,1.7
		c-8.9,0-13.7-5.9-13.7-14.6c0-8.3,5.2-14.6,13.5-14.6c3.3,0,6,1.2,7.9,3.2c2.3,2.4,3.3,5.8,3.3,9.6v1
		C178,102.5,177.7,102.8,176.2,102.8 M173.1,98.7c0-3.9-2.1-7.4-6.6-7.4c-4.8,0-7.5,3.9-8,8.2h14.6V98.7z"/>
	<path fill="#260859" d="M206.2,116.1h-2.7c-0.8,0-1.1-0.4-1.1-1.2V98.7c0-4.1-1-7.1-5.7-7.1c-2.7,0-6,1.5-8,3.4v20
		c0,0.8-0.4,1.2-1.1,1.2h-2.7c-0.7,0-1.1-0.4-1.1-1.2V89.3c0-0.8,0.3-1.2,1.1-1.2h2.6c0.7,0,1.1,0.3,1.1,1l0.1,1.8
		c2.7-2.3,6.1-3.5,9.5-3.5c6.7,0,9.2,4.1,9.2,10.4v17.1C207.3,115.7,207,116.1,206.2,116.1"/>
	<path fill="#260859" d="M221.5,116.7c-3,0-6-1-7.9-1.9c-0.4-0.2-0.6-0.5-0.6-0.8c0-0.1,0-0.2,0.1-0.3l0.8-2.1
		c0.1-0.3,0.3-0.6,0.6-0.6c0.1,0,0.2,0,0.3,0.1c2.1,0.9,4.9,1.7,6.9,1.7c3.4,0,5.6-1.6,5.6-4.4c0-2.3-1.7-3.5-4.3-4.5l-3.9-1.5
		c-3.4-1.3-6-3.7-6-7.3c0-5.1,4.6-7.7,9.7-7.7c2.5,0,4.9,0.4,7.5,1.6c0.3,0.2,0.5,0.3,0.5,0.6c0,0.1-0.1,0.3-0.1,0.5l-0.6,2
		c-0.1,0.4-0.3,0.6-0.6,0.6c-0.1,0-0.3-0.1-0.5-0.1c-1.5-0.7-4.2-1.4-6.1-1.4c-3.1,0-4.8,1.6-4.8,3.6c0,2,1.2,2.9,3.6,3.9l4.5,1.9
		c3.2,1.3,5.8,3.7,5.8,7.4C232.2,113.4,227.7,116.7,221.5,116.7"/>
</g>
<g>
	<path fill="#260859" d="M259,102.8h-17.8c0.2,5.5,3.3,9.8,9.2,9.8c2.4,0,5-0.5,7-1.2c0.2-0.1,0.4-0.1,0.6-0.1
		c0.3,0,0.6,0.1,0.7,0.5l0.6,2.1c0.1,0.1,0.1,0.2,0.1,0.3c0,0.3-0.2,0.5-0.7,0.8c-2.5,1.2-6.2,1.7-8.9,1.7
		c-8.9,0-13.7-5.9-13.7-14.6c0-8.3,5.2-14.6,13.5-14.6c3.3,0,6,1.2,7.9,3.2c2.3,2.4,3.3,5.8,3.3,9.6v1
		C260.7,102.5,260.5,102.8,259,102.8 M255.8,98.7c0-3.9-2.1-7.4-6.6-7.4c-4.8,0-7.5,3.9-8,8.2h14.6V98.7z"/>
	<path fill="#260859" d="M226.8,46.6c1.7-17.8-10.2-32.8-27.9-34.5c-2.9-0.3-5.8-0.3-8.5,0.2c-1.4,0.2-1.9,0.7-1.9,1.1
		c0,0.4,0.3,0.8,2.3,0.8c7.3-0.1,16.5,2.4,20.6,7.2c-6.6-4.5-16.6-6.4-25.4-6.2c-3.4,0.1-5.9,0.7-7,1.5c-0.9,0.7-0.7,1.8,0.9,1.6
		c9.3-1.1,20.4,0.9,25.8,5.6c-8.4-4-19.3-5-26.3-4.1c-3.1,0.4-5.9,1.3-7.1,2.5c-0.9,0.9-0.5,1.9,0.8,1.7c9.4-1.5,21.7-0.9,28.4,4
		c-8.5-3.3-19-3.7-26.6-2.6c-4.1,0.6-6.2,1.9-7,3.3c-0.5,0.9-0.2,2,1.3,1.7c14.1-3.5,29.6-1,37.4,5.6c1.3,1.1,1.7,2.2,1.1,3.1
		c-0.6,1-2,0.8-3.1-0.4c-3.5-3.4-7.4-4.9-11-5.2c-2.2-0.2-3.4,0.4-3.9,1.3c-0.4,0.9-0.2,2,0.9,2.9c2.1,1.6,9.9,6.4,13.5,9.1
		c1.9,1.4,2.6,2.8,2.4,4.5c-0.2,1.8-1.3,3.1-3.5,3.6c6.1,1.2,13.6,0.7,18.7-0.8C225.7,53,226.4,50.7,226.8,46.6"/>
</g>
<g>
	<path fill="#F58025" d="M164.5,39.9c-1.7,17.8,10.2,32.8,27.9,34.5c2.9,0.3,5.8,0.3,8.5-0.2c1.4-0.2,1.9-0.7,1.9-1.1
		c0-0.4-0.3-0.8-2.3-0.8c-7.3,0.1-16.6-2.4-20.6-7.2c6.6,4.5,16.6,6.4,25.4,6.2c3.4-0.1,5.9-0.7,7-1.5c0.9-0.7,0.7-1.8-0.9-1.6
		c-9.3,1.1-20.4-0.9-25.8-5.6c8.4,4,19.3,5,26.3,4.1c3.1-0.4,5.9-1.3,7.1-2.5c0.9-0.9,0.5-1.9-0.8-1.7c-9.4,1.5-21.7,0.9-28.4-4
		c8.5,3.3,19,3.7,26.6,2.6c4.1-0.6,6.2-1.9,7-3.3c0.5-0.9,0.2-2-1.3-1.7c-14.1,3.5-29.6,1-37.4-5.6c-1.3-1.1-1.7-2.2-1.1-3.1
		c0.6-1,2-0.8,3.1,0.4c3.5,3.4,7.4,4.9,11,5.2c2.2,0.2,3.4-0.4,3.9-1.3c0.4-0.9,0.2-2.1-0.9-2.9c-2.1-1.5-9.9-6.4-13.5-9.1
		c-1.9-1.4-2.6-2.8-2.4-4.5c0.2-1.8,1.3-3.1,3.6-3.6c-6.1-1.2-13.6-0.7-18.7,0.8C165.7,33.6,164.9,35.8,164.5,39.9"/>
	<path fill="#260859" d="M134.5,122.7l-0.1,0.5c0,0.1-0.1,0.2-0.2,0.2c0,0-0.1,0-0.1,0c-0.2-0.1-0.6-0.2-1-0.2c-1,0-1.3,0.7-1.3,2
		v1.1h1.9c0.2,0,0.2,0,0.2,0.2v0.6c0,0.2-0.1,0.2-0.2,0.2h-1.9v6.5c0,0.2-0.1,0.4-0.3,0.4h-0.7c-0.2,0-0.3-0.1-0.3-0.3v-6.5h-0.9
		c-0.2,0-0.2,0-0.2-0.2v-0.5c0-0.2,0.1-0.2,0.2-0.2h0.9v-0.6c0-0.6,0-1,0.1-1.3c0.2-1.4,1-2.3,2.4-2.3c0.5,0,1,0.1,1.4,0.3
		c0.2,0.1,0.2,0.1,0.2,0.2C134.5,122.6,134.5,122.7,134.5,122.7"/>
	<path fill="#260859" d="M137.8,134.2c-2.3,0-3.4-1.8-3.4-4.1c0-2.3,1.2-4.1,3.5-4.1c2.3,0,3.4,1.7,3.4,4.1
		C141.3,132.4,140.1,134.2,137.8,134.2 M137.9,127.1c-1.6,0-2.1,1.5-2.1,3c0,1.5,0.5,3.1,2.1,3.1c1.6,0,2.1-1.5,2.1-3
		C140,128.6,139.5,127.1,137.9,127.1"/>
	<path fill="#260859" d="M146.5,127.1c0,0.1-0.1,0.2-0.2,0.2h0c-0.1,0-0.3,0-0.4,0c-0.5,0-1.1,0.4-1.5,1v5.5c0,0.2-0.1,0.3-0.3,0.3
		h-0.7c-0.2,0-0.3-0.1-0.3-0.3v-7.2c0-0.2,0.1-0.3,0.3-0.3h0.6c0.2,0,0.3,0.1,0.3,0.3l0,0.6c0.4-0.5,0.9-1,1.7-1c0.1,0,0.3,0,0.4,0
		c0.1,0,0.1,0.1,0.1,0.2v0.1L146.5,127.1"/>
	<path fill="#260859" d="M157.8,134h-0.6c-0.2,0-0.3-0.1-0.3-0.3l0-0.6c-0.5,0.6-1.4,1.1-2.2,1.1c-2.2,0-3.1-1.9-3.1-4
		c0-2.4,1.3-4.2,3.3-4.2c0.7,0,1.5,0.3,2,0.9v-4.2c0-0.2,0-0.3,0.2-0.3l0.7-0.1h0.1c0.2,0,0.2,0.1,0.2,0.3v11.2
		C158,133.9,157.9,134,157.8,134 M156.7,128.2c-0.3-0.6-1-1.1-1.8-1.1c-1.4,0-2.1,1.2-2.1,3c0,1.7,0.7,3,2,3c0.7,0,1.5-0.5,1.9-1.1
		V128.2z"/>
	<path fill="#260859" d="M165.7,130.3h-4.6c0,1.5,0.9,2.7,2.4,2.7c0.6,0,1.3-0.1,1.8-0.3c0.1,0,0.1,0,0.2,0c0.1,0,0.2,0,0.2,0.1
		l0.2,0.6c0,0,0,0.1,0,0.1c0,0.1-0.1,0.1-0.2,0.2c-0.6,0.3-1.6,0.5-2.3,0.5c-2.3,0-3.6-1.6-3.6-4.1c0-2.3,1.3-4.1,3.5-4.1
		c0.9,0,1.6,0.3,2.1,0.9c0.6,0.7,0.9,1.6,0.9,2.7v0.3C166.2,130.2,166.1,130.3,165.7,130.3 M164.9,129.2c0-1.1-0.6-2.1-1.7-2.1
		c-1.3,0-2,1.1-2.1,2.3h3.8V129.2z"/>
	<path fill="#260859" d="M174.4,134h-0.6c-0.7,0-1-0.6-1-1.2h0c-0.3,0.7-1.3,1.4-2.3,1.4c-2.1,0-3-1.9-3-3.9c0-2.7,1.5-4.2,3.2-4.2
		c0.8,0,1.6,0.3,2,1l0-0.5c0-0.2,0.1-0.3,0.3-0.3h0.7c0.2,0,0.3,0.1,0.3,0.3v5.7c0,0.4,0,0.6,0.1,0.7c0.1,0.1,0.1,0.1,0.3,0.1h0.1
		c0.1,0,0.2,0,0.2,0.2v0.6C174.7,134,174.6,134,174.4,134 M172.7,128.3c-0.4-0.7-1.1-1.2-1.8-1.2c-1.2,0-2,1.1-2,3
		c0,1.8,0.8,2.9,1.9,2.9c1,0,1.7-0.8,2-1.6V128.3z"/>
	<path fill="#260859" d="M180.8,122.7l-0.1,0.5c0,0.1-0.1,0.2-0.2,0.2c0,0-0.1,0-0.1,0c-0.2-0.1-0.6-0.2-1-0.2c-1,0-1.3,0.7-1.3,2
		v1.1h1.9c0.1,0,0.2,0,0.2,0.2v0.6c0,0.2-0.1,0.2-0.2,0.2h-1.9v6.5c0,0.2-0.1,0.4-0.3,0.4h-0.7c-0.2,0-0.3-0.1-0.3-0.3v-6.5h-0.9
		c-0.2,0-0.2,0-0.2-0.2v-0.5c0-0.2,0.1-0.2,0.2-0.2h0.9v-0.6c0-0.6,0-1,0.1-1.3c0.2-1.4,1-2.3,2.4-2.3c0.5,0,1,0.1,1.4,0.3
		c0.2,0.1,0.2,0.1,0.2,0.2C180.8,122.6,180.8,122.7,180.8,122.7"/>
	<path fill="#260859" d="M185.4,134.2c-0.8,0-1.6-0.5-2-1l0,0.6c0,0.2-0.1,0.3-0.3,0.3h-0.6c-0.2,0-0.3-0.1-0.3-0.3v-11.1
		c0-0.2,0-0.3,0.2-0.3l0.7-0.1h0.1c0.2,0,0.2,0.1,0.2,0.3v4.5c0.5-0.5,1.2-0.9,2.2-0.9c0.8,0,1.4,0.3,1.9,0.7c0.8,0.7,1.1,2,1.1,3.3
		C188.7,132.3,187.7,134.2,185.4,134.2 M185.4,127.2c-0.7,0-1.4,0.4-1.9,1v3.9c0.4,0.6,1.1,1.1,1.8,1.1c1.5,0,2.1-1.4,2.1-2.9
		C187.4,128.4,186.8,127.2,185.4,127.2"/>
	<path fill="#260859" d="M191.6,134h-0.7c-0.2,0-0.3-0.1-0.3-0.3v-11.1c0-0.2,0-0.3,0.2-0.3l0.8-0.1h0.1c0.1,0,0.2,0.1,0.2,0.3v11.2
		C191.9,133.9,191.8,134,191.6,134"/>
	<path fill="#260859" d="M195.8,123.7c0-0.5-0.4-0.8-0.8-0.8c-0.4,0-0.8,0.3-0.8,0.8c0,0.5,0.4,0.8,0.8,0.8
		C195.4,124.4,195.8,124.1,195.8,123.7 M195.7,133.7v-7.2c0-0.2-0.1-0.3-0.3-0.3h-0.7c-0.2,0-0.3,0.1-0.3,0.3v7.2
		c0,0.2,0.1,0.3,0.3,0.3h0.7C195.6,134,195.7,133.9,195.7,133.7"/>
	<path fill="#260859" d="M204,134h-0.7c-0.2,0-0.3-0.1-0.3-0.3v-4.5c0-1.2-0.3-2-1.5-2c-0.7,0-1.6,0.4-2.1,0.9v5.6
		c0,0.2-0.1,0.3-0.3,0.3h-0.7c-0.2,0-0.3-0.1-0.3-0.3v-7.2c0-0.2,0.1-0.3,0.3-0.3h0.7c0.2,0,0.3,0.1,0.3,0.3l0,0.5
		c0.7-0.6,1.6-1,2.5-1c1.7,0,2.4,1.1,2.4,2.9v4.8C204.2,133.9,204.2,134,204,134"/>
	<path fill="#260859" d="M212.4,134h-0.6c-0.2,0-0.3-0.1-0.3-0.3l0-0.6c-0.5,0.6-1.4,1.1-2.2,1.1c-2.2,0-3.1-1.9-3.1-4
		c0-2.4,1.3-4.2,3.3-4.2c0.7,0,1.5,0.3,2,0.9v-4.2c0-0.2,0-0.3,0.2-0.3l0.7-0.1h0.1c0.1,0,0.2,0.1,0.2,0.3v11.2
		C212.7,133.9,212.6,134,212.4,134 M211.4,128.2c-0.3-0.6-1-1.1-1.8-1.1c-1.4,0-2.1,1.2-2.1,3c0,1.7,0.7,3,2,3
		c0.7,0,1.5-0.5,1.9-1.1V128.2z"/>
	<path fill="#260859" d="M222,134.2c-0.7,0-1.5-0.3-2-0.9v4.3c0,0.2-0.1,0.3-0.3,0.3H219c-0.2,0-0.3-0.1-0.3-0.3v-11.1
		c0-0.2,0.1-0.3,0.3-0.3h0.6c0.2,0,0.3,0.1,0.3,0.3v0.6c0.5-0.6,1.4-1,2.2-1c2.1,0,3.1,1.9,3.1,4C225.3,132.2,224.2,134.2,222,134.2
		 M222,127.1c-0.7,0-1.5,0.5-1.9,1v3.8c0.3,0.6,1.1,1.1,1.8,1.1c1.6,0,2.1-1.6,2.1-3C224,128.7,223.5,127.1,222,127.1"/>
	<path fill="#260859" d="M232.7,130.3h-4.6c0,1.5,0.9,2.7,2.4,2.7c0.6,0,1.3-0.1,1.8-0.3c0.1,0,0.1,0,0.2,0c0.1,0,0.2,0,0.2,0.1
		l0.2,0.6c0,0,0,0.1,0,0.1c0,0.1-0.1,0.1-0.2,0.2c-0.6,0.3-1.6,0.5-2.3,0.5c-2.3,0-3.6-1.6-3.6-4.1c0-2.3,1.3-4.1,3.5-4.1
		c0.9,0,1.6,0.3,2.1,0.9c0.6,0.7,0.9,1.6,0.9,2.7v0.3C233.2,130.2,233.1,130.3,232.7,130.3 M231.9,129.2c0-1.1-0.6-2.1-1.7-2.1
		c-1.3,0-2,1.1-2.1,2.3h3.8V129.2z"/>
	<path fill="#260859" d="M237.8,134.2c-2.3,0-3.4-1.8-3.4-4.1c0-2.3,1.2-4.1,3.5-4.1c2.3,0,3.4,1.7,3.4,4.1
		C241.3,132.4,240.1,134.2,237.8,134.2 M237.9,127.1c-1.6,0-2.1,1.5-2.1,3c0,1.5,0.5,3.1,2.1,3.1c1.6,0,2.1-1.5,2.1-3
		C240,128.6,239.5,127.1,237.9,127.1"/>
	<path fill="#260859" d="M246.4,134.2c-0.7,0-1.5-0.3-2-0.9v4.3c0,0.2-0.1,0.3-0.3,0.3h-0.7c-0.2,0-0.3-0.1-0.3-0.3v-11.1
		c0-0.2,0.1-0.3,0.3-0.3h0.6c0.2,0,0.3,0.1,0.3,0.3v0.6c0.5-0.6,1.4-1,2.2-1c2.1,0,3.1,1.9,3.1,4
		C249.6,132.2,248.6,134.2,246.4,134.2 M246.3,127.1c-0.7,0-1.5,0.5-1.9,1v3.8c0.3,0.6,1.1,1.1,1.8,1.1c1.6,0,2.1-1.6,2.1-3
		C248.3,128.7,247.9,127.1,246.3,127.1"/>
	<path fill="#260859" d="M252.5,134h-0.7c-0.2,0-0.3-0.1-0.3-0.3v-11.1c0-0.2,0-0.3,0.2-0.3l0.8-0.1h0.1c0.1,0,0.2,0.1,0.2,0.3v11.2
		C252.7,133.9,252.6,134,252.5,134"/>
	<path fill="#260859" d="M260.5,130.3h-4.6c0,1.5,0.9,2.7,2.4,2.7c0.6,0,1.3-0.1,1.8-0.3c0.1,0,0.1,0,0.2,0c0.1,0,0.1,0,0.2,0.1
		l0.2,0.6c0,0,0,0.1,0,0.1c0,0.1-0.1,0.1-0.2,0.2c-0.6,0.3-1.6,0.5-2.3,0.5c-2.3,0-3.6-1.6-3.6-4.1c0-2.3,1.3-4.1,3.5-4.1
		c0.9,0,1.6,0.3,2.1,0.9c0.6,0.7,0.9,1.6,0.9,2.7v0.3C261,130.2,260.9,130.3,260.5,130.3 M259.7,129.2c0-1.1-0.6-2.1-1.7-2.1
		c-1.3,0-2,1.1-2.1,2.3h3.8V129.2z"/>
</g>
</svg>
