<?xml version="1.0" encoding="utf-8"?>
<!-- Generator: Adobe Illustrator 13.0.0, SVG Export Plug-In . SVG Version: 6.00 Build 14948)  -->
<!DOCTYPE svg PUBLIC "-//W3C//DTD SVG 1.1//EN" "http://www.w3.org/Graphics/SVG/1.1/DTD/svg11.dtd">
<svg version="1.1" id="Bournville" xmlns="http://www.w3.org/2000/svg" xmlns:xlink="http://www.w3.org/1999/xlink" x="0px" y="0px"
	 width="390px" height="150px" viewBox="0 0 390 150" enable-background="new 0 0 390 150" xml:space="preserve">
<g>
	<path fill="#203C73" d="M297.4,121.4l1.8,1c-0.4,1.5-1.2,2.7-2.4,3.6c-1.2,0.8-2.6,1.3-4.2,1.3c-2.1,0-3.8-0.7-5.1-2
		c-1.3-1.4-1.9-3-1.9-5.1c0-2.2,0.6-3.9,1.9-5.2c1.3-1.3,2.9-1.9,5-1.9c1.8,0,3.3,0.5,4.6,1.5v-1.3h1.8v4.5H297
		c-0.4-0.9-1-1.6-1.8-2.1c-0.8-0.5-1.7-0.7-2.6-0.7c-1.4,0-2.5,0.5-3.4,1.5c-0.9,1-1.3,2.3-1.3,3.8c0,1.6,0.5,2.8,1.4,3.8
		c0.9,1,2.1,1.5,3.4,1.5c1.1,0,2-0.3,2.9-1C296.4,123.6,297,122.6,297.4,121.4"/>
	<path fill="#203C73" d="M300.4,120c0-2,0.7-3.7,2-5c1.3-1.3,3-2,5.1-2c2.1,0,3.9,0.7,5.2,2c1.3,1.4,2,3.1,2,5.1
		c0,2.1-0.7,3.8-2,5.1c-1.4,1.4-3.1,2-5.2,2c-1.3,0-2.6-0.3-3.7-1c-1.1-0.6-2-1.5-2.5-2.7C300.6,122.4,300.4,121.2,300.4,120
		 M302.6,120c0,1.5,0.4,2.8,1.3,3.8c0.9,1,2.1,1.5,3.5,1.5c1.4,0,2.6-0.5,3.5-1.6c0.9-1.1,1.4-2.3,1.4-3.8c0-1.5-0.5-2.7-1.4-3.7
		c-0.9-1-2.1-1.5-3.5-1.5c-1.4,0-2.6,0.5-3.5,1.5C303.1,117.3,302.6,118.5,302.6,120z"/>
</g>
<polyline fill="#203C73" points="317.3,125.3 317.3,114.9 315.6,114.9 315.6,113.1 321.2,113.1 321.2,114.9 319.5,114.9 
	319.5,125.3 323.8,125.3 323.8,120.5 325.7,120.5 325.7,127 315.6,127 315.6,125.3 317.3,125.3 "/>
<polyline fill="#203C73" points="328.4,125.3 328.4,114.9 326.6,114.9 326.6,113.1 332.3,113.1 332.3,114.9 330.6,114.9 
	330.6,125.3 334.8,125.3 334.8,120.5 336.7,120.5 336.7,127 326.6,127 326.6,125.3 328.4,125.3 "/>
<polyline fill="#203C73" points="339.7,125.3 339.7,114.9 337.9,114.9 337.9,113.1 349.4,113.1 349.4,117.3 347.7,117.3 
	347.7,114.9 341.8,114.9 341.8,119 346.9,119 346.9,120.7 341.8,120.7 341.8,125.3 347.7,125.3 347.7,122.7 349.4,122.7 349.4,127 
	337.9,127 337.9,125.3 339.7,125.3 "/>
<g>
	<path fill="#203C73" d="M360.4,120.3h5c0,0.2,0,0.3,0,0.5c0,1.9-0.6,3.5-1.9,4.7c-1.3,1.2-3,1.8-5,1.8c-2.5,0-4.4-0.7-5.6-2.1
		c-1.2-1.4-1.8-3.1-1.8-5.1c0-2,0.6-3.7,1.9-5.1c1.3-1.3,3-2,5.1-2c1.9,0,3.5,0.6,4.8,1.8v-1.5h1.8v4.5h-1.8c-0.3-0.8-0.9-1.4-1.8-2
		c-0.9-0.6-1.8-0.9-2.9-0.9c-1.5,0-2.7,0.5-3.6,1.5c-0.9,1-1.3,2.3-1.3,3.7c0,1.7,0.5,3,1.5,3.9c1,1,2.2,1.4,3.6,1.4
		c1.1,0,2.1-0.3,3-0.9c0.9-0.6,1.4-1.4,1.5-2.4h-2.5V120.3"/>
</g>
<polyline fill="#203C73" points="368.4,125.3 368.4,114.9 366.6,114.9 366.6,113.1 378.1,113.1 378.1,117.3 376.4,117.3 
	376.4,114.9 370.5,114.9 370.5,119 375.6,119 375.6,120.7 370.5,120.7 370.5,125.3 376.4,125.3 376.4,122.7 378.1,122.7 378.1,127 
	366.6,127 366.6,125.3 368.4,125.3 "/>
<path fill="#203C73" d="M47.9,106.6h22c4.1,0,7.3-0.2,9.6-0.6c2.4-0.4,4.5-1.2,6.5-2.4c2-1.2,3.6-2.9,4.8-5c1.2-2.2,1.8-4.5,1.8-7.2
	c0-3.1-0.8-5.8-2.4-8.2c-1.6-2.4-3.9-4.1-6.9-5.1c2.2-1,3.8-2.5,4.9-4.5c1.1-2,1.7-4.3,1.7-6.8c0-3.3-0.9-6.1-2.8-8.5
	c-1.9-2.4-4.1-3.9-6.5-4.5c-2.5-0.6-6.1-0.9-11.1-0.9H51.6v6.7h6.6v40.3h-7.4 M66.3,59.6h5.1c6.9,0,10.4,2.6,10.4,7.7
	c0,2.6-0.8,4.6-2.3,6c-1.5,1.3-4.2,2-8.1,2h-5.1V59.6z M82.7,96.5c-1.2,1.5-2.7,2.4-4.5,2.9c-1.8,0.4-4.8,0.6-8.8,0.6h-3.1v-18H71
	c3.2,0,5.7,0.2,7.5,0.7c1.8,0.5,3.2,1.4,4.3,2.9c1.1,1.4,1.7,3.2,1.7,5.3C84.4,93.1,83.9,95,82.7,96.5z"/>
<polyline fill="#203C73" points="52.9,101.4 19.6,27.4 285.5,55.5 12.6,23.6 47.9,106.6 "/>
<path fill="#203C73" d="M94.4,87.9c0-5.5,1.8-10,5.4-13.5c3.6-3.5,8-5.3,13.2-5.3c5.1,0,9.5,1.7,13.2,5.2c3.7,3.5,5.5,8,5.5,13.6
	c0,5.6-1.8,10.1-5.5,13.5c-3.6,3.5-8.1,5.2-13.2,5.2c-5.3,0-9.7-1.8-13.3-5.3C96.2,97.8,94.4,93.3,94.4,87.9 M101.8,87.8
	c0,3.5,1.1,6.3,3.3,8.6c2.2,2.2,4.9,3.4,8,3.4c3.2,0,5.9-1.1,8.1-3.4c2.2-2.3,3.2-5.1,3.2-8.6c0-3.5-1.1-6.4-3.3-8.6
	c-2.2-2.2-4.9-3.3-8-3.3c-3.3,0-6,1.1-8.1,3.4C102.8,81.6,101.8,84.5,101.8,87.8z"/>
<path fill="#203C73" d="M197.6,68.6c-2.8,0-5.1,0.2-6.7,0.7c-1.6,0.4-3.2,1.4-4.7,2.8c-1.5,1.5-2.6,3.3-3.4,5.5v-8.4h-13.4v6.5h7.5
	v24.3h-11.2V69.2h-13.9v6.5h6.6V96c-3.9,3.3-7.5,4.9-10.9,4.9c-1.1,0-2.1-0.3-2.8-0.9c-0.7-0.6-1.2-1.4-1.3-2.4
	c-0.2-1-0.2-2.8-0.2-5.6V69.2h-12.6v6.5h5.3v17.2c0,3.9,0.3,6.7,0.8,8.4c0.6,1.8,1.6,3.2,3.3,4.3c1.6,1.1,3.7,1.7,6.2,1.7
	c3.9,0,8.1-1.7,12.4-4.9v4.3h34.1v-6.5h-8.2v-8.2c0-5.1,0.4-8.6,1.3-10.6c0.9-1.9,2.3-3.3,4.1-4.1c1.9-0.8,4.6-1.1,8.4-1.1h1.5v-7.4
	H197.6"/>
<path fill="#203C73" d="M215.5,69.2v4.5c4.7-3.4,9-5.1,12.9-5.1c2.4,0,4.4,0.6,6,1.7c1.6,1.1,2.6,2.5,3.1,4.2
	c0.5,1.7,0.7,4.1,0.7,7.3v18.3h6.3v6.5h-13.6V82.2c0-2.8-0.4-4.7-1.3-5.5c-0.8-0.9-1.9-1.3-3.1-1.3c-3.3,0-6.9,1.6-11,4.8v20h6.4
	v6.5h-20.4v-6.5h6.6V75.8h-6.6v-6.5H215.5"/>
<polyline fill="#203C73" points="258.7,107.2 246.5,75.8 239.9,75.8 239.9,69.2 258.7,69.2 258.7,75.8 253.8,75.8 261.9,96.9 
	270,75.8 264.8,75.8 264.8,69.2 283,69.2 283,75.8 277.3,75.8 265.4,107.2 258.7,107.2 "/>
<path fill="#203C73" d="M294.7,60.9c1.2,0,2.3-0.4,3.1-1.3c0.9-0.9,1.3-1.9,1.3-3.2c0-1.2-0.4-2.3-1.3-3.1c-0.9-0.9-1.9-1.3-3.1-1.3
	c-1.3,0-2.3,0.4-3.2,1.3c-0.8,0.9-1.3,1.9-1.3,3.1c0,1.2,0.4,2.3,1.3,3.1C292.4,60.5,293.5,60.9,294.7,60.9"/>
<polyline fill="#203C73" points="336.4,100.1 336.4,52.9 322.4,52.9 322.4,59.4 329,59.4 329,100.1 317.6,100.1 317.6,52.9 
	303.6,52.9 303.6,59.4 310.2,59.4 310.2,100.1 298.7,100.1 298.7,69.2 285.5,69.2 285.5,75.8 291.3,75.8 291.3,100.1 285.5,100.1 
	285.5,106.6 342.1,106.6 342.1,100.1 336.4,100.1 "/>
<path fill="#203C73" d="M378.3,89.6h-29.8c0.4,3.3,1.7,5.9,3.9,7.9c2.1,2,4.9,3,8.2,3c4.9,0,8.7-1.9,11.5-5.8l6.1,2.7
	c-2,3.1-4.6,5.4-7.8,6.9c-3.2,1.5-6.5,2.3-10,2.3c-5.4,0-10.1-1.7-13.9-5.1c-3.8-3.4-5.8-7.9-5.8-13.7c0-5.4,1.9-9.9,5.6-13.4
	c3.7-3.5,8-5.3,12.9-5.3c4.7,0,9.1,1.7,12.9,5.1C376.1,77.8,378.1,82.9,378.3,89.6 M371.1,84.6c-0.5-2.5-1.8-4.8-3.9-6.7
	c-2.1-2.1-4.7-3-7.7-3c-2.8,0-5.1,0.9-7.1,2.7c-2,1.8-3.2,4.2-3.6,7H371.1z"/>
</svg>
