<?xml version="1.0" encoding="utf-8"?>
<!-- Generator: Adobe Illustrator 13.0.0, SVG Export Plug-In . SVG Version: 6.00 Build 14948)  -->
<!DOCTYPE svg PUBLIC "-//W3C//DTD SVG 1.1//EN" "http://www.w3.org/Graphics/SVG/1.1/DTD/svg11.dtd">
<svg version="1.1" id="Wesleyan" xmlns="http://www.w3.org/2000/svg" xmlns:xlink="http://www.w3.org/1999/xlink" x="0px" y="0px"
	 width="390px" height="150px" viewBox="0 0 390 150" enable-background="new 0 0 390 150" xml:space="preserve">
<g>
	<defs>
		<rect id="SVGID_1_" x="52.6" y="30.2" width="286.5" height="57.4"/>
	</defs>
	<clipPath id="SVGID_2_">
		<use xlink:href="#SVGID_1_"  overflow="visible"/>
	</clipPath>
	<path clip-path="url(#SVGID_2_)" fill="#455560" d="M96.1,72.2h-5.3l-7-19.3c-0.6-1.8-1.4-4-2-6.2h-0.1c-0.6,2.2-1.3,4.3-2,6.1
		l-7.1,19.3h-5.2L52.6,30.6h7.3l8.5,25.8c0.7,2.1,1.3,4,1.8,6h0.1c0.5-1.9,1.2-3.9,1.9-6l6.4-18l-2.8-7.9h6.7l8.8,25.4
		c0.8,2.3,1.6,4.3,2.1,6.3h0.2c0.4-2.1,0.9-3.9,1.6-6.1l8.1-25.6h6.8L96.1,72.2z"/>
	<polygon clip-path="url(#SVGID_2_)" fill="#455560" points="115.4,71.9 115.4,30.6 137.5,30.6 135.5,36.2 122,36.2 122,48 
		135.4,48 135.4,53.6 122,53.6 122,66.3 137.5,66.3 137.5,71.9 	"/>
	<path clip-path="url(#SVGID_2_)" fill="#455560" d="M155,72.6c-5.7,0-9.6-1.9-12.2-3.6l2.8-5c2.1,1.4,5.3,3.1,9.2,3.1
		c3.4,0,7.3-1.5,7.3-5.3c0-6.3-10-7.6-15-13.2c-1.7-1.9-2.8-4.2-2.8-7.4c0-6,4.6-11.1,13-11.1c4.4,0,7.7,1.1,9.8,2.3l-0.1,6.2
		c-2.8-1.7-6-2.9-9.4-2.9c-3.6,0-6.5,1.5-6.5,4.8c0,8.2,18.1,7.9,18.1,20.6C169.1,68.1,163,72.6,155,72.6"/>
	<polygon clip-path="url(#SVGID_2_)" fill="#455560" points="176,71.9 176,30.6 182.5,30.6 182.5,66.3 197.6,66.3 196,71.9 	"/>
	<polygon clip-path="url(#SVGID_2_)" fill="#455560" points="202.1,71.9 202.1,30.6 224.2,30.6 222.2,36.2 208.7,36.2 208.7,48 
		222.1,48 222.1,53.6 208.7,53.6 208.7,66.3 224.2,66.3 224.2,71.9 	"/>
	<path clip-path="url(#SVGID_2_)" fill="#455560" d="M248.4,55.5v16.5h-6.6V55.4l-14.1-24.8h7.3l6.8,12.4c1.1,2,2.4,4.5,3.3,6.5h0.1
		c0.9-2,2.1-4.4,3.2-6.3l6.8-12.5h6.9L248.4,55.5z"/>
	<path clip-path="url(#SVGID_2_)" fill="#455560" d="M278.3,44.8c-0.7-2.1-1.3-3.8-1.5-5.1h-0.1c-0.4,1.4-0.9,3.1-1.6,5L271,55.9
		h11.1L278.3,44.8z M288.4,71.9l-4.1-10.6H269l-3.9,10.6h-6.5l16-41.5h4.6l16.4,41.5H288.4z"/>
	<path clip-path="url(#SVGID_2_)" fill="#455560" d="M330.9,71.9l-19.5-25.4c-2-2.6-3.1-4.3-4.1-6h-0.1c0.1,1.4,0.1,3.4,0.1,5.4v26
		h-6.5V30.6h6.7l18.7,24.5c2.3,3,3.4,4.5,4.3,6.2h0.1c-0.1-1.7-0.1-3.8-0.1-5.8V30.6h6.6v41.4H330.9z"/>
</g>
<g>
	<defs>
		<rect id="SVGID_3_" x="49.6" y="86.1" width="286" height="33.5"/>
	</defs>
	<clipPath id="SVGID_4_">
		<use xlink:href="#SVGID_3_"  overflow="visible"/>
	</clipPath>
	<path clip-path="url(#SVGID_4_)" fill="#455560" d="M56.9,103.5c0.1-0.3,0.3-0.8,0.3-1.1c0-0.2-0.1-0.4-0.3-0.4
		c-0.8,0-2.4,2.4-2.8,2.4c-0.2,0-0.4-0.1-0.4-0.3c0-0.5,1.2-1.8,1.6-2.1c1-0.9,2.6-1.7,4-1.7c1.2,0,1.9,0.7,1.9,1.9
		c0,0.7-0.3,1.6-0.5,2.3l-1.2,3.6c-0.2,0.6-0.8,2.3-0.8,2.9c0,0.3,0.2,0.6,0.5,0.6c0.9,0,2.7-2.1,3.2-2.8c1.3-1.7,2.2-3.5,2.8-5.5
		l0.4-1.4c0.2-0.8,0.2-1.2,1.2-1.2h2.5c0.2,0,0.5,0,0.5,0.3c0,0.2-0.2,0.7-0.2,0.9l-1.2,4.1c-0.3,1.2-1.1,3.8-1.1,5
		c0,0.6,0.2,1.1,0.9,1.1c1.2,0,2.5-1.5,3.2-2.4c0.9-1.2,1.9-3.1,1.9-4.6c0-0.7-0.2-0.9-0.6-1.5c-0.3-0.6-0.6-0.9-0.6-1.6
		c0-0.9,0.6-1.7,1.6-1.7c1.2,0,1.7,0.9,1.7,2c0,2.3-1.6,5.4-2.8,7.2c-1.5,2.3-4,4.2-6.8,4.2c-1.2,0-2.2-0.5-2.2-1.8
		c0-1.4,0.5-2.9,0.7-4.3c-1.5,2.4-4,6.1-7.2,6.1c-1.5,0-2.3-0.8-2.3-2.3c0-0.9,0.3-1.7,0.6-2.5L56.9,103.5z"/>
	<path clip-path="url(#SVGID_4_)" fill="#455560" d="M81.5,108.8c0,1.6,0.9,2.8,2.6,2.8c2.5,0,4.1-2.5,4.6-2.5
		c0.2,0,0.3,0.2,0.3,0.3c0,0.6-1.7,2.1-2.2,2.4c-1.3,0.9-2.9,1.5-4.5,1.5c-2.8,0-5.2-1.6-5.2-4.6c0-4.8,5.2-8.7,9.7-8.7
		c1.9,0,3.9,0.8,3.9,3c0,4.1-6.2,4.3-9.2,4.7L81.5,108.8z M85.3,105.6c0.8-0.8,1.6-2.2,1.6-3.4c0-0.6-0.3-1.2-0.9-1.2
		c-2.2,0-4,4.1-4.3,5.9C83,106.9,84.4,106.5,85.3,105.6"/>
	<path clip-path="url(#SVGID_4_)" fill="#455560" d="M115.2,100.2c0.3,0,1.1-0.1,1.1,0.3c0,0.5-1.4,4.6-1.6,5.5l-0.6,2.2
		c-0.1,0.5-0.5,1.5-0.5,2c0,0.2,0.1,0.5,0.4,0.5c0.9,0,1.9-2.2,2.4-2.2c0.2,0,0.3,0.2,0.3,0.4c0,0.6-1.1,1.8-1.5,2.2
		c-1.1,1.1-2.8,2.3-4.4,2.3c-0.8,0-1.3-0.5-1.3-1.4c0-1.4,0.6-3.2,0.9-4.6c-1.6,2.3-4.3,5.9-7.4,5.9c-1.9,0-2.5-1.8-2.5-3.4
		c0-2.6,1.3-4.8,3.1-6.6c1.7-1.6,4.2-3.1,6.5-3.1c0.6,0,1.2,0.1,1.7,0.4c0.1,0,0.2,0.1,0.3,0.1c0.1,0,0.2-0.1,0.2-0.2
		c0.4-0.7,1-0.5,1.7-0.5H115.2z M111.7,102.5c0-0.6-0.5-1.2-1.2-1.2c-1.8,0-3.4,2.4-4.2,3.8c-0.8,1.4-1.6,3.1-1.6,4.6
		c0,0.6,0.2,1.2,0.8,1.2C107.6,110.9,111.7,104.4,111.7,102.5"/>
	<path clip-path="url(#SVGID_4_)" fill="#455560" d="M123,112c-0.1,0.3-0.3,0.7-0.5,0.9c-0.4,0.3-1.5,0.2-2,0.2h-0.8
		c-0.3,0-0.9,0.1-0.9-0.3c0-0.1,0.1-0.5,0.1-0.7l2-6.7c0.2-0.5,0.6-1.9,0.6-2.5c0-0.2-0.1-0.5-0.3-0.5c-1,0-2,2.1-2.6,2.1
		c-0.2,0-0.3-0.1-0.3-0.3c0-0.5,1-1.6,1.4-1.9c1-1.1,2.6-2.2,4.1-2.2c1,0,1.6,0.5,1.6,1.5c0,1-0.3,2.2-0.5,3.2l-0.3,1.3
		c1.4-2.2,3.1-6,6.1-6c1.1,0,1.9,0.9,1.9,2c0,1.2-0.9,2.6-2.2,2.6c-1,0-1.4-0.6-1.5-1.5c0-0.3-0.1-0.5-0.4-0.5
		c-0.9,0-2.5,2.7-2.8,3.4L123,112z"/>
	<path clip-path="url(#SVGID_4_)" fill="#455560" d="M136.7,108.8c0,1.6,0.9,2.8,2.6,2.8c2.5,0,4.1-2.5,4.6-2.5
		c0.2,0,0.3,0.2,0.3,0.3c0,0.6-1.7,2.1-2.2,2.4c-1.3,0.9-2.9,1.5-4.5,1.5c-2.8,0-5.2-1.6-5.2-4.6c0-4.8,5.2-8.7,9.7-8.7
		c1.9,0,3.9,0.8,3.9,3c0,4.1-6.2,4.3-9.2,4.7L136.7,108.8z M140.5,105.6c0.8-0.8,1.6-2.2,1.6-3.4c0-0.6-0.3-1.2-0.9-1.2
		c-2.2,0-4,4.1-4.3,5.9C138.2,106.9,139.6,106.5,140.5,105.6"/>
	<path clip-path="url(#SVGID_4_)" fill="#455560" d="M170.3,100.2c0.3,0,1.1-0.1,1.1,0.3c0,0.5-1.4,4.6-1.6,5.5l-0.6,2.2
		c-0.1,0.5-0.5,1.5-0.5,2c0,0.2,0.1,0.5,0.4,0.5c0.9,0,1.9-2.2,2.4-2.2c0.2,0,0.3,0.2,0.3,0.4c0,0.6-1.1,1.8-1.5,2.2
		c-1.1,1.1-2.8,2.3-4.4,2.3c-0.8,0-1.3-0.5-1.3-1.4c0-1.4,0.6-3.2,0.9-4.6c-1.6,2.3-4.3,5.9-7.4,5.9c-1.9,0-2.5-1.8-2.5-3.4
		c0-2.6,1.3-4.8,3.1-6.6c1.7-1.6,4.2-3.1,6.5-3.1c0.6,0,1.2,0.1,1.7,0.4c0.1,0,0.2,0.1,0.3,0.1c0.1,0,0.2-0.1,0.2-0.2
		c0.4-0.7,1-0.5,1.7-0.5H170.3z M166.9,102.5c0-0.6-0.5-1.2-1.2-1.2c-1.8,0-3.4,2.4-4.2,3.8c-0.8,1.4-1.6,3.1-1.6,4.6
		c0,0.6,0.2,1.2,0.8,1.2C162.8,110.9,166.9,104.4,166.9,102.5"/>
	<path clip-path="url(#SVGID_4_)" fill="#455560" d="M177.9,108.9c-0.2,0.5-0.5,1.5-0.5,2.1c0,0.2,0.1,0.5,0.3,0.5
		c0.6,0,1.7-1.3,2-1.8c0.1-0.2,0.4-0.7,0.7-0.7c0.2,0,0.3,0.1,0.3,0.3c0,0.6-1.2,1.9-1.6,2.3c-1,1-2.5,1.9-3.9,1.9
		c-1.2,0-1.9-1-1.9-2.1c0-1.1,0.4-2.2,0.7-3.2l2.7-9c0.1-0.5,0.5-1.7,0.5-2.2c0-0.5-0.3-0.7-0.8-0.7c-0.4,0-1.1,0.1-1.1-0.5
		c0-0.7,1.3-0.6,1.7-0.6c1.4-0.1,3-0.2,4.2-1c0.1-0.1,0.4-0.3,0.6-0.2c0.2,0,0.3,0.1,0.3,0.3c0,0.2-0.1,0.3-0.1,0.5l-0.2,0.5
		L177.9,108.9z"/>
	<path clip-path="url(#SVGID_4_)" fill="#455560" d="M186.2,108.9c-0.2,0.5-0.5,1.5-0.5,2.1c0,0.2,0.1,0.5,0.3,0.5
		c0.6,0,1.7-1.3,2-1.8c0.1-0.2,0.4-0.7,0.7-0.7c0.2,0,0.3,0.1,0.3,0.3c0,0.6-1.2,1.9-1.6,2.3c-1,1-2.5,1.9-3.9,1.9
		c-1.2,0-1.9-1-1.9-2.1c0-1.1,0.4-2.2,0.7-3.2l2.7-9c0.1-0.5,0.5-1.7,0.5-2.2c0-0.5-0.3-0.7-0.8-0.7c-0.4,0-1.1,0.1-1.1-0.5
		c0-0.7,1.3-0.6,1.7-0.6c1.4-0.1,3-0.2,4.2-1c0.1-0.1,0.4-0.3,0.6-0.2c0.2,0,0.3,0.1,0.3,0.3c0,0.2-0.1,0.3-0.1,0.5l-0.2,0.5
		L186.2,108.9z"/>
	<path clip-path="url(#SVGID_4_)" fill="#455560" d="M213,100.2c0.3,0,1.1-0.1,1.1,0.3c0,0.5-1.4,4.6-1.6,5.5l-0.6,2.2
		c-0.1,0.5-0.5,1.5-0.5,2c0,0.2,0.1,0.5,0.4,0.5c0.9,0,1.9-2.2,2.4-2.2c0.2,0,0.3,0.2,0.3,0.4c0,0.6-1.1,1.8-1.5,2.2
		c-1.1,1.1-2.8,2.3-4.4,2.3c-0.8,0-1.3-0.5-1.3-1.4c0-1.4,0.6-3.2,0.9-4.6c-1.6,2.3-4.3,5.9-7.4,5.9c-1.9,0-2.5-1.8-2.5-3.4
		c0-2.6,1.3-4.8,3.1-6.6c1.7-1.6,4.2-3.1,6.5-3.1c0.6,0,1.2,0.1,1.7,0.4c0.1,0,0.2,0.1,0.3,0.1c0.1,0,0.2-0.1,0.2-0.2
		c0.4-0.7,1-0.5,1.7-0.5H213z M209.6,102.5c0-0.6-0.5-1.2-1.2-1.2c-1.8,0-3.4,2.4-4.2,3.8c-0.8,1.4-1.6,3.1-1.6,4.6
		c0,0.6,0.2,1.2,0.8,1.2C205.5,110.9,209.6,104.4,209.6,102.5"/>
	<path clip-path="url(#SVGID_4_)" fill="#455560" d="M219.2,98.1c0.1-0.3,0.3-0.9,0.3-1.3c0-0.6-0.5-0.7-1-0.7
		c-0.3,0-0.8,0.1-0.8-0.3c0-0.6,0.6-0.6,1-0.6c1.6,0,3.3-0.2,4.7-0.9c0.1-0.1,0.4-0.2,0.5-0.2c0.2,0,0.3,0.2,0.3,0.3
		c0,0.2-0.3,1-0.3,1.2l-2.8,9.6c1.2-2,3.5-5,6.1-5c2.1,0,3.1,2.3,3.1,4.1c0,5.2-4.6,9.2-9.7,9.2c-2.1,0-4.5-0.8-4.5-3.3
		c0-1.5,0.5-3.2,0.9-4.6L219.2,98.1z M224.6,108.9c0.8-1.4,1.7-3.4,1.7-5.1c0-0.6-0.3-1.5-1-1.5c-1.6,0-3.2,2.8-3.9,4.1
		c-0.8,1.3-1.7,3.5-1.7,5c0,0.6,0.3,1.1,0.9,1.1C222.1,112.5,223.9,110.2,224.6,108.9"/>
	<path clip-path="url(#SVGID_4_)" fill="#455560" d="M234.4,112.2c-1.3-1-2.1-2.4-2.1-4.1c0-4.7,4.7-7.9,9-7.9
		c3.4,0,6.6,2.1,6.6,5.7c0,4.7-5,7.6-9.3,7.6C237.1,113.5,235.7,113.1,234.4,112.2 M243.7,103.6c0-1.3-0.3-2.5-1.8-2.5
		c-1.9,0-3.2,2.1-3.9,3.6c-0.7,1.6-1.3,3.4-1.3,5.1c0,1.2,0.4,2.8,1.9,2.8C241.7,112.6,243.7,106.2,243.7,103.6"/>
	<path clip-path="url(#SVGID_4_)" fill="#455560" d="M259.5,107.7c-1,1.3-1.9,2.4-3.1,3.5c-1.2,1-2.7,2.2-4.3,2.2c-1.2,0-2-1-2-2.1
		c0-0.8,0.2-1.4,0.5-2.1l2.3-5.8c0.1-0.2,0.3-0.7,0.3-0.9c0-0.2-0.1-0.4-0.3-0.4c-0.9,0-2.3,2.2-2.8,2.2c-0.2,0-0.4-0.2-0.4-0.4
		c0-0.5,1.2-1.7,1.6-2c1.1-1,2.7-1.8,4.2-1.8c1.1,0,1.9,0.6,1.9,1.7c0,0.7-0.3,1.4-0.5,2.1l-1.9,5c-0.1,0.3-0.4,1-0.4,1.4
		c0,0.3,0.1,0.5,0.4,0.5c1.1,0,3.5-2.9,4.1-3.8c1.2-1.7,2-3.6,2.5-5.6c0.1-0.3,0.2-0.6,0.5-0.7c0.4-0.2,1.5-0.2,1.9-0.2h1.2
		c0.2,0,0.5,0,0.5,0.3c0,0.1-0.1,0.3-0.1,0.4l-2,6.7c-0.2,0.6-0.8,2.5-0.8,3c0,0.2,0.1,0.3,0.3,0.3c0.9,0,2.1-2.2,2.7-2.2
		c0.2,0,0.3,0.1,0.3,0.3c0,0.6-1.3,1.9-1.7,2.3c-1.1,1-2.5,2-4,2c-1,0-1.5-0.4-1.5-1.4c0-1.1,0.3-2.3,0.6-3.3l0.4-1.4L259.5,107.7z"
		/>
	<path clip-path="url(#SVGID_4_)" fill="#455560" d="M272.6,108.5c-0.2,0.5-0.5,1.8-0.5,2.3c0,0.2,0.1,0.5,0.4,0.5
		c1.1,0,2.5-2.6,3-2.6c0.2,0,0.4,0.1,0.4,0.3c0,0.6-1.2,1.9-1.6,2.3c-1,1-2.6,2.1-4.1,2.1c-1.4,0-2.1-0.9-2.1-2.2
		c0-1,0.4-2.4,0.7-3.4l1.8-5.9h-1.8c0,0-0.6,0.1-0.6-0.1c0-0.1,0.1-0.3,0.1-0.4c0.2-0.6,0.1-0.5,0.7-0.5h1.8l0.8-2.8
		c0.3-1.1,0.4-1,1.5-1h1.1c0.2,0,1.5-0.2,1.5,0.2c0,0.2-0.1,0.6-0.2,0.8l-0.8,2.9h2.3c0,0,0.5-0.1,0.5,0.1c0,0.1-0.1,0.3-0.1,0.4
		c-0.2,0.6-0.1,0.5-0.7,0.5h-2.3L272.6,108.5z"/>
	<path clip-path="url(#SVGID_4_)" fill="#455560" d="M291.7,115.5c-1.9,2.1-3.9,4.1-7,4.1c-1.1,0-2.5-0.5-2.5-1.8
		c0-0.9,0.8-1.5,1.6-1.5c1.7,0,1.9,1.6,3.2,1.6c1.1,0,2.1-1.2,2.5-2.1c0.7-1.4,0.8-2.8,0.8-4.3l-0.5-6.2c-0.1-0.5-0.3-2.9-1.2-2.9
		c-1.2,0-1.5,2.2-2.2,2.2c-0.2,0-0.3-0.2-0.3-0.4c0-0.5,0.9-1.8,1.2-2.2c1-1.1,2.3-1.9,3.9-1.9c1.9,0,2.3,1.9,2.6,3.4
		c0.3,1.7,0.4,3.7,0.4,5.5v2.5c1.2-1.5,3.5-4.3,3.5-6.4c0-0.6-0.1-0.8-0.3-1.4c-0.2-0.6-0.4-1-0.4-1.7c0-1,0.6-1.9,1.7-1.9
		c1.1,0,1.6,1,1.6,1.9c0,2.3-2.1,5.4-3.4,7.2L291.7,115.5z"/>
	<path clip-path="url(#SVGID_4_)" fill="#455560" d="M304,112.2c-1.3-1-2.1-2.4-2.1-4.1c0-4.7,4.7-7.9,9-7.9c3.4,0,6.6,2.1,6.6,5.7
		c0,4.7-5,7.6-9.3,7.6C306.7,113.5,305.2,113.1,304,112.2 M313.3,103.6c0-1.3-0.3-2.5-1.8-2.5c-1.9,0-3.2,2.1-3.9,3.6
		c-0.7,1.6-1.3,3.4-1.3,5.1c0,1.2,0.4,2.8,1.9,2.8C311.3,112.6,313.3,106.2,313.3,103.6"/>
	<path clip-path="url(#SVGID_4_)" fill="#455560" d="M329.1,107.7c-1,1.3-1.9,2.4-3.1,3.5c-1.2,1-2.7,2.2-4.3,2.2c-1.2,0-2-1-2-2.1
		c0-0.8,0.2-1.4,0.4-2.1l2.3-5.8c0.1-0.2,0.3-0.7,0.3-0.9c0-0.2-0.1-0.4-0.3-0.4c-0.9,0-2.3,2.2-2.8,2.2c-0.2,0-0.4-0.2-0.4-0.4
		c0-0.5,1.2-1.7,1.6-2c1.1-1,2.7-1.8,4.2-1.8c1.1,0,1.9,0.6,1.9,1.7c0,0.7-0.3,1.4-0.5,2.1l-1.9,5c-0.1,0.3-0.4,1-0.4,1.4
		c0,0.3,0.1,0.5,0.4,0.5c1.1,0,3.5-2.9,4.1-3.8c1.2-1.7,2-3.6,2.5-5.6c0.1-0.3,0.2-0.6,0.4-0.7c0.4-0.2,1.5-0.2,1.9-0.2h1.2
		c0.2,0,0.5,0,0.5,0.3c0,0.1-0.1,0.3-0.1,0.4l-2,6.7c-0.2,0.6-0.8,2.5-0.8,3c0,0.2,0.1,0.3,0.3,0.3c0.9,0,2.1-2.2,2.6-2.2
		c0.2,0,0.3,0.1,0.3,0.3c0,0.6-1.3,1.9-1.7,2.3c-1.1,1-2.5,2-4,2c-1,0-1.5-0.4-1.5-1.4c0-1.1,0.3-2.3,0.6-3.3l0.4-1.4L329.1,107.7z"
		/>
</g>
</svg>
